<?xml version="1.0" standalone="no"?>
<!DOCTYPE svg PUBLIC "-//W3C//DTD SVG 1.1//EN" "http://www.w3.org/Graphics/SVG/1.1/DTD/svg11.dtd" >
<svg xmlns="http://www.w3.org/2000/svg" xmlns:xlink="http://www.w3.org/1999/xlink" version="1.1">
<metadata>
Created by FontForge 20190801 at Thu Aug 16 23:16:18 2007
 By Jimmy Wärting
Copyright 1992, 1994, 1997, 2000, 2004 Adobe Systems Incorporated. All rights reserved. Protected by U.S. Patents D454,582. Myriad is either a registered trademark or a trademark of Adobe Systems Incorporated in the United States and/or other countries.
</metadata>
<defs>
<font id="MyriadPro-BoldSemiCn" horiz-adv-x="300" >
  <font-face 
    font-family="Myriad Pro"
    font-weight="700"
    font-stretch="semi-condensed"
    units-per-em="1000"
    panose-1="2 11 7 3 3 4 3 2 2 4"
    ascent="750"
    descent="-250"
    x-height="489"
    cap-height="674"
    bbox="-160 -250 1161 980"
    underline-thickness="50"
    underline-position="-100"
    stemh="106"
    stemv="146"
    unicode-range="U+0020-FB04"
  />
<missing-glyph horiz-adv-x="500" 
d="M0 0v700h500v-700h-500zM250 395l170 255h-340zM280 350l170 -255v510zM80 50h340l-170 255zM50 605v-510l170 255z" />
    <glyph glyph-name="f_f" unicode="ff" horiz-adv-x="614" 
d="M511 0h-146v383h-143v-383h-146v383h-65v106h65v8c0 56 15 113 53 152c31 32 77 52 143 52c22 0 48 -5 62 -11l-21 -109c-11 4 -23 7 -36 7c-43 0 -56 -37 -56 -85v-14h144v19c0 58 16 119 59 159c35 34 84 48 130 48c33 0 59 -5 80 -11l-9 -112c-13 4 -28 7 -47 7
c-48 0 -67 -39 -67 -86v-24h94v-106h-94v-383z" />
    <glyph glyph-name="f_f_i" unicode="ffi" horiz-adv-x="853" 
d="M744 690l-27 -110c-24 10 -58 19 -98 19c-78 0 -103 -41 -103 -93v-17h281v-489h-146v383h-134v-383h-146v383h-149v-383h-146v383h-65v106h65v8c0 61 20 119 65 158c32 28 76 46 135 46c33 0 64 -8 82 -15l-33 -106c-11 5 -25 9 -41 9c-19 0 -33 -7 -43 -17
c-15 -16 -20 -44 -20 -70v-13h150v22c0 114 85 204 244 204c47 0 99 -10 129 -25z" />
    <glyph glyph-name="f_f_j" unicode="ffj" horiz-adv-x="844" 
d="M744 690l-27 -110c-24 10 -58 19 -98 19c-78 0 -103 -41 -103 -93v-17h281v-437c0 -107 -23 -168 -68 -208c-42 -37 -109 -54 -174 -54l-14 114c35 3 64 11 82 31c21 21 28 59 28 150v298h-134v-383h-146v383h-149v-383h-146v383h-65v106h65v8c0 61 20 119 65 158
c32 28 76 46 135 46c33 0 64 -8 82 -15l-33 -106c-11 5 -25 9 -41 9c-19 0 -33 -7 -43 -17c-15 -16 -20 -44 -20 -70v-13h150v22c0 114 85 204 244 204c47 0 99 -10 129 -25z" />
    <glyph glyph-name="f_f_l" unicode="ffl" horiz-adv-x="853" 
d="M359 688l-32 -108c-12 5 -26 8 -42 8c-19 0 -33 -7 -43 -17c-16 -16 -21 -42 -21 -69v-13h149v20c0 50 24 114 70 152c43 35 100 54 178 54c70 0 134 -14 179 -37v-678h-146v596c-11 6 -28 9 -53 9c-59 0 -83 -43 -83 -95v-21h84v-106h-83v-383h-146v383h-148v-383h-146
v383h-65v106h65v7c0 65 22 120 64 157c36 31 86 48 143 48c30 0 59 -7 76 -13z" />
    <glyph glyph-name="f_i" unicode="fi" horiz-adv-x="558" 
d="M222 0h-146v383h-65v106h65v22c0 114 85 204 244 204c50 0 106 -11 135 -28l-26 -110c-23 11 -60 22 -105 22c-78 0 -103 -41 -103 -93v-17h281v-489h-146v383h-134v-383z" />
    <glyph glyph-name="f_j" unicode="fj" horiz-adv-x="557" 
d="M222 0h-146v383h-65v106h65v22c0 114 85 204 244 204c50 0 106 -11 135 -28l-26 -110c-23 11 -60 22 -105 22c-78 0 -103 -41 -103 -93v-17h281v-437c0 -107 -23 -168 -68 -208c-42 -37 -109 -54 -174 -54l-14 114c35 3 64 11 82 31c21 21 28 59 28 150v298h-134v-383z
" />
    <glyph glyph-name="f_l" unicode="fl" horiz-adv-x="558" 
d="M222 0h-146v383h-65v106h65v20c0 50 24 114 70 152c43 35 99 54 177 54c70 0 134 -14 179 -37v-678h-146v596c-11 6 -28 9 -53 9c-58 0 -82 -43 -82 -95v-21h83v-106h-82v-383z" />
    <glyph glyph-name=".notdef" horiz-adv-x="500" 
d="M0 0v700h500v-700h-500zM250 395l170 255h-340zM280 350l170 -255v510zM80 50h340l-170 255zM50 605v-510l170 255z" />
    <glyph glyph-name="space" unicode=" " horiz-adv-x="189" 
 />
    <glyph glyph-name="exclam" unicode="!" horiz-adv-x="258" 
d="M186 220h-114l-20 454h154zM128 -10c-49 0 -84 37 -84 88c0 52 36 88 85 88c50 0 85 -36 85 -88c0 -51 -33 -88 -86 -88z" />
    <glyph glyph-name="quotedbl" unicode="&#x22;" horiz-adv-x="377" 
d="M35 690h126l-23 -268h-81zM217 690h126l-22 -268h-82z" />
    <glyph glyph-name="numbersign" unicode="#" horiz-adv-x="513" 
d="M207 271h85l15 113h-85zM168 0h-85l26 184h-79v87h92l16 113h-81v87h94l24 179h84l-24 -179h85l25 179h84l-24 -179h77v-87h-90l-15 -113h80v-87h-94l-25 -184h-85l25 184h-85z" />
    <glyph glyph-name="dollar" unicode="$" horiz-adv-x="516" 
d="M301 -86h-95v97c-59 2 -117 19 -151 38l27 112c39 -21 90 -39 148 -39c54 0 89 24 89 63s-30 64 -97 91c-99 40 -162 90 -162 181c0 84 57 151 154 173v97h94v-89c58 -2 100 -16 131 -31l-27 -108c-24 11 -64 31 -127 31c-59 0 -81 -28 -81 -58c0 -33 28 -54 108 -88
c109 -45 151 -101 151 -185c0 -89 -59 -160 -162 -180v-105z" />
    <glyph glyph-name="percent" unicode="%" horiz-adv-x="813" 
d="M192 660c106 0 160 -90 160 -194c0 -137 -79 -206 -165 -206c-96 0 -163 82 -163 197c0 113 64 203 168 203zM188 581c-40 0 -58 -51 -58 -121c-1 -73 19 -121 59 -121c39 0 57 45 57 121c0 69 -15 121 -58 121zM261 -11h-78l367 671h78zM628 392c107 0 161 -90 161 -194
c0 -137 -79 -206 -165 -206c-97 0 -164 82 -164 197c0 113 64 203 168 203zM624 313c-40 0 -58 -51 -58 -121c-1 -73 20 -121 60 -121c39 0 57 45 57 121c0 69 -15 121 -59 121z" />
    <glyph glyph-name="ampersand" unicode="&#x26;" horiz-adv-x="633" 
d="M628 0h-166c-14 14 -26 28 -41 47c-42 -34 -100 -57 -173 -57c-150 0 -221 92 -221 190c0 87 47 150 122 191v3c-31 37 -51 87 -51 135c0 87 66 175 192 175c99 0 173 -61 173 -156c0 -66 -34 -123 -128 -176l-1 -4c36 -43 78 -98 109 -131c26 43 42 105 49 162h128
c-15 -99 -48 -188 -103 -250c33 -39 70 -83 111 -129zM271 96c36 0 65 14 85 33c-40 42 -93 106 -143 166c-26 -19 -49 -49 -49 -93c0 -57 40 -106 107 -106zM284 591c-36 0 -56 -33 -56 -71c0 -35 14 -65 42 -98c47 33 69 62 69 102c0 31 -15 67 -55 67z" />
    <glyph glyph-name="quoteright" unicode="&#x2019;" horiz-adv-x="239" 
d="M88 680l134 10c-30 -96 -73 -191 -118 -265l-85 -9c30 85 56 179 69 264z" />
    <glyph glyph-name="parenleft" unicode="(" horiz-adv-x="297" 
d="M165 691h103c-57 -92 -103 -224 -103 -406c0 -177 46 -310 103 -403h-103c-54 77 -114 211 -114 404c2 194 60 328 114 405z" />
    <glyph glyph-name="parenright" unicode=")" horiz-adv-x="297" 
d="M132 -118h-103c57 92 103 227 103 406c0 178 -46 310 -103 403h103c54 -76 114 -208 114 -404c-2 -195 -60 -327 -114 -405z" />
    <glyph glyph-name="asterisk" unicode="*" horiz-adv-x="433" 
d="M273 684l85 -49l-105 -124l1 -2l154 29v-97l-155 27l-1 -3l106 -120l-87 -50l-56 151l-2 -2l-58 -150l-82 50l105 124l-2 1l-151 -28v97l150 -29l1 2l-103 123l87 50l55 -150h2z" />
    <glyph glyph-name="plus" unicode="+" horiz-adv-x="596" 
d="M251 532h94v-220h211v-90h-211v-222h-94v222h-211v90h211v220z" />
    <glyph glyph-name="comma" unicode="," horiz-adv-x="252" 
d="M100 -112l-96 -9c31 87 58 191 71 279l148 10c-32 -98 -76 -204 -123 -280z" />
    <glyph glyph-name="hyphen" unicode="-" horiz-adv-x="303" 
d="M30 316h243v-99h-243v99z" />
    <glyph glyph-name="period" unicode="." horiz-adv-x="252" 
d="M134 -10c-48 0 -84 37 -84 91c0 53 37 91 86 91s85 -36 85 -91c0 -54 -34 -91 -87 -91z" />
    <glyph glyph-name="slash" unicode="/" horiz-adv-x="316" 
d="M101 -40h-96l220 724h96z" />
    <glyph glyph-name="zero" unicode="0" horiz-adv-x="516" 
d="M261 660c168 0 226 -161 226 -332c0 -210 -82 -338 -230 -338c-160 0 -226 154 -227 333c0 189 73 337 231 337zM260 546c-52 0 -84 -70 -84 -221c-1 -151 30 -221 84 -221s81 74 81 222c0 143 -26 220 -81 220z" />
    <glyph glyph-name="one" unicode="1" horiz-adv-x="516" 
d="M219 0v518h-2l-119 -58l-25 111l166 79h122v-650h-142z" />
    <glyph glyph-name="two" unicode="2" horiz-adv-x="516" 
d="M467 0h-430v91l78 77c125 122 194 200 195 281c0 53 -30 93 -99 93c-52 0 -96 -25 -127 -47l-37 106c43 32 113 59 192 59c146 0 216 -89 216 -199c0 -113 -78 -203 -166 -288l-54 -49v-2h232v-122z" />
    <glyph glyph-name="three" unicode="3" horiz-adv-x="516" 
d="M34 30l27 111c27 -14 82 -35 135 -35c75 0 113 39 113 89c0 67 -61 97 -128 97h-49v105h46c50 0 113 20 113 77c0 41 -31 70 -89 70c-47 0 -94 -19 -120 -35l-27 106c35 23 106 45 181 45c131 0 202 -73 202 -160c0 -67 -38 -122 -111 -149v-2c73 -17 132 -75 132 -161
c0 -110 -94 -198 -251 -198c-75 0 -139 19 -174 40z" />
    <glyph glyph-name="four" unicode="4" horiz-adv-x="516" 
d="M423 0h-135v155h-268v96l235 399h168v-384h74v-111h-74v-155zM152 266h136v141c0 37 3 77 5 117h-3c-19 -41 -36 -76 -56 -115l-82 -141v-2z" />
    <glyph glyph-name="five" unicode="5" horiz-adv-x="516" 
d="M442 650v-122h-228l-14 -105c12 1 22 2 35 2c52 -1 114 -15 157 -48c45 -34 72 -86 72 -159c0 -123 -98 -228 -263 -228c-69 0 -130 16 -164 34l26 110c27 -13 78 -29 130 -29c64 0 123 33 123 103c0 72 -57 110 -170 110c-31 0 -53 -2 -76 -5l41 337h331z" />
    <glyph glyph-name="six" unicode="6" horiz-adv-x="516" 
d="M426 658v-114c-17 1 -35 0 -58 -3c-120 -13 -175 -83 -192 -161h3c30 32 72 52 127 52c102 0 185 -78 185 -209c0 -124 -87 -233 -223 -233c-159 0 -240 123 -240 279c0 128 45 228 112 293c58 55 136 87 223 94c29 3 49 2 63 2zM267 97c49 0 77 51 77 121
c0 58 -28 110 -86 110c-34 0 -65 -22 -78 -53c-5 -8 -7 -22 -7 -44c2 -74 32 -134 94 -134z" />
    <glyph glyph-name="seven" unicode="7" horiz-adv-x="516" 
d="M46 650h428v-93l-249 -557h-151l247 526v2h-275v122z" />
    <glyph glyph-name="eight" unicode="8" horiz-adv-x="516" 
d="M139 336l-1 2c-60 34 -89 88 -89 143c0 109 94 179 216 179c134 0 201 -81 201 -164c0 -53 -26 -109 -92 -144v-3c62 -26 114 -82 114 -164c0 -118 -96 -195 -234 -195c-149 0 -226 86 -226 180c0 79 45 134 111 166zM260 90c50 0 81 37 81 86c0 58 -41 94 -94 110
c-45 -16 -72 -53 -72 -101c-1 -50 31 -95 85 -95zM258 562c-48 0 -72 -36 -72 -76c0 -45 35 -74 84 -92c33 12 60 46 60 86c0 41 -21 82 -72 82z" />
    <glyph glyph-name="nine" unicode="9" horiz-adv-x="516" 
d="M85 -8v115c21 -1 36 -1 64 2c40 3 82 17 113 40c38 28 65 72 76 123l-2 1c-27 -28 -66 -45 -120 -45c-103 0 -188 76 -188 200c0 122 92 232 230 232c153 0 228 -122 228 -276c0 -139 -44 -239 -112 -303c-56 -52 -133 -82 -223 -88c-24 -2 -48 -2 -66 -1zM252 554
c-46 0 -80 -45 -79 -116c0 -59 28 -108 83 -108c36 0 62 19 74 40c5 10 7 22 7 48c1 74 -25 136 -85 136z" />
    <glyph glyph-name="colon" unicode=":" horiz-adv-x="252" 
d="M134 314c-48 0 -83 37 -83 89c0 51 36 89 85 89s84 -36 84 -89c0 -52 -33 -89 -86 -89zM134 -10c-48 0 -83 37 -83 89c0 51 36 89 85 89s84 -36 84 -89c0 -52 -33 -89 -86 -89z" />
    <glyph glyph-name="semicolon" unicode=";" horiz-adv-x="252" 
d="M99 -112l-94 -9c31 87 58 191 71 278l146 10c-32 -98 -76 -203 -123 -279zM139 314c-48 0 -83 37 -83 89c0 51 36 89 85 89s84 -36 84 -89c0 -52 -33 -89 -86 -89z" />
    <glyph glyph-name="less" unicode="&#x3c;" horiz-adv-x="596" 
d="M58 227v78l480 227v-105l-360 -160v-2l360 -160v-105z" />
    <glyph glyph-name="equal" unicode="=" horiz-adv-x="596" 
d="M556 323h-516v90h516v-90zM556 122h-516v90h516v-90z" />
    <glyph glyph-name="greater" unicode="&#x3e;" horiz-adv-x="596" 
d="M538 312v-92l-480 -220v104l375 161v2l-375 161v104z" />
    <glyph glyph-name="question" unicode="?" horiz-adv-x="412" 
d="M249 217h-126l-1 23c-4 54 14 106 57 161c31 40 53 72 53 107s-23 59 -70 60c-30 0 -65 -9 -89 -26l-30 106c31 19 87 38 152 38c131 0 185 -77 185 -155c0 -74 -45 -126 -82 -171c-34 -41 -50 -79 -49 -124v-19zM183 -10c-49 0 -84 37 -84 88c0 52 37 88 85 88
c50 0 85 -36 85 -88c0 -51 -33 -88 -86 -88z" />
    <glyph glyph-name="at" unicode="@" horiz-adv-x="725" 
d="M414 245l18 106c-8 2 -18 4 -30 4c-60 0 -112 -69 -112 -153c0 -37 15 -60 45 -60c35 0 71 48 79 103zM498 -13l16 -53c-57 -28 -108 -37 -175 -37c-154 0 -294 114 -294 311c0 203 143 384 359 384c171 0 282 -122 282 -279c0 -155 -76 -248 -180 -248
c-48 0 -78 27 -82 79h-2c-29 -51 -73 -79 -124 -79c-61 0 -104 48 -104 127c0 124 87 236 226 236c41 0 87 -10 111 -23l-31 -185c-11 -63 -3 -92 26 -92c42 -1 92 57 92 178c0 130 -76 230 -225 230c-146 0 -278 -125 -278 -321c0 -169 102 -261 242 -261
c50 0 101 12 141 33z" />
    <glyph glyph-name="A" unicode="A" horiz-adv-x="597" 
d="M377 167h-172l-42 -167h-148l188 674h186l186 -674h-153zM225 277h133l-36 143c-10 40 -21 96 -30 137h-3c-9 -41 -19 -98 -28 -137z" />
    <glyph glyph-name="B" unicode="B" horiz-adv-x="568" 
d="M64 2v663c40 8 112 14 183 14c83 0 142 -9 190 -41c44 -26 72 -72 72 -130c0 -59 -34 -116 -108 -144v-3c78 -21 130 -81 130 -164c0 -61 -25 -108 -64 -141c-47 -40 -124 -63 -251 -63c-68 0 -119 4 -152 9zM209 568v-164h43c71 0 111 35 111 87c0 51 -34 81 -98 81
c-28 0 -45 -2 -56 -4zM209 299v-194c13 -3 28 -3 49 -3c65 0 120 29 120 99c0 68 -56 98 -124 98h-45z" />
    <glyph glyph-name="C" unicode="C" horiz-adv-x="535" 
d="M487 133l20 -117c-25 -12 -81 -25 -151 -25c-215 0 -324 145 -324 336c0 237 158 356 339 356c70 0 121 -14 144 -26l-29 -118c-25 12 -61 22 -107 22c-107 0 -193 -71 -193 -225c0 -143 74 -221 193 -221c39 0 82 8 108 18z" />
    <glyph glyph-name="D" unicode="D" horiz-adv-x="635" 
d="M64 2v663c49 9 115 14 184 14c115 0 191 -22 249 -69c66 -52 106 -136 106 -259c0 -132 -43 -223 -106 -277c-64 -55 -159 -81 -279 -81c-68 0 -120 5 -154 9zM210 560v-449c11 -2 29 -2 44 -2c115 -1 195 71 195 240c0 140 -68 216 -183 216c-26 0 -44 -2 -56 -5z" />
    <glyph glyph-name="E" unicode="E" horiz-adv-x="492" 
d="M430 408v-119h-220v-168h246v-121h-392v674h378v-121h-232v-145h220z" />
    <glyph glyph-name="F" unicode="F" horiz-adv-x="487" 
d="M64 0v674h376v-121h-230v-161h215v-119h-215v-273h-146z" />
    <glyph glyph-name="G" unicode="G" horiz-adv-x="619" 
d="M570 383v-356c-42 -15 -122 -34 -199 -34c-110 0 -189 28 -246 83c-61 58 -94 150 -93 254c2 232 158 351 355 351c77 0 135 -15 164 -29l-29 -119c-32 14 -71 25 -132 25c-116 0 -205 -69 -205 -225c0 -146 80 -221 186 -221c28 0 50 3 60 8v148h-91v115h230z" />
    <glyph glyph-name="H" unicode="H" horiz-adv-x="637" 
d="M64 674h146v-263h217v263h146v-674h-146v282h-217v-282h-146v674z" />
    <glyph glyph-name="I" unicode="I" horiz-adv-x="274" 
d="M64 674h146v-674h-146v674z" />
    <glyph glyph-name="J" unicode="J" horiz-adv-x="376" 
d="M173 237v437h146v-436c0 -192 -92 -248 -225 -248c-32 0 -72 5 -97 14l15 119c18 -6 41 -10 67 -10c56 0 94 25 94 124z" />
    <glyph glyph-name="K" unicode="K" horiz-adv-x="568" 
d="M64 0v674h145v-300h3c13 27 27 53 42 78l133 222h175l-202 -289l211 -385h-167l-146 287l-49 -66v-221h-145z" />
    <glyph glyph-name="L" unicode="L" horiz-adv-x="471" 
d="M64 0v674h146v-551h239v-123h-385z" />
    <glyph glyph-name="M" unicode="M" horiz-adv-x="783" 
d="M597 0l-11 251c-3 77 -6 171 -6 262h-2c-19 -82 -44 -174 -66 -246l-75 -256h-111l-67 254c-20 72 -41 164 -55 248h-3c-2 -86 -7 -185 -10 -264l-13 -249h-132l45 674h183l62 -231c21 -79 41 -161 55 -239h3c16 77 36 162 57 240l66 230h181l38 -674h-139z" />
    <glyph glyph-name="N" unicode="N" horiz-adv-x="638" 
d="M196 0h-132v674h160l129 -252c35 -65 72 -150 99 -221h3c-8 84 -13 182 -13 291v182h132v-674h-147l-132 259c-36 68 -76 154 -103 227h-3c4 -83 7 -181 7 -299v-187z" />
    <glyph glyph-name="O" unicode="O" horiz-adv-x="646" 
d="M328 684c194 0 287 -162 287 -339c0 -231 -121 -355 -297 -355c-185 0 -286 154 -286 344c0 197 113 350 296 350zM324 565c-87 0 -138 -94 -138 -229c0 -138 52 -227 139 -227c89 0 136 98 136 231c0 120 -45 225 -137 225z" />
    <glyph glyph-name="P" unicode="P" horiz-adv-x="544" 
d="M64 0v665c44 8 105 14 185 14c89 0 155 -16 200 -54c42 -34 67 -90 67 -153c0 -68 -22 -123 -60 -161c-49 -47 -124 -69 -203 -69c-17 0 -32 1 -44 3v-245h-145zM209 561v-202c11 -2 24 -3 42 -3c76 0 120 43 120 109c0 62 -37 101 -109 101c-25 0 -43 -2 -53 -5z" />
    <glyph glyph-name="Q" unicode="Q" horiz-adv-x="646" 
d="M626 -2l-44 -112c-84 27 -160 58 -238 92c-15 7 -30 11 -42 12c-146 7 -270 123 -270 343c0 196 112 351 298 351c193 0 285 -163 285 -338c0 -157 -61 -264 -142 -302v-4c49 -17 104 -30 153 -42zM325 109c88 0 136 97 136 231c0 124 -46 225 -136 225
c-89 0 -140 -101 -139 -228c-1 -131 49 -228 139 -228z" />
    <glyph glyph-name="R" unicode="R" horiz-adv-x="556" 
d="M64 0v665c47 8 113 14 185 14c91 0 160 -14 206 -52c41 -34 60 -81 60 -142c0 -81 -53 -142 -115 -166v-3c47 -19 72 -63 88 -128c19 -76 38 -162 51 -188h-150c-10 19 -26 78 -43 158c-16 85 -43 108 -99 108h-38v-266h-145zM209 564v-191h49c70 0 111 41 111 100
c0 61 -36 95 -103 96c-29 0 -47 -2 -57 -5z" />
    <glyph glyph-name="S" unicode="S" horiz-adv-x="496" 
d="M36 28l27 122c37 -19 95 -37 152 -37c67 0 102 30 102 74s-32 68 -105 99c-106 45 -168 109 -168 196c0 113 89 201 242 201c67 0 118 -14 152 -31l-30 -119c-24 12 -67 29 -124 29c-63 0 -93 -32 -93 -66c0 -43 32 -62 115 -98c110 -48 158 -111 158 -199
c0 -116 -87 -208 -256 -208c-70 0 -139 19 -172 37z" />
    <glyph glyph-name="T" unicode="T" horiz-adv-x="501" 
d="M177 0v548h-163v126h474v-126h-165v-548h-146z" />
    <glyph glyph-name="U" unicode="U" horiz-adv-x="627" 
d="M62 674h146v-403c0 -111 40 -162 105 -162c67 0 106 48 106 162v403h146v-390c0 -197 -93 -294 -256 -294c-161 0 -247 95 -247 295v389z" />
    <glyph glyph-name="V" unicode="V" horiz-adv-x="581" 
d="M372 0h-168l-197 674h160l72 -287c20 -78 38 -156 53 -239h2c14 81 33 161 53 238l73 288h157z" />
    <glyph glyph-name="W" unicode="W" horiz-adv-x="825" 
d="M316 0h-156l-146 674h155l46 -275c13 -79 24 -164 34 -236h3c10 76 26 155 42 238l55 273h145l51 -279c14 -78 25 -151 34 -230h3c9 80 22 156 35 236l48 273h147l-157 -674h-156l-52 269c-13 66 -24 134 -32 212h-2c-12 -78 -23 -145 -38 -212z" />
    <glyph glyph-name="X" unicode="X" horiz-adv-x="551" 
d="M541 0h-164l-56 123c-21 44 -36 80 -52 120h-2c-14 -40 -28 -77 -47 -121l-49 -122h-161l174 342l-168 332h164l53 -123c17 -40 30 -73 45 -111h2c15 42 26 73 41 111l50 123h161l-171 -331z" />
    <glyph glyph-name="Y" unicode="Y" horiz-adv-x="542" 
d="M341 0h-146v271l-193 403h164l61 -162c19 -47 33 -87 47 -133h2c13 44 28 86 45 134l60 161h161l-201 -398v-276z" />
    <glyph glyph-name="Z" unicode="Z" horiz-adv-x="520" 
d="M20 0v81l289 467v3h-263v123h445v-91l-281 -457v-3h284v-123h-474z" />
    <glyph glyph-name="bracketleft" unicode="[" horiz-adv-x="297" 
d="M261 -112h-198v798h198v-84h-92v-630h92v-84z" />
    <glyph glyph-name="backslash" unicode="\" horiz-adv-x="301" 
d="M296 -40h-96l-197 724h96z" />
    <glyph glyph-name="bracketright" unicode="]" horiz-adv-x="297" 
d="M36 686h198v-798h-198v84h92v630h-92v84z" />
    <glyph glyph-name="asciicircum" unicode="^" horiz-adv-x="596" 
d="M553 177h-106l-148 358h-4l-148 -358h-104l210 473h90z" />
    <glyph glyph-name="underscore" unicode="_" horiz-adv-x="500" 
d="M0 -75h500v-50h-500v50z" />
    <glyph glyph-name="quoteleft" unicode="&#x2018;" horiz-adv-x="239" 
d="M155 426l-134 -10c30 96 73 191 118 265l85 9c-30 -85 -56 -179 -69 -264z" />
    <glyph glyph-name="a" unicode="a" horiz-adv-x="496" 
d="M440 290v-174c0 -44 2 -87 8 -116h-131l-9 49h-2c-31 -39 -77 -59 -131 -59c-92 0 -149 69 -149 149c0 128 114 186 268 186v8c0 30 -16 64 -83 64c-47 0 -93 -15 -125 -34l-26 94c32 18 95 42 178 42c159 0 202 -98 202 -209zM298 170v63c-69 0 -130 -18 -130 -79
c0 -41 26 -60 56 -60c33 0 62 21 72 51c2 8 2 17 2 25z" />
    <glyph glyph-name="b" unicode="b" horiz-adv-x="552" 
d="M56 146v559h146v-272h2c27 40 72 66 134 66c111 0 184 -100 183 -244c0 -175 -98 -265 -204 -265c-53 0 -100 20 -132 75h-2l-7 -65h-124c2 36 4 93 4 146zM202 289v-91c0 -11 1 -20 3 -28c11 -39 41 -64 77 -64c58 0 92 52 92 141c0 79 -30 137 -92 137
c-36 0 -68 -28 -76 -66c-3 -8 -4 -19 -4 -29z" />
    <glyph glyph-name="c" unicode="c" horiz-adv-x="412" 
d="M379 120l16 -109c-23 -11 -69 -20 -120 -20c-148 0 -243 93 -243 249c0 146 95 259 263 259c38 0 77 -7 103 -18l-22 -109c-16 6 -39 13 -74 13c-75 0 -122 -58 -122 -140c0 -89 53 -139 123 -139c31 0 56 5 76 14z" />
    <glyph glyph-name="d" unicode="d" horiz-adv-x="551" 
d="M349 705h146v-559c0 -53 2 -110 4 -146h-129l-6 67h-2c-27 -49 -81 -77 -138 -77c-112 0 -192 104 -192 251c0 167 94 259 200 259c56 0 96 -22 115 -54h2v259zM349 204v84c0 8 0 19 -2 28c-7 37 -35 69 -76 69c-62 0 -92 -63 -92 -141c0 -86 36 -137 91 -137
c36 0 66 24 76 64c2 10 3 21 3 33z" />
    <glyph glyph-name="e" unicode="e" horiz-adv-x="495" 
d="M461 196h-290c3 -67 61 -96 128 -96c47 0 86 7 122 19l20 -100c-46 -18 -104 -28 -165 -28c-156 0 -245 94 -245 246c0 137 80 263 232 263c143 0 203 -112 203 -241c0 -29 -3 -51 -5 -63zM170 297h161c0 44 -16 103 -76 103c-58 0 -82 -60 -85 -103z" />
    <glyph glyph-name="f" unicode="f" horiz-adv-x="325" 
d="M222 0h-146v383h-65v106h65v19c0 58 16 119 58 159c36 34 85 48 130 48c33 0 60 -5 80 -11l-9 -112c-12 4 -27 7 -46 7c-48 0 -68 -39 -68 -86v-24h94v-106h-93v-383z" />
    <glyph glyph-name="g" unicode="g" horiz-adv-x="543" 
d="M488 340v-274c0 -97 -19 -168 -70 -214c-48 -43 -115 -58 -187 -58c-59 0 -118 12 -160 33l29 111c29 -16 76 -32 127 -32c71 0 117 40 117 126v31h-2c-25 -38 -69 -59 -119 -59c-118 0 -191 105 -191 238c0 159 93 258 205 258c59 0 98 -27 121 -67h2l6 56h126
c-2 -36 -4 -80 -4 -149zM342 206v90c0 11 -1 22 -3 31c-10 34 -34 59 -70 59c-53 0 -90 -54 -90 -141c0 -78 33 -132 89 -132c32 0 59 21 69 54c4 11 5 27 5 39z" />
    <glyph glyph-name="h" unicode="h" horiz-adv-x="547" 
d="M56 0v705h146v-273h2c15 20 33 37 55 48c22 12 48 19 76 19c94 0 157 -70 157 -210v-289h-146v277c0 60 -18 103 -70 103c-35 0 -58 -22 -69 -51c-3 -9 -5 -24 -5 -35v-294h-146z" />
    <glyph glyph-name="i" unicode="i" horiz-adv-x="259" 
d="M202 0h-146v489h146v-489zM129 698c45 0 75 -31 76 -75c0 -42 -31 -74 -78 -74c-45 0 -75 32 -75 74c0 44 31 75 77 75z" />
    <glyph glyph-name="j" unicode="j" horiz-adv-x="271" 
d="M-26 -210l-13 114c35 3 64 11 82 31c21 21 28 59 28 150v404h146v-437c0 -107 -23 -168 -68 -208c-42 -37 -110 -54 -175 -54zM144 698c45 0 75 -31 76 -75c0 -42 -31 -74 -78 -74c-45 0 -75 32 -75 74c0 44 31 75 77 75z" />
    <glyph glyph-name="k" unicode="k" horiz-adv-x="504" 
d="M202 705v-425h2c11 23 21 43 32 62l88 147h171l-159 -201l178 -288h-175l-103 201l-34 -47v-154h-146v705h146z" />
    <glyph glyph-name="l" unicode="l" horiz-adv-x="260" 
d="M56 0v705h146v-705h-146z" />
    <glyph glyph-name="m" unicode="m" horiz-adv-x="806" 
d="M56 0v335c0 59 -2 109 -4 154h124l7 -63h3c22 32 65 73 138 73c61 0 106 -30 126 -79h2c17 24 37 44 60 57c24 14 52 22 86 22c91 0 153 -67 153 -204v-295h-143v273c0 66 -18 108 -64 108c-32 0 -54 -21 -64 -50c-3 -10 -5 -25 -5 -38v-293h-143v284c0 54 -16 97 -63 97
c-33 0 -55 -25 -65 -51c-4 -11 -5 -25 -5 -38v-292h-143z" />
    <glyph glyph-name="n" unicode="n" horiz-adv-x="547" 
d="M56 0v335c0 59 -2 109 -4 154h126l7 -64h3c21 33 69 74 142 74c98 0 162 -69 162 -202v-297h-146v282c0 56 -19 98 -69 98c-36 0 -59 -25 -69 -53c-4 -10 -6 -25 -6 -40v-287h-146z" />
    <glyph glyph-name="o" unicode="o" horiz-adv-x="533" 
d="M272 500c138 0 229 -101 229 -251c0 -187 -123 -259 -236 -259c-135 0 -233 94 -233 252c0 163 101 258 240 258zM268 394c-65 0 -87 -78 -87 -149c0 -83 29 -149 88 -149c54 0 83 66 83 150c0 71 -23 148 -84 148z" />
    <glyph glyph-name="p" unicode="p" horiz-adv-x="552" 
d="M56 -196v524c0 62 -2 115 -4 161h127l7 -64h2c31 48 81 75 145 75c106 0 187 -101 187 -250c0 -178 -102 -260 -203 -260c-53 0 -94 24 -113 53h-2v-239h-146zM202 287v-87c0 -12 1 -24 4 -34c10 -38 40 -62 75 -62c60 0 92 59 92 140c0 83 -31 139 -90 139
c-36 0 -69 -28 -77 -67c-3 -9 -4 -19 -4 -29z" />
    <glyph glyph-name="q" unicode="q" horiz-adv-x="551" 
d="M349 -196v252h-2c-27 -42 -71 -66 -130 -66c-102 0 -185 99 -185 247c0 172 99 262 201 262c53 0 96 -21 122 -65l2 -1l5 56h136c-1 -47 -3 -97 -3 -149v-536h-146zM349 200v92c0 8 -1 18 -3 26c-8 36 -37 65 -75 65c-61 0 -92 -57 -92 -139c0 -84 34 -138 91 -138
c35 0 65 24 75 61c3 10 4 23 4 33z" />
    <glyph glyph-name="r" unicode="r" horiz-adv-x="354" 
d="M56 0v332c0 65 -2 114 -4 157h125l6 -85h4c24 66 78 95 122 95c13 0 20 -1 31 -3v-138c-11 2 -22 3 -38 3c-47 0 -85 -26 -96 -75c-3 -10 -4 -23 -4 -38v-248h-146z" />
    <glyph glyph-name="s" unicode="s" horiz-adv-x="401" 
d="M29 24l26 104c25 -15 77 -33 118 -33c42 0 62 15 62 41s-15 39 -68 60c-95 37 -127 91 -127 145c0 90 73 159 188 159c52 0 97 -13 126 -27l-26 -102c-21 11 -57 25 -94 25c-36 0 -56 -16 -56 -40c0 -23 17 -35 73 -58c86 -34 122 -83 122 -150c0 -94 -71 -157 -200 -157
c-57 0 -111 13 -144 33z" />
    <glyph glyph-name="t" unicode="t" horiz-adv-x="350" 
d="M78 579l144 41v-131h105v-106h-105v-191c0 -59 17 -82 57 -82c19 0 28 1 42 4l1 -111c-19 -7 -53 -12 -93 -12c-46 0 -85 15 -109 39c-28 28 -42 72 -42 143v210h-63v106h63v90z" />
    <glyph glyph-name="u" unicode="u" horiz-adv-x="544" 
d="M486 489v-334c0 -61 2 -113 4 -155h-126l-7 64h-3c-20 -31 -64 -74 -141 -74c-97 0 -159 64 -159 209v290h146v-268c0 -70 20 -112 68 -112c36 0 57 25 66 47c4 9 6 22 6 35v298h146z" />
    <glyph glyph-name="v" unicode="v" horiz-adv-x="490" 
d="M8 489h157l58 -225c10 -42 18 -82 25 -124h3c7 43 15 81 25 124l55 225h151l-167 -489h-142z" />
    <glyph glyph-name="w" unicode="w" horiz-adv-x="716" 
d="M9 489h151l35 -203c9 -52 18 -104 25 -157h2c9 53 22 108 33 155l50 205h114l47 -199c12 -55 24 -108 33 -161h2c6 52 14 106 25 162l38 198h143l-143 -489h-133l-43 171c-12 48 -21 94 -30 153h-2c-8 -60 -18 -107 -30 -152l-47 -172h-134z" />
    <glyph glyph-name="x" unicode="x" horiz-adv-x="482" 
d="M7 489h162l42 -83c13 -27 25 -52 35 -76h3c11 26 21 52 33 77l39 82h155l-146 -235l148 -254h-164l-44 89c-12 24 -23 49 -34 75h-2c-11 -26 -22 -51 -33 -75l-41 -89h-156l149 247z" />
    <glyph glyph-name="y" unicode="y" horiz-adv-x="483" 
d="M6 489h160l66 -245c7 -29 15 -62 21 -88h3c6 26 12 60 19 88l54 245h152l-109 -339c-57 -164 -99 -246 -153 -299c-50 -47 -104 -66 -136 -70l-35 123c20 5 43 16 66 31c21 13 43 37 56 60c5 8 8 15 8 22c0 5 -2 12 -6 23z" />
    <glyph glyph-name="z" unicode="z" horiz-adv-x="433" 
d="M21 0v86l144 200c24 31 46 58 68 84v2h-196v117h369v-91l-138 -192c-24 -31 -48 -62 -70 -87v-2h215v-117h-392z" />
    <glyph glyph-name="braceleft" unicode="{" horiz-adv-x="297" 
d="M24 249v77c64 2 73 36 73 65c0 25 -3 51 -5 78c-3 27 -6 53 -6 79c0 95 58 138 152 138h30v-83h-17c-43 -2 -59 -28 -59 -70c0 -20 2 -39 4 -60c3 -21 5 -42 5 -66c1 -72 -28 -105 -82 -118v-2c54 -13 83 -45 82 -118c0 -25 -2 -47 -4 -68c-3 -21 -5 -40 -5 -58
c0 -43 14 -70 60 -72h16v-83h-31c-88 0 -151 36 -151 139c0 25 3 52 5 79c3 27 6 53 6 78c0 27 -9 63 -73 65z" />
    <glyph glyph-name="bar" unicode="|" horiz-adv-x="263" 
d="M80 750h104v-1000h-104v1000z" />
    <glyph glyph-name="braceright" unicode="}" horiz-adv-x="297" 
d="M273 326v-77c-64 -2 -73 -38 -73 -65c0 -25 3 -51 6 -78s6 -54 6 -79c0 -103 -63 -139 -151 -139h-31v83h16c46 2 60 29 60 72c0 18 -2 37 -5 58s-5 43 -5 68c-1 73 28 105 82 118v2c-54 13 -83 46 -82 118c0 24 2 45 6 66c2 21 4 40 4 60c0 42 -16 68 -59 70h-17v83h30
c94 0 152 -43 152 -138c0 -26 -3 -52 -6 -79s-6 -53 -6 -78c0 -29 9 -63 73 -65z" />
    <glyph glyph-name="asciitilde" unicode="~" horiz-adv-x="596" 
d="M139 195h-92c-1 132 62 181 138 181c48 0 83 -17 138 -48c45 -26 69 -40 93 -40c25 0 39 22 41 82h92c5 -133 -52 -184 -130 -184c-47 0 -82 15 -137 48c-47 28 -73 43 -96 43c-26 0 -44 -18 -47 -82z" />
    <glyph glyph-name="exclamdown" unicode="&#xa1;" horiz-adv-x="258" 
d="M206 -192h-154l20 453h114zM130 493c49 0 84 -36 84 -88c0 -51 -33 -88 -85 -88c-50 0 -85 37 -85 88c0 52 36 88 86 88z" />
    <glyph glyph-name="cent" unicode="&#xa2;" horiz-adv-x="516" 
d="M353 -10h-94v98c-58 9 -103 34 -137 74c-33 40 -53 97 -53 164c0 120 70 220 191 245v97h94v-92c31 -2 63 -8 87 -19l-21 -108c-23 11 -50 17 -85 17c-73 0 -118 -56 -118 -136c0 -88 54 -135 121 -135c38 0 66 7 92 17l17 -106c-23 -11 -56 -19 -94 -21v-95z" />
    <glyph glyph-name="sterling" unicode="&#xa3;" horiz-adv-x="516" 
d="M470 0h-423v81c55 23 105 83 105 147c0 16 -1 30 -3 44h-92v99h75c-5 26 -9 56 -9 85c0 119 84 204 214 204c50 0 86 -11 107 -22l-23 -112c-18 9 -43 16 -76 16c-64 0 -86 -42 -86 -89c0 -29 4 -55 10 -82h127v-99h-114c1 -27 -1 -51 -9 -76c-9 -26 -25 -52 -49 -74v-2
h246v-120z" />
    <glyph glyph-name="fraction" unicode="&#x2044;" horiz-adv-x="123" 
d="M-81 -10h-79l364 670h78z" />
    <glyph glyph-name="yen" unicode="&#xa5;" horiz-adv-x="516" 
d="M322 0h-136v161h-148v70h148v63h-148v70h114l-150 286h154l65 -166c15 -40 27 -76 38 -109h2c11 31 22 70 38 110l66 165h148l-156 -286h114v-70h-149v-63h149v-70h-149v-161z" />
    <glyph glyph-name="florin" unicode="&#x192;" horiz-adv-x="516" 
d="M102 305v104h86l4 36c8 82 52 215 209 215c31 0 60 -7 76 -15l-21 -105c-13 5 -27 8 -45 8c-49 0 -72 -38 -78 -94l-6 -45h99v-104h-110l-21 -181c-13 -117 -53 -212 -190 -212c-37 1 -69 8 -85 16l21 103c14 -5 29 -8 44 -8c43 1 63 26 75 129l17 153h-75z" />
    <glyph glyph-name="section" unicode="&#xa7;" horiz-adv-x="522" 
d="M152 344c0 -29 24 -53 83 -76c44 -16 86 -31 107 -42c16 10 28 31 28 53c0 27 -20 53 -66 71c-40 16 -90 33 -117 47c-20 -10 -35 -30 -35 -53zM432 655l-23 -89c-28 13 -67 26 -120 26c-52 0 -82 -19 -82 -47c0 -32 30 -49 97 -70c100 -33 177 -72 177 -172
c0 -53 -27 -93 -68 -123c17 -14 40 -47 40 -90c0 -114 -113 -159 -208 -159c-58 0 -125 11 -172 41l27 90c27 -16 82 -39 140 -39c50 0 85 17 85 51c0 33 -29 51 -102 77c-99 34 -182 75 -182 169c0 43 26 91 80 121c-20 18 -38 52 -38 89c0 98 90 153 206 153
c53 0 102 -9 143 -28z" />
    <glyph glyph-name="currency" unicode="&#xa4;" horiz-adv-x="516" 
d="M259 546c44 0 82 -13 111 -35l73 81l62 -65l-84 -77c15 -28 29 -66 29 -116c0 -54 -14 -93 -31 -120l82 -80l-62 -63l-71 84c-30 -26 -74 -39 -112 -39c-39 0 -82 13 -110 37l-69 -82l-62 63l80 77c-17 28 -32 67 -32 119c0 54 16 92 32 120l-83 76l63 66l73 -83
c29 24 68 37 111 37zM256 448c-48 0 -80 -48 -80 -117c0 -75 40 -117 81 -117c44 0 80 41 80 118c0 63 -30 116 -81 116z" />
    <glyph glyph-name="quotesingle" unicode="'" horiz-adv-x="195" 
d="M35 690h126l-23 -268h-81z" />
    <glyph glyph-name="quotedblleft" unicode="&#x201c;" horiz-adv-x="419" 
d="M153 426l-134 -10c30 96 73 191 118 265l85 9c-30 -85 -56 -179 -69 -264zM336 426l-134 -10c30 96 73 191 118 265l85 9c-30 -85 -56 -179 -69 -264z" />
    <glyph glyph-name="guillemotleft" unicode="&#xab;" horiz-adv-x="440" 
d="M238 441l-116 -189l116 -189h-102l-113 189l112 189h103zM422 441l-116 -189l116 -189h-102l-113 189l112 189h103z" />
    <glyph glyph-name="guilsinglleft" unicode="&#x2039;" horiz-adv-x="255" 
d="M238 441l-116 -189l116 -189h-102l-113 189l112 189h103z" />
    <glyph glyph-name="guilsinglright" unicode="&#x203a;" horiz-adv-x="255" 
d="M133 252l-116 189h101l114 -189l-113 -189h-102z" />
    <glyph glyph-name="fi" unicode="&#xfb01;" horiz-adv-x="558" 
d="M222 0h-146v383h-65v106h65v22c0 114 85 204 244 204c50 0 106 -11 135 -28l-26 -110c-23 11 -60 22 -105 22c-78 0 -103 -41 -103 -93v-17h281v-489h-146v383h-134v-383z" />
    <glyph glyph-name="fl" unicode="&#xfb02;" horiz-adv-x="558" 
d="M222 0h-146v383h-65v106h65v20c0 50 24 114 70 152c43 35 99 54 177 54c70 0 134 -14 179 -37v-678h-146v596c-11 6 -28 9 -53 9c-58 0 -82 -43 -82 -95v-21h83v-106h-82v-383z" />
    <glyph glyph-name="endash" unicode="&#x2013;" horiz-adv-x="500" 
d="M30 302h440v-92h-440v92z" />
    <glyph glyph-name="dagger" unicode="&#x2020;" horiz-adv-x="494" 
d="M183 674h129l-11 -197l160 10v-114l-160 10l11 -433h-129l11 433l-160 -10v114l160 -10z" />
    <glyph glyph-name="daggerdbl" unicode="&#x2021;" horiz-adv-x="494" 
d="M183 674h128l-9 -184l158 10v-114l-158 10v-163l158 11v-114l-158 10l9 -190h-128l8 190l-157 -10v114l158 -11v163l-158 -10v114l158 -10z" />
    <glyph glyph-name="periodcentered" unicode="&#xb7;" horiz-adv-x="252" 
d="M125 172c-48 0 -84 37 -84 90s37 91 86 91s85 -36 85 -91c0 -53 -34 -90 -87 -90z" />
    <glyph glyph-name="paragraph" unicode="&#xb6;" horiz-adv-x="509" 
d="M284 -48h-89v312h-7c-48 0 -156 54 -160 185c-3 109 58 228 280 228c58 0 101 -3 132 -10v-715h-89v637h-67v-637z" />
    <glyph glyph-name="bullet" unicode="&#x2022;" horiz-adv-x="323" 
d="M160 139c-67 0 -122 52 -122 123c-1 72 55 125 123 125s123 -52 123 -124c0 -71 -54 -124 -124 -124z" />
    <glyph glyph-name="quotesinglbase" unicode="&#x201a;" horiz-adv-x="239" 
d="M97 -97l-85 -9c30 85 56 179 69 264l134 9c-30 -95 -73 -190 -118 -264z" />
    <glyph glyph-name="quotedblbase" unicode="&#x201e;" horiz-adv-x="422" 
d="M96 -97l-85 -9c30 85 56 179 69 264l134 9c-30 -95 -73 -190 -118 -264zM279 -97l-85 -9c30 85 56 179 69 264l134 9c-30 -95 -73 -190 -118 -264z" />
    <glyph glyph-name="quotedblright" unicode="&#x201d;" horiz-adv-x="419" 
d="M86 680l134 10c-30 -96 -73 -191 -118 -265l-85 -9c30 85 56 179 69 264zM269 680l134 10c-30 -96 -73 -191 -118 -265l-85 -9c30 85 56 179 69 264z" />
    <glyph glyph-name="guillemotright" unicode="&#xbb;" horiz-adv-x="440" 
d="M134 252l-116 189h101l114 -189l-113 -189h-102zM316 252l-116 189h101l114 -189l-113 -189h-102z" />
    <glyph glyph-name="ellipsis" unicode="&#x2026;" horiz-adv-x="1000" 
d="M165 -10c-48 0 -84 37 -84 91c0 53 37 91 86 91s85 -36 85 -91c0 -54 -34 -91 -87 -91zM499 -10c-48 0 -84 37 -84 91c0 53 37 91 86 91s85 -36 85 -91c0 -54 -34 -91 -87 -91zM833 -10c-48 0 -84 37 -84 91c0 53 37 91 86 91s85 -36 85 -91c0 -54 -34 -91 -87 -91z" />
    <glyph glyph-name="perthousand" unicode="&#x2030;" horiz-adv-x="1187" 
d="M192 660c106 0 160 -90 160 -194c0 -137 -79 -206 -165 -206c-96 0 -163 82 -163 197c0 113 64 203 168 203zM188 581c-40 0 -58 -51 -58 -121c-1 -73 19 -121 59 -121c39 0 57 45 57 121c0 69 -15 121 -58 121zM261 -11h-78l367 671h78zM628 392c107 0 161 -90 161 -194
c0 -137 -79 -206 -165 -206c-97 0 -164 82 -164 197c0 113 64 203 168 203zM624 313c-40 0 -58 -51 -58 -121c-1 -73 19 -121 60 -121c39 0 57 45 57 121c0 69 -15 121 -59 121zM1001 392c106 0 160 -90 160 -194c0 -137 -79 -206 -165 -206c-96 0 -163 82 -163 197
c0 113 64 203 168 203zM997 313c-40 0 -58 -51 -58 -121c-1 -73 19 -121 59 -121c39 0 57 45 57 121c0 69 -15 121 -58 121z" />
    <glyph glyph-name="questiondown" unicode="&#xbf;" horiz-adv-x="412" 
d="M232 493c49 0 83 -36 83 -88c0 -51 -33 -88 -84 -88c-50 0 -85 37 -85 88c0 52 36 88 86 88zM166 267h126l2 -23c4 -54 -15 -106 -58 -161c-31 -40 -53 -72 -53 -107s23 -59 71 -60c30 0 64 9 89 26l29 -106c-31 -19 -87 -38 -151 -38c-132 0 -186 77 -186 155
c0 74 45 126 82 171c34 41 49 79 49 124v19z" />
    <glyph glyph-name="grave" unicode="`" 
d="M12 698h132l81 -148h-97z" />
    <glyph glyph-name="acute" unicode="&#xb4;" 
d="M165 698h132l-116 -148h-97z" />
    <glyph glyph-name="circumflex" unicode="&#x2c6;" 
d="M101 698h99l95 -148h-96l-47 85h-2l-47 -85h-97z" />
    <glyph glyph-name="tilde" unicode="&#x2dc;" 
d="M82 557h-68c-2 79 28 128 78 128c25 0 45 -10 63 -20c16 -9 29 -18 41 -18c16 0 23 8 25 42h66c2 -88 -29 -124 -78 -124c-25 0 -45 10 -64 20c-18 9 -26 16 -39 16c-14 0 -23 -15 -24 -44z" />
    <glyph glyph-name="macron" unicode="&#xaf;" 
d="M31 663h239v-81h-239v81z" />
    <glyph glyph-name="breve" unicode="&#x2d8;" 
d="M17 689h75c5 -36 23 -59 57 -59c40 0 58 28 59 59h74c0 -81 -48 -138 -133 -138c-87 0 -132 60 -132 138z" />
    <glyph glyph-name="dotaccent" unicode="&#x2d9;" 
d="M129 558c-37 0 -67 30 -67 69s30 68 68 68s66 -29 66 -68s-28 -69 -67 -69z" />
    <glyph glyph-name="dieresis" unicode="&#xa8;" 
d="M50 558c-38 0 -68 31 -68 69c0 39 30 68 69 68c36 0 65 -28 65 -68c0 -38 -28 -69 -66 -69zM251 558h-2c-37 0 -66 31 -66 69c0 39 30 68 68 68c37 0 66 -28 66 -68c0 -38 -28 -69 -66 -69z" />
    <glyph glyph-name="ring" unicode="&#x2da;" 
d="M134 539c-70 0 -112 41 -112 94c0 54 39 98 113 98c71 0 109 -41 109 -97c0 -54 -42 -95 -110 -95zM133 587c31 0 45 24 45 48s-14 48 -46 48c-29 0 -42 -25 -42 -50c0 -20 14 -46 43 -46z" />
    <glyph glyph-name="cedilla" unicode="&#xb8;" 
d="M125 4h78l-27 -48c37 -5 71 -32 71 -73c0 -65 -57 -87 -118 -87c-31 0 -60 8 -79 19l20 57c17 -10 38 -16 54 -16c17 0 34 6 34 25c0 20 -23 33 -75 37z" />
    <glyph glyph-name="hungarumlaut" unicode="&#x2dd;" 
d="M79 697h113l-99 -146h-80zM242 697h112l-98 -146h-80z" />
    <glyph glyph-name="ogonek" unicode="&#x2db;" 
d="M85 3h81c-10 -19 -25 -49 -25 -76c0 -28 20 -50 49 -50c18 0 33 4 43 8l20 -70c-28 -20 -67 -29 -98 -29c-68 0 -108 36 -108 103c0 47 26 95 38 114z" />
    <glyph glyph-name="caron" unicode="&#x2c7;" 
d="M200 550h-100l-95 148h96l48 -85h2l47 85h97z" />
    <glyph glyph-name="emdash" unicode="&#x2014;" horiz-adv-x="1000" 
d="M30 302h940v-92h-940v92z" />
    <glyph glyph-name="AE" unicode="&#xc6;" horiz-adv-x="786" 
d="M148 0h-148l261 674h470v-121h-246l15 -151h227v-119h-210l17 -162h228v-121h-354l-20 184h-175zM252 300h120l-16 164c-3 33 -7 71 -10 108h-4c-11 -40 -25 -86 -35 -117z" />
    <glyph glyph-name="ordfeminine" unicode="&#xaa;" horiz-adv-x="355" 
d="M319 265h-87l-6 33h-2c-22 -23 -53 -38 -92 -38c-61 0 -100 41 -100 98c0 79 77 116 184 117v7c0 12 -9 38 -59 38c-34 0 -63 -10 -83 -23l-19 63c26 15 69 30 121 30c105 0 138 -67 138 -138v-109c0 -29 1 -57 5 -78zM219 376v40c-48 0 -92 -13 -92 -50
c0 -23 18 -38 41 -38c19 0 38 11 46 27c3 7 5 14 5 21z" />
    <glyph glyph-name="Lslash" unicode="&#x141;" horiz-adv-x="477" 
d="M454 0h-385v235l-71 -50v107l71 50v332h146v-234l116 81v-108l-116 -81v-209h239v-123z" />
    <glyph glyph-name="Oslash" unicode="&#xd8;" horiz-adv-x="646" 
d="M140 -61l-77 56l52 87c-55 64 -83 155 -83 255c0 193 112 347 293 347c49 0 94 -11 133 -32l48 77l81 -49l-52 -88c54 -64 79 -157 79 -248c0 -231 -122 -354 -290 -354c-49 0 -94 11 -132 33zM198 220l195 321c-18 17 -42 26 -69 26c-92 0 -147 -91 -147 -229
c0 -42 6 -79 20 -118h1zM450 451l-194 -318c17 -17 41 -26 68 -26c90 0 145 90 145 233c0 36 -5 73 -17 110z" />
    <glyph glyph-name="OE" unicode="&#x152;" horiz-adv-x="850" 
d="M814 122v-122h-345c-17 0 -35 -3 -55 -5c-20 -3 -43 -5 -70 -5c-222 0 -312 164 -312 344c0 206 119 350 315 350c31 0 56 -2 77 -5s39 -5 55 -5h321v-121h-232v-145h220v-119h-220v-167h246zM422 120v432c-16 8 -39 13 -68 13c-91 0 -169 -75 -168 -227
c-1 -143 65 -229 177 -229c21 0 44 4 59 11z" />
    <glyph glyph-name="ordmasculine" unicode="&#xba;" horiz-adv-x="363" 
d="M183 590c95 0 153 -68 153 -162c0 -120 -79 -168 -156 -168c-88 0 -154 63 -154 163c0 103 67 167 157 167zM179 517c-40 0 -53 -55 -53 -93c0 -50 19 -91 55 -91c37 0 54 41 54 92c0 43 -16 92 -56 92z" />
    <glyph glyph-name="ae" unicode="&#xe6;" horiz-adv-x="752" 
d="M719 206h-286c1 -71 53 -108 125 -108c53 0 89 10 122 24l20 -98c-50 -26 -109 -34 -165 -34c-76 0 -145 30 -177 86h-3c-36 -53 -92 -86 -170 -86c-98 0 -159 68 -159 153c0 120 115 177 269 177v15c0 21 -19 62 -88 62c-45 0 -91 -17 -119 -35l-28 95
c36 20 97 43 163 43c73 0 124 -28 150 -79h3c35 51 90 79 156 79c131 0 191 -113 191 -240c0 -20 -2 -41 -4 -54zM299 172v58c-71 1 -133 -18 -133 -78c0 -39 28 -58 58 -58c34 0 59 21 70 49c4 8 5 18 5 29zM432 303h157c1 39 -14 100 -74 100c-58 0 -82 -62 -83 -100z" />
    <glyph glyph-name="dotlessi" unicode="&#x131;" horiz-adv-x="259" 
d="M202 0h-146v489h146v-489z" />
    <glyph glyph-name="lslash" unicode="&#x142;" horiz-adv-x="269" 
d="M207 0h-146v243l-62 -50v109l62 50v353h146v-251l66 54v-109l-66 -54v-345z" />
    <glyph glyph-name="oslash" unicode="&#xf8;" horiz-adv-x="533" 
d="M268 500c39 0 76 -9 109 -26l42 66l55 -36l-45 -69c46 -44 72 -109 72 -188c0 -184 -123 -257 -233 -257c-40 0 -77 8 -109 25l-43 -66l-52 39l42 65c-47 43 -74 108 -74 191c0 161 101 256 236 256zM187 171l129 203c-13 13 -28 20 -50 20c-72 0 -95 -85 -95 -149
c0 -24 3 -51 13 -73zM347 314l-127 -198c12 -14 28 -20 47 -20c62 0 95 63 95 144c0 22 -3 49 -12 73z" />
    <glyph glyph-name="oe" unicode="&#x153;" horiz-adv-x="808" 
d="M775 200h-286c4 -67 59 -101 124 -101c53 0 89 10 123 23l20 -98c-49 -28 -117 -34 -163 -34c-68 0 -130 22 -171 85h-2c-37 -59 -103 -85 -168 -85c-123 0 -220 94 -220 253c0 161 101 257 231 257c64 0 126 -28 157 -86h2c38 57 95 86 161 86c137 0 196 -113 196 -241
c0 -25 -3 -49 -4 -59zM267 394c-67 0 -86 -83 -86 -150c0 -82 28 -148 86 -148c59 0 85 64 85 150c0 74 -23 148 -85 148zM488 297h156c1 44 -12 103 -74 103c-57 0 -81 -60 -82 -103z" />
    <glyph glyph-name="germandbls" unicode="&#xdf;" horiz-adv-x="568" 
d="M202 0h-146v431c0 113 27 178 74 222c42 40 100 62 171 62c121 0 205 -74 205 -181c0 -29 -10 -62 -24 -81c-37 -18 -55 -43 -55 -68s11 -43 36 -69c37 -41 74 -85 74 -156c0 -102 -74 -170 -193 -170c-35 0 -74 5 -101 15l18 108c19 -9 42 -13 68 -13c41 0 64 24 64 52
c0 26 -12 45 -38 74c-34 36 -72 77 -72 138c0 50 28 96 76 122c5 12 7 25 7 39c0 44 -29 77 -73 77c-53 0 -91 -40 -91 -158v-444z" />
    <glyph glyph-name="onesuperior" unicode="&#xb9;" horiz-adv-x="282" 
d="M222 435h-110v299h-2l-76 -35l-16 79l108 47h96v-390z" />
    <glyph glyph-name="logicalnot" unicode="&#xac;" horiz-adv-x="596" 
d="M40 422h516v-316h-93v226h-423v90z" />
    <glyph glyph-name="mu" unicode="&#xb5;" horiz-adv-x="546" 
d="M364 62h-3c-15 -33 -52 -67 -107 -67c-24 0 -49 9 -64 27v-41c0 -58 3 -141 10 -177h-130c-9 25 -14 100 -14 181v504h146v-284c0 -62 22 -98 65 -98c35 0 60 26 69 48c4 9 6 23 6 36v298h146v-335c0 -42 11 -54 39 -55l-9 -101c-12 -5 -29 -8 -51 -8
c-54 0 -87 25 -103 72z" />
    <glyph glyph-name="trademark" unicode="&#x2122;" horiz-adv-x="616" 
d="M26 674h224v-66h-71v-207h-82v207h-71v66zM605 401h-77l-5 120c0 30 1 64 0 106h-5c-7 -40 -15 -78 -21 -106l-26 -115h-76l-22 116c-4 26 -10 69 -16 105h-5c-1 -37 -1 -75 -3 -106l-5 -120h-75l16 273h123l17 -66c4 -23 8 -43 14 -88h1c6 33 12 60 18 87l18 67h115z
" />
    <glyph glyph-name="Eth" unicode="&#xd0;" horiz-adv-x="641" 
d="M2 289v111h68v266c49 9 115 14 184 14c115 0 191 -21 249 -67c66 -53 106 -140 106 -262c0 -132 -43 -224 -106 -278c-64 -55 -159 -81 -279 -81c-68 0 -120 5 -154 8v289h-68zM332 400v-111h-116v-179c11 -2 29 -2 44 -2c117 0 195 70 195 241c0 144 -67 217 -183 217
c-27 0 -44 -2 -56 -5v-161h116z" />
    <glyph glyph-name="onehalf" unicode="&#xbd;" horiz-adv-x="782" 
d="M223 265h-110v299h-2l-76 -35l-16 78l108 48h96v-390zM211 -10h-79l362 670h78zM455 0v56l57 55c68 66 109 103 109 147c0 32 -21 50 -56 50c-30 0 -59 -12 -79 -26l-28 73c30 22 78 40 135 40c98 0 144 -55 144 -118c0 -72 -55 -121 -111 -170l-22 -20v-2h139v-85h-288z
" />
    <glyph glyph-name="plusminus" unicode="&#xb1;" horiz-adv-x="596" 
d="M251 576h94v-173h211v-90h-211v-176h-94v176h-211v90h211v173zM40 90h516v-90h-516v90z" />
    <glyph glyph-name="Thorn" unicode="&#xde;" horiz-adv-x="542" 
d="M64 0v674h144v-119c17 1 36 3 70 3c71 0 128 -14 173 -52c42 -35 63 -89 63 -147c0 -166 -120 -228 -247 -228c-27 0 -47 2 -59 4v-135h-144zM208 440v-189c13 -4 31 -5 52 -5c74 0 110 43 110 101c0 61 -36 98 -106 98c-27 0 -45 -2 -56 -5z" />
    <glyph glyph-name="onequarter" unicode="&#xbc;" horiz-adv-x="782" 
d="M234 265h-110v299h-2l-76 -35l-16 78l108 48h96v-390zM234 -10h-78l363 670h78zM697 0h-101v90h-181v62l161 241h121v-230h50v-73h-50v-90zM596 163v72c0 26 2 50 4 72h-3c-11 -23 -20 -43 -32 -61l-53 -82l2 -1h82z" />
    <glyph glyph-name="divide" unicode="&#xf7;" horiz-adv-x="596" 
d="M297 371c-40 0 -67 29 -67 70c0 42 28 70 69 70s68 -28 68 -70c0 -41 -26 -70 -70 -70zM556 222h-516v90h516v-90zM297 23c-40 0 -67 29 -67 70c0 42 28 70 69 70s68 -28 68 -70c0 -41 -26 -70 -70 -70z" />
    <glyph glyph-name="brokenbar" unicode="&#xa6;" horiz-adv-x="263" 
d="M80 174h104v-350h-104v350zM80 674h104v-350h-104v350z" />
    <glyph glyph-name="degree" unicode="&#xb0;" horiz-adv-x="335" 
d="M170 684c85 0 142 -64 142 -137c0 -85 -70 -141 -144 -141c-83 0 -142 60 -142 137c0 79 65 141 144 141zM168 620c-39 0 -68 -36 -68 -77s30 -73 69 -73c40 0 69 32 69 74c0 39 -23 76 -70 76z" />
    <glyph glyph-name="thorn" unicode="&#xfe;" horiz-adv-x="552" 
d="M56 675h145v-245h2c26 42 70 70 132 70c103 1 185 -98 185 -252c0 -179 -106 -258 -199 -258c-57 0 -96 25 -118 56h-2v-242h-145v871zM201 292v-98c0 -16 5 -35 13 -46c13 -28 39 -44 67 -44c58 0 92 58 92 142c0 80 -33 137 -88 137c-33 0 -61 -20 -74 -51
c-5 -10 -10 -26 -10 -40z" />
    <glyph glyph-name="threequarters" unicode="&#xbe;" horiz-adv-x="782" 
d="M62 560l-19 71c27 16 74 29 126 29c92 0 136 -45 136 -97c0 -44 -32 -75 -78 -90v-2c51 -7 91 -42 91 -92c0 -70 -66 -119 -172 -119c-49 0 -94 11 -119 26l20 74c19 -10 55 -23 88 -23c39 0 68 20 68 48c0 34 -40 52 -83 52h-25v66h23c33 0 76 11 76 43
c0 22 -16 37 -50 37c-32 0 -63 -12 -82 -23zM262 -10h-78l362 670h78zM706 0h-101v90h-182v62l162 241h121v-230h50v-73h-50v-90zM605 163v72c0 26 2 50 4 72h-3c-11 -23 -20 -43 -32 -61l-54 -82l2 -1h83z" />
    <glyph glyph-name="twosuperior" unicode="&#xb2;" horiz-adv-x="328" 
d="M13 435v56l57 56c68 66 109 102 109 146c0 32 -21 50 -56 50c-31 0 -59 -12 -79 -26l-28 73c30 22 78 40 135 40c98 0 144 -55 144 -118c0 -72 -55 -121 -111 -170l-22 -20v-2h139v-85h-288z" />
    <glyph glyph-name="registered" unicode="&#xae;" horiz-adv-x="433" 
d="M196 493v-56h-47v155c11 2 36 6 67 6c34 0 49 -5 61 -13c9 -6 16 -18 16 -34c0 -15 -14 -29 -35 -35v-2c17 -5 26 -18 31 -40s8 -32 11 -37h-52c-5 6 -7 19 -11 33c-2 16 -11 23 -26 23h-15zM198 563v-37h14c17 0 28 7 28 19s-10 19 -26 19c-7 0 -12 -1 -16 -1zM219 686
c94 0 170 -76 170 -169c0 -94 -76 -170 -171 -170c-97 0 -174 76 -174 170c0 93 77 169 175 169zM216 644c-68 0 -121 -57 -121 -128c0 -70 53 -127 122 -127c69 -1 121 57 121 128c0 70 -52 127 -122 127z" />
    <glyph glyph-name="minus" unicode="&#x2212;" horiz-adv-x="596" 
d="M40 312h516v-90h-516v90z" />
    <glyph glyph-name="eth" unicode="&#xf0;" horiz-adv-x="531" 
d="M267 96c57 0 83 64 83 146c0 50 -5 85 -19 109c-14 21 -33 36 -63 36c-67 0 -87 -87 -87 -146c0 -79 28 -145 86 -145zM101 486l-27 55l97 45c-25 18 -54 34 -84 49l69 80c45 -18 92 -45 135 -76l124 57l30 -56l-98 -44c46 -39 83 -88 111 -142c29 -57 41 -123 41 -196
c0 -195 -122 -268 -235 -268c-135 0 -232 95 -232 249c0 147 97 231 208 237c23 1 44 -2 66 -16l2 4c-21 30 -47 59 -78 80z" />
    <glyph glyph-name="multiply" unicode="&#xd7;" horiz-adv-x="596" 
d="M40 462l62 64l196 -199l196 199l62 -64l-195 -199l195 -198l-64 -65l-194 199l-194 -199l-64 65l194 198z" />
    <glyph glyph-name="threesuperior" unicode="&#xb3;" horiz-adv-x="321" 
d="M43 731l-19 70c27 16 74 29 126 29c92 0 136 -45 136 -97c0 -44 -32 -74 -77 -90v-2c51 -7 91 -43 91 -92c0 -70 -67 -119 -172 -119c-49 0 -94 11 -120 25l20 75c19 -10 56 -23 89 -23c39 0 67 20 67 48c0 34 -39 52 -82 53h-25v66h22c33 0 76 11 76 42
c0 22 -17 37 -50 37c-32 0 -63 -12 -82 -22z" />
    <glyph glyph-name="copyright" unicode="&#xa9;" horiz-adv-x="677" 
d="M341 648c170 0 304 -138 304 -308c0 -172 -134 -310 -305 -310s-308 138 -308 310c0 170 137 308 309 308zM338 592c-133 0 -241 -113 -241 -253s108 -253 242 -253c134 -1 241 113 241 253s-107 253 -242 253zM474 493l-15 -54c-12 7 -50 22 -94 22
c-77 0 -125 -47 -125 -124c0 -73 49 -125 123 -125c40 0 76 10 99 23l14 -51c-35 -22 -77 -31 -122 -31c-117 0 -184 79 -184 181c0 115 89 186 196 186c47 0 95 -15 108 -27z" />
    <glyph glyph-name="Aacute" unicode="&#xc1;" horiz-adv-x="597" 
d="M377 167h-172l-42 -167h-148l188 674h186l186 -674h-153zM225 277h133l-36 143c-10 40 -21 96 -30 137h-3c-9 -41 -19 -98 -28 -137zM313 830h152l-123 -120h-113z" />
    <glyph glyph-name="Acircumflex" unicode="&#xc2;" horiz-adv-x="597" 
d="M377 167h-172l-42 -167h-148l188 674h186l186 -674h-153zM225 277h133l-36 143c-10 40 -21 96 -30 137h-3c-9 -41 -19 -98 -28 -137zM243 829h111l96 -119h-104l-46 59h-2l-47 -59h-102z" />
    <glyph glyph-name="Adieresis" unicode="&#xc4;" horiz-adv-x="597" 
d="M377 167h-172l-42 -167h-148l188 674h186l186 -674h-153zM225 277h133l-36 143c-10 40 -21 96 -30 137h-3c-9 -41 -19 -98 -28 -137zM202 712c-36 0 -65 30 -65 67c0 38 30 67 66 67s64 -29 64 -67c0 -37 -28 -67 -65 -67zM403 712c-37 0 -65 30 -65 67c0 38 29 67 66 67
c36 0 64 -29 64 -67c0 -37 -28 -67 -65 -67z" />
    <glyph glyph-name="Agrave" unicode="&#xc0;" horiz-adv-x="597" 
d="M377 167h-172l-42 -167h-148l188 674h186l186 -674h-153zM225 277h133l-36 143c-10 40 -21 96 -30 137h-3c-9 -41 -19 -98 -28 -137zM131 830h152l84 -119h-113z" />
    <glyph glyph-name="Aring" unicode="&#xc5;" horiz-adv-x="597" 
d="M377 167h-172l-42 -167h-148l188 674h186l186 -674h-153zM225 277h133l-36 143c-10 40 -21 96 -30 137h-3c-9 -41 -19 -98 -28 -137zM297 894c75 0 111 -44 111 -97s-40 -96 -112 -96c-73 0 -112 44 -112 95c0 52 39 98 113 98zM294 844c-28 0 -41 -24 -41 -48
c0 -22 15 -45 42 -45c29 0 43 21 43 46c0 24 -15 47 -44 47z" />
    <glyph glyph-name="Atilde" unicode="&#xc3;" horiz-adv-x="597" 
d="M378 167h-173l-42 -167h-148l188 674h187l185 -674h-153zM225 277h133l-36 143c-10 40 -21 96 -30 137h-3c-9 -41 -19 -98 -28 -137zM236 715h-67c-2 82 28 124 74 124c26 0 44 -9 61 -18c16 -10 30 -19 42 -19c16 0 22 9 26 41h65c2 -87 -26 -121 -76 -121
c-25 0 -45 8 -61 17c-17 9 -28 17 -41 17c-12 0 -21 -13 -23 -41z" />
    <glyph glyph-name="Ccedilla" unicode="&#xc7;" horiz-adv-x="538" 
d="M487 132l20 -116c-24 -12 -75 -24 -138 -25l-19 -35c37 -8 71 -35 71 -79c0 -68 -60 -91 -117 -91c-29 0 -60 6 -82 19l19 60c16 -8 38 -14 55 -14c19 0 35 7 35 25c0 20 -24 32 -76 37l39 82c-175 27 -262 157 -262 332c0 237 158 356 339 356c69 0 121 -14 144 -26
l-29 -118c-26 12 -61 22 -108 22c-106 0 -192 -71 -192 -226c0 -143 74 -221 193 -221c39 0 82 8 108 18z" />
    <glyph glyph-name="Eacute" unicode="&#xc9;" horiz-adv-x="492" 
d="M430 408v-119h-220v-168h246v-121h-392v674h378v-121h-232v-145h220zM272 830h152l-123 -120h-113z" />
    <glyph glyph-name="Ecircumflex" unicode="&#xca;" horiz-adv-x="492" 
d="M430 408v-119h-220v-168h246v-121h-392v674h378v-121h-232v-145h220zM202 829h111l96 -119h-104l-46 59h-2l-47 -59h-102z" />
    <glyph glyph-name="Edieresis" unicode="&#xcb;" horiz-adv-x="492" 
d="M429 408v-119h-219v-168h246v-121h-392v674h378v-121h-232v-145h219zM153 713h-2c-36 0 -65 30 -65 67c0 38 30 67 66 67s64 -29 64 -67c0 -37 -28 -67 -63 -67zM352 713c-36 0 -64 30 -64 67c0 38 28 67 65 67c36 0 64 -29 64 -67c0 -37 -27 -67 -65 -67z" />
    <glyph glyph-name="Egrave" unicode="&#xc8;" horiz-adv-x="492" 
d="M430 408v-119h-220v-168h246v-121h-392v674h378v-121h-232v-145h220zM96 830h152l84 -119h-113z" />
    <glyph glyph-name="Iacute" unicode="&#xcd;" horiz-adv-x="274" 
d="M64 674h146v-674h-146v674zM150 830h152l-123 -120h-113z" />
    <glyph glyph-name="Icircumflex" unicode="&#xce;" horiz-adv-x="274" 
d="M64 674h146v-674h-146v674zM81 829h111l96 -119h-104l-46 59h-2l-47 -59h-102z" />
    <glyph glyph-name="Idieresis" unicode="&#xcf;" horiz-adv-x="274" 
d="M64 674h146v-674h-146v674zM36 713c-36 0 -65 30 -65 67c0 38 30 67 66 67s64 -29 64 -67c0 -37 -28 -67 -65 -67zM237 713c-37 0 -65 30 -65 67c0 38 29 67 66 67c36 0 64 -29 64 -67c0 -37 -28 -67 -65 -67z" />
    <glyph glyph-name="Igrave" unicode="&#xcc;" horiz-adv-x="274" 
d="M64 674h146v-674h-146v674zM-28 830h152l84 -119h-113z" />
    <glyph glyph-name="Ntilde" unicode="&#xd1;" horiz-adv-x="638" 
d="M196 0h-132v674h160l129 -252c35 -65 72 -150 99 -221h3c-8 84 -13 182 -13 291v182h132v-674h-147l-132 259c-36 68 -76 154 -103 227h-3c4 -83 7 -181 7 -299v-187zM255 715h-67c-2 82 28 124 74 124c25 0 43 -9 60 -18c16 -10 30 -19 42 -19c16 0 22 9 26 41h65
c2 -87 -26 -121 -76 -121c-25 0 -45 8 -61 17s-27 17 -40 17c-12 0 -21 -13 -23 -41z" />
    <glyph glyph-name="Oacute" unicode="&#xd3;" horiz-adv-x="646" 
d="M328 684c194 0 287 -162 287 -339c0 -231 -121 -355 -297 -355c-185 0 -286 154 -286 344c0 197 113 350 296 350zM324 565c-87 0 -138 -94 -138 -229c0 -138 52 -227 139 -227c89 0 136 98 136 231c0 120 -45 225 -137 225zM342 831h152l-123 -120h-113z" />
    <glyph glyph-name="Ocircumflex" unicode="&#xd4;" horiz-adv-x="646" 
d="M328 684c194 0 287 -162 287 -339c0 -231 -121 -355 -297 -355c-185 0 -286 154 -286 344c0 197 113 350 296 350zM324 565c-87 0 -138 -94 -138 -229c0 -138 52 -227 139 -227c89 0 136 98 136 231c0 120 -45 225 -137 225zM267 829h111l96 -119h-104l-46 59h-2l-47 -59
h-102z" />
    <glyph glyph-name="Odieresis" unicode="&#xd6;" horiz-adv-x="646" 
d="M328 684c194 0 287 -162 287 -339c0 -231 -121 -355 -297 -355c-185 0 -286 154 -286 344c0 197 113 350 296 350zM324 565c-87 0 -138 -94 -138 -229c0 -138 52 -227 139 -227c89 0 136 98 136 231c0 120 -45 225 -137 225zM222 713c-36 0 -65 30 -65 67
c0 38 30 67 66 67s64 -29 64 -67c0 -37 -28 -67 -65 -67zM423 713c-37 0 -65 30 -65 67c0 38 29 67 66 67c36 0 64 -29 64 -67c0 -37 -28 -67 -65 -67z" />
    <glyph glyph-name="Ograve" unicode="&#xd2;" horiz-adv-x="646" 
d="M328 684c194 0 287 -162 287 -339c0 -231 -121 -355 -297 -355c-185 0 -286 154 -286 344c0 197 113 350 296 350zM324 565c-87 0 -138 -94 -138 -229c0 -138 52 -227 139 -227c89 0 136 98 136 231c0 120 -45 225 -137 225zM158 831h152l84 -119h-113z" />
    <glyph glyph-name="Otilde" unicode="&#xd5;" horiz-adv-x="646" 
d="M328 684c194 0 287 -162 287 -339c0 -231 -121 -355 -297 -355c-185 0 -286 154 -286 344c0 197 113 350 296 350zM324 565c-87 0 -138 -94 -138 -229c0 -138 52 -227 139 -227c89 0 136 98 136 231c0 120 -45 225 -137 225zM257 714h-67c-2 82 28 124 74 124
c25 0 43 -9 60 -19c16 -10 30 -19 42 -19c16 0 22 9 26 41h65c2 -87 -26 -121 -76 -121c-25 0 -44 8 -61 18c-16 9 -27 17 -40 17c-12 0 -21 -14 -23 -41z" />
    <glyph glyph-name="Scaron" unicode="&#x160;" horiz-adv-x="496" 
d="M36 28l27 122c37 -19 95 -37 152 -37c67 0 102 30 102 74s-32 68 -105 99c-106 45 -168 109 -168 196c0 113 89 201 242 201c67 0 118 -14 152 -31l-30 -119c-24 12 -67 29 -124 29c-63 0 -93 -32 -93 -66c0 -43 32 -62 115 -98c110 -48 158 -111 158 -199
c0 -116 -87 -208 -256 -208c-70 0 -139 19 -172 37zM314 710h-111l-96 119h104l46 -59h2l47 59h102z" />
    <glyph glyph-name="Uacute" unicode="&#xda;" horiz-adv-x="627" 
d="M62 674h146v-403c0 -111 40 -162 105 -162c67 0 106 48 106 162v403h146v-390c0 -197 -93 -294 -256 -294c-161 0 -247 95 -247 295v389zM323 830h152l-123 -120h-113z" />
    <glyph glyph-name="Ucircumflex" unicode="&#xdb;" horiz-adv-x="627" 
d="M62 674h146v-403c0 -111 40 -162 105 -162c67 0 106 48 106 162v403h146v-390c0 -197 -93 -294 -256 -294c-161 0 -247 95 -247 295v389zM266 829h111l96 -119h-104l-46 59h-2l-47 -59h-102z" />
    <glyph glyph-name="Udieresis" unicode="&#xdc;" horiz-adv-x="627" 
d="M62 674h146v-403c0 -111 40 -162 105 -162c67 0 106 48 106 162v403h146v-390c0 -197 -93 -294 -256 -294c-161 0 -247 95 -247 295v389zM217 713c-36 0 -65 30 -65 67c0 38 30 67 66 67s64 -29 64 -67c0 -37 -28 -67 -65 -67zM418 713c-37 0 -65 30 -65 67
c0 38 29 67 66 67c36 0 64 -29 64 -67c0 -37 -28 -67 -65 -67z" />
    <glyph glyph-name="Ugrave" unicode="&#xd9;" horiz-adv-x="627" 
d="M62 674h146v-403c0 -111 40 -162 105 -162c67 0 106 48 106 162v403h146v-390c0 -197 -93 -294 -256 -294c-161 0 -247 95 -247 295v389zM152 830h152l84 -119h-113z" />
    <glyph glyph-name="Yacute" unicode="&#xdd;" horiz-adv-x="542" 
d="M341 0h-146v271l-193 403h164l61 -162c19 -47 33 -87 47 -133h2c13 44 28 86 45 134l60 161h161l-201 -398v-276zM292 829h152l-123 -120h-113z" />
    <glyph glyph-name="Ydieresis" unicode="&#x178;" horiz-adv-x="542" 
d="M341 0h-146v271l-193 403h164l61 -162c19 -47 33 -87 47 -133h2c13 44 28 86 45 134l60 161h161l-201 -398v-276zM178 711c-36 0 -65 30 -65 67c0 38 30 67 66 67s64 -29 64 -67c0 -37 -28 -67 -65 -67zM379 711c-37 0 -65 30 -65 67c0 38 29 67 66 67
c36 0 64 -29 64 -67c0 -37 -28 -67 -65 -67z" />
    <glyph glyph-name="Zcaron" unicode="&#x17d;" horiz-adv-x="520" 
d="M20 0v81l289 467v3h-263v123h445v-91l-281 -457v-3h284v-123h-474zM323 710h-111l-96 119h104l46 -59h2l47 59h102z" />
    <glyph glyph-name="aacute" unicode="&#xe1;" horiz-adv-x="496" 
d="M440 290v-174c0 -44 2 -87 8 -116h-131l-9 49h-2c-31 -39 -77 -59 -131 -59c-92 0 -149 69 -149 149c0 128 114 186 268 186v8c0 30 -16 64 -83 64c-47 0 -93 -15 -125 -34l-26 94c32 18 95 42 178 42c159 0 202 -98 202 -209zM298 170v63c-69 0 -130 -18 -130 -79
c0 -41 26 -60 56 -60c33 0 62 21 72 51c2 8 2 17 2 25zM265 698h133l-116 -148h-97z" />
    <glyph glyph-name="acircumflex" unicode="&#xe2;" horiz-adv-x="496" 
d="M440 290v-174c0 -44 2 -87 8 -116h-131l-9 49h-2c-31 -39 -77 -59 -131 -59c-92 0 -149 69 -149 149c0 128 114 186 268 186v8c0 30 -16 64 -83 64c-47 0 -93 -15 -125 -34l-26 94c32 18 95 42 178 42c159 0 202 -98 202 -209zM298 170v63c-69 0 -130 -18 -130 -79
c0 -41 26 -60 56 -60c33 0 62 21 72 51c2 8 2 17 2 25zM196 698h99l95 -148h-96l-48 85h-2l-46 -85h-97z" />
    <glyph glyph-name="adieresis" unicode="&#xe4;" horiz-adv-x="496" 
d="M440 290v-174c0 -44 2 -87 8 -116h-131l-9 49h-2c-31 -39 -77 -59 -131 -59c-92 0 -149 69 -149 149c0 128 114 186 268 186v8c0 30 -16 64 -83 64c-47 0 -93 -15 -125 -34l-26 94c32 18 95 42 178 42c159 0 202 -98 202 -209zM298 170v63c-69 0 -130 -18 -130 -79
c0 -41 26 -60 56 -60c33 0 62 21 72 51c2 8 2 17 2 25zM148 558c-38 0 -68 31 -68 69c0 39 30 68 69 68c36 0 65 -28 65 -68c0 -38 -28 -69 -66 -69zM349 558h-2c-37 0 -66 31 -66 69c0 39 30 68 68 68c37 0 66 -28 66 -68c0 -38 -28 -69 -66 -69z" />
    <glyph glyph-name="agrave" unicode="&#xe0;" horiz-adv-x="496" 
d="M440 290v-174c0 -44 2 -87 8 -116h-131l-9 49h-2c-31 -39 -77 -59 -131 -59c-92 0 -149 69 -149 149c0 128 114 186 268 186v8c0 30 -16 64 -83 64c-47 0 -93 -15 -125 -34l-26 94c32 18 95 42 178 42c159 0 202 -98 202 -209zM298 170v63c-69 0 -130 -18 -130 -79
c0 -41 26 -60 56 -60c33 0 62 21 72 51c2 8 2 17 2 25zM94 698h132l81 -148h-97z" />
    <glyph glyph-name="aring" unicode="&#xe5;" horiz-adv-x="496" 
d="M440 290v-174c0 -44 2 -87 8 -116h-131l-9 49h-2c-31 -39 -77 -59 -131 -59c-92 0 -149 69 -149 149c0 128 114 186 268 186v8c0 30 -16 64 -83 64c-47 0 -93 -15 -125 -34l-26 94c32 18 95 42 178 42c159 0 202 -98 202 -209zM298 170l1 63c-69 0 -131 -18 -131 -79
c0 -41 26 -60 57 -60c32 0 62 21 71 51c2 8 2 17 2 25zM250 539c-70 0 -112 41 -112 94c0 54 39 98 113 98c71 0 109 -41 109 -97c0 -54 -42 -95 -110 -95zM249 587c31 0 45 24 45 48s-14 48 -46 48c-29 0 -42 -25 -42 -50c0 -20 14 -46 43 -46z" />
    <glyph glyph-name="atilde" unicode="&#xe3;" horiz-adv-x="496" 
d="M440 290v-174c0 -44 2 -87 8 -116h-131l-9 49h-2c-31 -39 -77 -59 -131 -59c-92 0 -149 69 -149 149c0 128 114 186 268 186v8c0 30 -16 64 -83 64c-47 0 -93 -15 -125 -34l-26 94c32 18 95 42 178 42c159 0 202 -98 202 -209zM298 170v63c-69 0 -130 -18 -130 -79
c0 -41 26 -60 56 -60c33 0 62 21 72 51c2 8 2 17 2 25zM174 557h-68c-2 79 28 128 78 128c25 0 45 -10 63 -20c16 -9 29 -18 41 -18c16 0 23 8 25 42h66c2 -88 -29 -124 -78 -124c-26 0 -46 10 -65 20c-17 9 -25 16 -38 16c-14 0 -23 -15 -24 -44z" />
    <glyph glyph-name="ccedilla" unicode="&#xe7;" horiz-adv-x="412" 
d="M379 120l16 -109c-20 -10 -58 -19 -102 -20l-19 -35c37 -8 71 -34 71 -78c0 -69 -60 -92 -117 -92c-28 0 -60 6 -82 19l20 60c15 -8 37 -14 54 -14c19 0 35 6 35 26s-23 32 -75 37l38 83c-115 20 -186 109 -186 243c0 146 95 259 263 259c37 0 76 -7 103 -18l-22 -109
c-16 6 -40 13 -74 13c-76 0 -122 -58 -122 -140c0 -89 53 -139 123 -139c31 0 56 6 76 14z" />
    <glyph glyph-name="eacute" unicode="&#xe9;" horiz-adv-x="495" 
d="M461 196h-290c3 -67 61 -96 128 -96c47 0 86 7 122 19l20 -100c-46 -18 -104 -28 -165 -28c-156 0 -245 94 -245 246c0 137 80 263 232 263c143 0 203 -112 203 -241c0 -29 -3 -51 -5 -63zM170 297h161c0 44 -16 103 -76 103c-58 0 -82 -60 -85 -103zM284 698h133
l-116 -148h-97z" />
    <glyph glyph-name="ecircumflex" unicode="&#xea;" horiz-adv-x="495" 
d="M461 196h-290c3 -67 61 -96 128 -96c47 0 86 7 122 19l20 -100c-46 -18 -104 -28 -165 -28c-156 0 -245 94 -245 246c0 137 80 263 232 263c143 0 203 -112 203 -241c0 -29 -3 -51 -5 -63zM170 297h161c0 44 -16 103 -76 103c-58 0 -82 -60 -85 -103zM210 698h99l95 -148
h-96l-48 85h-2l-46 -85h-97z" />
    <glyph glyph-name="edieresis" unicode="&#xeb;" horiz-adv-x="495" 
d="M461 196h-290c3 -67 61 -96 128 -96c47 0 86 7 122 19l20 -100c-46 -18 -104 -28 -165 -28c-156 0 -245 94 -245 246c0 137 80 263 232 263c143 0 203 -112 203 -241c0 -29 -3 -51 -5 -63zM170 297h161c0 44 -16 103 -76 103c-58 0 -82 -60 -85 -103zM165 558
c-38 0 -68 31 -68 69c0 39 30 68 69 68c36 0 65 -28 65 -68c0 -38 -28 -69 -66 -69zM366 558h-2c-37 0 -66 31 -66 69c0 39 30 68 68 68c37 0 66 -28 66 -68c0 -38 -28 -69 -66 -69z" />
    <glyph glyph-name="egrave" unicode="&#xe8;" horiz-adv-x="495" 
d="M461 196h-290c3 -67 61 -96 128 -96c47 0 86 7 122 19l20 -100c-46 -18 -104 -28 -165 -28c-156 0 -245 94 -245 246c0 137 80 263 232 263c143 0 203 -112 203 -241c0 -29 -3 -51 -5 -63zM170 297h161c0 44 -16 103 -76 103c-58 0 -82 -60 -85 -103zM112 698h132
l81 -148h-97z" />
    <glyph glyph-name="iacute" unicode="&#xed;" horiz-adv-x="259" 
d="M202 0h-146v489h146v-489zM151 698h133l-116 -148h-97z" />
    <glyph glyph-name="icircumflex" unicode="&#xee;" horiz-adv-x="259" 
d="M202 0h-146v489h146v-489zM80 698h99l95 -148h-96l-47 85h-2l-47 -85h-97z" />
    <glyph glyph-name="idieresis" unicode="&#xef;" horiz-adv-x="259" 
d="M202 0h-146v489h146v-489zM29 558c-38 0 -68 31 -68 69c0 39 30 68 69 68c36 0 65 -28 65 -68c0 -38 -28 -69 -66 -69zM230 558h-2c-37 0 -66 31 -66 69c0 39 30 68 68 68c37 0 66 -28 66 -68c0 -38 -28 -69 -66 -69z" />
    <glyph glyph-name="igrave" unicode="&#xec;" horiz-adv-x="259" 
d="M202 0h-146v489h146v-489zM-28 698h132l81 -148h-97z" />
    <glyph glyph-name="ntilde" unicode="&#xf1;" horiz-adv-x="547" 
d="M56 0v335c0 59 -2 109 -4 154h126l7 -64h3c21 33 69 74 142 74c98 0 162 -69 162 -202v-297h-146v282c0 56 -19 98 -69 98c-36 0 -59 -25 -69 -53c-4 -10 -6 -25 -6 -40v-287h-146zM207 557h-68c-2 79 28 128 78 128c26 0 45 -10 63 -20c16 -9 29 -18 41 -18
c16 0 23 8 25 42h66c2 -88 -29 -124 -78 -124c-25 0 -45 10 -64 20c-18 9 -26 16 -39 16c-14 0 -23 -15 -24 -44z" />
    <glyph glyph-name="oacute" unicode="&#xf3;" horiz-adv-x="533" 
d="M272 500c138 0 229 -101 229 -251c0 -187 -123 -259 -236 -259c-135 0 -233 94 -233 252c0 163 101 258 240 258zM268 394c-65 0 -87 -78 -87 -149c0 -83 29 -149 88 -149c54 0 83 66 83 150c0 71 -23 148 -84 148zM288 698h132l-116 -148h-97z" />
    <glyph glyph-name="ocircumflex" unicode="&#xf4;" horiz-adv-x="533" 
d="M272 500c138 0 229 -101 229 -251c0 -187 -123 -259 -236 -259c-135 0 -233 94 -233 252c0 163 101 258 240 258zM268 394c-65 0 -87 -78 -87 -149c0 -83 29 -149 88 -149c54 0 83 66 83 150c0 71 -23 148 -84 148zM218 698h98l95 -148h-96l-47 85h-2l-47 -85h-97z" />
    <glyph glyph-name="odieresis" unicode="&#xf6;" horiz-adv-x="533" 
d="M272 500c138 0 229 -101 229 -251c0 -187 -123 -259 -236 -259c-135 0 -233 94 -233 252c0 163 101 258 240 258zM268 394c-65 0 -87 -78 -87 -149c0 -83 29 -149 88 -149c54 0 83 66 83 150c0 71 -23 148 -84 148zM166 558c-38 0 -68 31 -68 69c0 39 30 68 69 68
c36 0 65 -28 65 -68c0 -38 -28 -69 -66 -69zM367 558h-2c-37 0 -66 31 -66 69c0 39 30 68 68 68c37 0 66 -28 66 -68c0 -38 -28 -69 -66 -69z" />
    <glyph glyph-name="ograve" unicode="&#xf2;" horiz-adv-x="533" 
d="M272 500c138 0 229 -101 229 -251c0 -187 -123 -259 -236 -259c-135 0 -233 94 -233 252c0 163 101 258 240 258zM268 394c-65 0 -87 -78 -87 -149c0 -83 29 -149 88 -149c54 0 83 66 83 150c0 71 -23 148 -84 148zM118 698h132l81 -148h-97z" />
    <glyph glyph-name="otilde" unicode="&#xf5;" horiz-adv-x="533" 
d="M272 500c138 0 229 -101 229 -251c0 -187 -123 -259 -236 -259c-135 0 -233 94 -233 252c0 163 101 258 240 258zM268 394c-65 0 -87 -78 -87 -149c0 -83 29 -149 88 -149c54 0 83 66 83 150c0 71 -23 148 -84 148zM198 558h-68c-2 78 28 127 78 127c25 0 45 -10 64 -20
c15 -9 28 -18 41 -18c15 0 22 8 24 42h66c2 -88 -29 -124 -78 -124c-25 0 -45 10 -65 20c-17 9 -25 16 -38 16c-14 0 -23 -14 -24 -43z" />
    <glyph glyph-name="scaron" unicode="&#x161;" horiz-adv-x="401" 
d="M29 24l26 104c25 -15 77 -33 118 -33c42 0 62 15 62 41s-15 39 -68 60c-95 37 -127 91 -127 145c0 90 73 159 188 159c52 0 97 -13 126 -27l-26 -102c-21 11 -57 25 -94 25c-36 0 -56 -16 -56 -40c0 -23 17 -35 73 -58c86 -34 122 -83 122 -150c0 -94 -71 -157 -200 -157
c-57 0 -111 13 -144 33zM253 550h-100l-95 148h96l48 -85h2l47 85h97z" />
    <glyph glyph-name="uacute" unicode="&#xfa;" horiz-adv-x="544" 
d="M486 489v-334c0 -61 2 -113 4 -155h-126l-7 64h-3c-20 -31 -64 -74 -141 -74c-97 0 -159 64 -159 209v290h146v-268c0 -70 20 -112 68 -112c36 0 57 25 66 47c4 9 6 22 6 35v298h146zM296 698h133l-116 -148h-97z" />
    <glyph glyph-name="ucircumflex" unicode="&#xfb;" horiz-adv-x="544" 
d="M486 489v-334c0 -61 2 -113 4 -155h-126l-7 64h-3c-20 -31 -64 -74 -141 -74c-97 0 -159 64 -159 209v290h146v-268c0 -70 20 -112 68 -112c36 0 57 25 66 47c4 9 6 22 6 35v298h146zM223 698h99l95 -148h-96l-48 85h-2l-46 -85h-97z" />
    <glyph glyph-name="udieresis" unicode="&#xfc;" horiz-adv-x="544" 
d="M486 489v-334c0 -61 2 -113 4 -155h-126l-7 64h-3c-20 -31 -64 -74 -141 -74c-97 0 -159 64 -159 209v290h146v-268c0 -70 20 -112 68 -112c36 0 57 25 66 47c4 9 6 22 6 35v298h146zM175 558c-38 0 -68 31 -68 69c0 39 30 68 69 68c36 0 65 -28 65 -68
c0 -38 -28 -69 -66 -69zM374 558c-37 0 -66 31 -66 69c0 39 30 68 68 68c37 0 66 -28 66 -68c0 -38 -28 -69 -68 -69z" />
    <glyph glyph-name="ugrave" unicode="&#xf9;" horiz-adv-x="544" 
d="M486 489v-334c0 -61 2 -113 4 -155h-126l-7 64h-3c-20 -31 -64 -74 -141 -74c-97 0 -159 64 -159 209v290h146v-268c0 -70 20 -112 68 -112c36 0 57 25 66 47c4 9 6 22 6 35v298h146zM122 698h132l81 -148h-97z" />
    <glyph glyph-name="yacute" unicode="&#xfd;" horiz-adv-x="483" 
d="M6 489h160l66 -245c7 -29 15 -62 21 -88h3c6 26 12 60 19 88l54 245h152l-109 -339c-57 -164 -99 -246 -153 -299c-50 -47 -104 -66 -136 -70l-35 123c20 5 43 16 66 31c21 13 43 37 56 60c5 8 8 15 8 22c0 5 -2 12 -6 23zM274 698h132l-116 -148h-97z" />
    <glyph glyph-name="ydieresis" unicode="&#xff;" horiz-adv-x="483" 
d="M6 489h160l66 -245c7 -29 15 -62 21 -88h3c6 26 12 60 19 88l54 245h152l-109 -339c-57 -164 -99 -246 -153 -299c-50 -47 -104 -66 -136 -70l-35 123c20 5 43 16 66 31c21 13 43 37 56 60c5 8 8 15 8 22c0 5 -2 12 -6 23zM151 558c-38 0 -68 31 -68 69c0 39 30 68 69 68
c36 0 65 -28 65 -68c0 -38 -28 -69 -66 -69zM352 558h-2c-37 0 -66 31 -66 69c0 39 30 68 68 68c37 0 66 -28 66 -68c0 -38 -28 -69 -66 -69z" />
    <glyph glyph-name="zcaron" unicode="&#x17e;" horiz-adv-x="433" 
d="M21 0v86l144 200c24 31 46 58 68 84v2h-196v117h369v-91l-138 -192c-24 -31 -48 -62 -70 -87v-2h215v-117h-392zM274 550h-100l-95 148h96l48 -85h2l47 85h97z" />
    <glyph glyph-name="Dcroat" unicode="&#x110;" horiz-adv-x="641" 
d="M2 289v111h68v266c49 9 115 14 184 14c115 0 191 -21 249 -67c66 -53 106 -140 106 -262c0 -132 -43 -224 -106 -278c-64 -55 -159 -81 -279 -81c-68 0 -120 5 -154 8v289h-68zM332 400v-111h-116v-179c11 -2 29 -2 44 -2c117 0 195 70 195 241c0 144 -67 217 -183 217
c-27 0 -44 -2 -56 -5v-161h116z" />
    <glyph glyph-name="Eng" unicode="&#x14a;" horiz-adv-x="638" 
d="M196 0h-132v674h160l129 -252c35 -65 72 -150 99 -221h3c-8 84 -13 182 -13 291v182h132v-631c0 -159 -79 -237 -209 -254l-34 110c63 16 96 42 103 86l-139 274c-36 68 -76 154 -103 227h-3c4 -83 7 -181 7 -299v-187z" />
    <glyph glyph-name="Hbar" unicode="&#x126;" horiz-adv-x="645" 
d="M635 471h-58v-471h-146v259h-217v-259h-146v471h-58v90h58v113h146v-113h217v113h146v-113h58v-90zM431 388v83h-217v-83h217z" />
    <glyph glyph-name="Tbar" unicode="&#x166;" horiz-adv-x="501" 
d="M488 548h-165v-165h104v-90h-104v-293h-146v293h-105v90h105v165h-163v126h474v-126z" />
    <glyph glyph-name="uni021C" unicode="&#x21c;" horiz-adv-x="493" 
d="M63 -125l-17 113c97 11 259 80 259 188c0 46 -32 98 -111 98c-20 0 -61 -6 -92 -16l-17 100c87 16 179 71 179 145c0 40 -35 67 -85 67c-43 0 -91 -17 -120 -30l-26 98c39 23 109 46 179 46c113 0 195 -63 195 -154c0 -76 -49 -133 -114 -164v-2c88 -14 166 -75 166 -180
c0 -176 -194 -300 -396 -309z" />
    <glyph glyph-name="dcroat" unicode="&#x111;" horiz-adv-x="551" 
d="M569 538h-74v-392c0 -53 2 -110 4 -146h-129l-6 67h-2c-27 -49 -81 -77 -138 -77c-112 0 -192 104 -192 251c0 167 94 259 200 259c56 0 96 -22 115 -54h2v92h-165v83h165v84h146v-84h74v-83zM349 204v84c0 8 0 19 -2 28c-7 37 -35 69 -76 69c-62 0 -92 -63 -92 -141
c0 -86 36 -137 91 -137c36 0 66 24 76 64c2 10 3 21 3 33z" />
    <glyph glyph-name="eng" unicode="&#x14b;" horiz-adv-x="547" 
d="M56 0v335c0 59 -2 109 -4 154h126l7 -64h3c21 33 69 74 142 74c98 0 162 -69 162 -202v-245c0 -170 -88 -232 -196 -245l-30 112c54 11 80 39 80 111v252c0 56 -19 98 -69 98c-36 0 -59 -25 -69 -53c-4 -10 -6 -25 -6 -40v-287h-146z" />
    <glyph glyph-name="hbar" unicode="&#x127;" horiz-adv-x="547" 
d="M492 0h-146v277c0 60 -18 103 -70 103c-35 0 -58 -22 -69 -51c-3 -9 -5 -24 -5 -35v-294h-146v538h-73v83h73v84h146v-84h168v-83h-168v-106h2c15 20 33 36 55 48s48 19 76 19c94 0 157 -70 157 -210v-289z" />
    <glyph glyph-name="kgreenlandic" unicode="&#x138;" horiz-adv-x="504" 
d="M202 489v-209h2c11 23 21 43 32 62l88 147h171l-159 -201l178 -288h-175l-103 201l-34 -47v-154h-146v489h146z" />
    <glyph glyph-name="napostrophe" unicode="&#x149;" horiz-adv-x="547" 
d="M56 0v335c0 59 -2 109 -4 154h126l7 -64h3c21 33 69 74 142 74c98 0 162 -69 162 -202v-297h-146v282c0 56 -19 98 -69 98c-36 0 -59 -25 -69 -53c-4 -10 -6 -25 -6 -40v-287h-146zM68 523l-64 38c17 24 31 52 31 84c0 23 -11 45 -22 57l95 21c15 -10 32 -37 32 -73
c0 -68 -52 -112 -72 -127z" />
    <glyph glyph-name="tbar" unicode="&#x167;" horiz-adv-x="350" 
d="M327 383h-105v-71h80v-80h-80v-48c0 -54 20 -74 57 -74c19 0 28 1 42 4l1 -111c-19 -7 -53 -12 -93 -12c-46 0 -85 15 -109 39c-28 28 -42 72 -42 143v59h-60v80h60v71h-63v106h63v90l144 41v-131h105v-106z" />
    <glyph glyph-name="uni021D" unicode="&#x21d;" horiz-adv-x="440" 
d="M44 -206l-15 113c61 1 236 29 236 145c0 35 -19 79 -96 79c-22 0 -54 -7 -80 -15l-20 100c85 18 162 50 162 109c0 39 -30 61 -79 61c-41 0 -79 -17 -106 -30l-27 97c38 25 103 46 170 46c110 0 181 -55 181 -143c0 -61 -35 -105 -99 -134v-2c86 -14 143 -69 143 -155
c0 -166 -186 -267 -370 -271z" />
    <glyph glyph-name="IJ" unicode="&#x132;" horiz-adv-x="650" 
d="M64 674h146v-674h-146v674zM447 237v437h146v-436c0 -192 -92 -248 -225 -248c-32 0 -72 5 -97 14l15 119c18 -6 41 -10 67 -10c56 0 94 25 94 124z" />
    <glyph glyph-name="ij" unicode="&#x133;" horiz-adv-x="530" 
d="M202 0h-146v489h146v-489zM129 698c45 0 75 -31 76 -75c0 -42 -31 -74 -78 -74c-45 0 -75 32 -75 74c0 44 31 75 77 75zM232 -210l-13 114c34 3 64 11 82 31c21 21 28 59 28 150v404h146v-437c0 -107 -23 -168 -68 -208c-42 -37 -110 -54 -175 -54zM402 698
c45 0 75 -31 76 -75c0 -42 -31 -74 -78 -74c-45 0 -75 32 -75 74c0 44 31 75 77 75z" />
    <glyph glyph-name="zero.slash" unicode="&#xf638;" horiz-adv-x="516" 
d="M176 242l143 262c-11 25 -31 42 -60 42c-57 0 -91 -76 -91 -220c0 -28 2 -56 8 -84zM341 412l-144 -268c14 -26 32 -40 60 -40c57 0 91 74 91 222c0 28 -2 54 -7 86zM483 643l-50 -79c38 -62 53 -149 53 -236c0 -210 -82 -338 -229 -338c-53 0 -97 17 -132 48l-36 -58
l-54 39l47 72c-36 58 -52 144 -52 232c0 194 73 337 231 337c53 0 95 -16 127 -43l39 63z" />
    <glyph glyph-name="Euro" unicode="&#x20ac;" horiz-adv-x="516" 
d="M469 134l21 -110c-29 -16 -83 -34 -140 -34c-86 0 -166 34 -219 102c-29 35 -50 81 -60 142h-60v70h52v15c0 11 1 22 1 32h-53v70h63c11 57 35 103 65 139c52 64 126 100 216 100c55 0 101 -13 132 -27l-26 -112c-22 10 -59 22 -98 22c-42 0 -81 -15 -109 -51
c-14 -17 -25 -41 -31 -71h220v-70h-233c-1 -10 -1 -21 -1 -33v-14h234v-70h-223c6 -34 17 -59 32 -77c29 -33 70 -47 115 -47c40 0 82 14 102 24z" />
    <glyph glyph-name="Aringacute" unicode="&#x1fa;" horiz-adv-x="597" 
d="M302 692c-69 0 -105 40 -105 85c0 46 36 88 106 88s103 -40 103 -87s-37 -86 -104 -86zM301 740c28 0 42 17 42 38s-15 40 -43 40s-40 -20 -40 -40c0 -19 14 -38 41 -38zM341 975h157l-147 -93h-117zM377 167h-172l-42 -167h-148l188 674h186l186 -674h-153zM225 277h133
l-36 143c-10 40 -21 96 -30 137h-3c-9 -41 -19 -98 -28 -137z" />
    <glyph glyph-name="estimated" unicode="&#x212e;" horiz-adv-x="817" 
d="M782 316h-605c-3 0 -5 -1 -5 -4v-183c0 -8 4 -15 9 -21c57 -61 139 -99 229 -99c96 0 182 43 240 111h55c-68 -79 -176 -131 -296 -131c-206 0 -374 150 -374 336s168 336 374 336s373 -150 373 -336v-9zM646 340v184c0 9 -4 16 -10 22c-58 58 -138 95 -226 95
c-90 0 -170 -38 -228 -98c-6 -6 -10 -14 -10 -23v-180c0 -3 2 -5 5 -5h464c3 0 5 2 5 5z" />
    <glyph glyph-name="zero.oldstyle" unicode="&#xf730;" horiz-adv-x="522" 
d="M260 -10c-139 0 -229 103 -229 255s90 256 230 256s230 -103 230 -256c0 -151 -90 -255 -231 -255zM262 98c57 0 91 53 91 147c0 95 -35 148 -92 148c-58 0 -92 -53 -92 -148c0 -94 35 -147 93 -147z" />
    <glyph glyph-name="one.oldstyle" unicode="&#xf731;" horiz-adv-x="385" 
d="M306 0h-142v361h-2l-116 -55l-24 108l167 76h117v-490z" />
    <glyph glyph-name="two.oldstyle" unicode="&#xf732;" horiz-adv-x="442" 
d="M418 0h-397v80l56 40c109 75 167 131 167 192c0 49 -32 74 -84 74c-38 0 -77 -15 -105 -32l-33 94c34 23 101 54 182 54c112 0 184 -63 184 -163c0 -87 -63 -151 -133 -203l-38 -26v-3c32 4 77 7 100 7h101v-114z" />
    <glyph glyph-name="three.oldstyle" unicode="&#xf733;" horiz-adv-x="437" 
d="M18 -106l15 108c23 -8 61 -14 101 -14c73 0 125 31 125 85c0 48 -45 77 -116 77c-17 0 -36 0 -50 -2l-1 105l28 2c68 5 124 29 124 73c0 38 -30 58 -80 58c-42 0 -85 -15 -113 -28l-24 98c37 25 104 44 171 44c111 0 189 -57 189 -145c0 -68 -52 -122 -116 -137v-2
c76 -13 137 -63 137 -145c0 -123 -123 -196 -257 -196c-59 0 -107 9 -133 19z" />
    <glyph glyph-name="four.oldstyle" unicode="&#xf734;" horiz-adv-x="508" 
d="M489 34h-74v-157h-132v157h-264v95l228 363h168v-350h74v-108zM283 142v129c0 35 0 72 3 107h-4c-15 -35 -36 -78 -56 -112l-77 -120l1 -4h133z" />
    <glyph glyph-name="five.oldstyle" unicode="&#xf735;" horiz-adv-x="434" 
d="M22 -108l15 105c20 -6 56 -11 94 -11c65 0 124 32 124 92c0 22 -7 42 -22 56c-28 27 -84 40 -192 37l52 319h303l-16 -119h-192l-18 -101c76 -3 144 -21 187 -62c30 -30 47 -69 47 -120c0 -123 -98 -213 -261 -213c-48 0 -97 8 -121 17z" />
    <glyph glyph-name="six.oldstyle" unicode="&#xf736;" horiz-adv-x="515" 
d="M433 615l9 -105c-161 -8 -233 -78 -251 -150l2 -1c21 23 61 46 111 46c98 0 179 -69 179 -193c0 -132 -103 -222 -223 -222c-136 0 -227 95 -227 255c0 207 146 364 400 370zM262 96c37 0 76 32 76 106c0 66 -33 106 -79 106c-29 0 -51 -14 -66 -32
c-11 -12 -16 -34 -16 -59c0 -79 33 -121 85 -121z" />
    <glyph glyph-name="seven.oldstyle" unicode="&#xf737;" horiz-adv-x="441" 
d="M417 490v-87c-44 -124 -161 -373 -254 -525l-138 17c81 129 197 345 244 472v2h-252v121h400z" />
    <glyph glyph-name="eight.oldstyle" unicode="&#xf738;" horiz-adv-x="519" 
d="M375 328l1 -4c59 -28 110 -75 110 -148c0 -114 -100 -186 -232 -186c-133 0 -222 70 -222 172c0 68 43 120 106 151v4c-53 30 -86 73 -86 128c0 103 87 172 213 172c125 0 199 -70 199 -157c0 -62 -37 -104 -89 -132zM263 526c-45 1 -71 -33 -71 -72c0 -38 31 -70 84 -88
c31 15 57 44 57 85c0 50 -33 75 -70 75zM259 87c47 0 80 33 80 78c0 49 -39 85 -96 104c-42 -17 -68 -53 -68 -97c0 -46 33 -85 84 -85z" />
    <glyph glyph-name="nine.oldstyle" unicode="&#xf739;" horiz-adv-x="515" 
d="M75 -121l-10 104c157 9 233 66 259 151l-2 1c-20 -24 -62 -45 -114 -45c-97 0 -176 75 -176 192c0 131 100 221 227 221c132 0 222 -100 222 -252c0 -246 -179 -370 -406 -372zM258 186c25 0 52 16 66 37c7 10 12 31 12 57c0 71 -34 115 -81 115c-41 0 -79 -32 -79 -105
c0 -68 36 -104 82 -104z" />
    <glyph glyph-name="percent.oldstyle" unicode="&#xf642;" horiz-adv-x="827" 
d="M187 617c106 0 160 -90 160 -194c0 -137 -79 -206 -165 -206c-96 0 -163 82 -163 197c0 113 64 203 168 203zM183 538c-40 0 -58 -51 -58 -121c-1 -73 19 -121 59 -121c39 0 57 45 57 121c0 69 -15 121 -58 121zM280 -11h-78l345 629h77zM648 392c106 0 160 -90 160 -194
c0 -137 -79 -206 -165 -206c-96 0 -163 82 -163 197c0 113 64 203 168 203zM644 313c-40 0 -58 -51 -58 -121c-1 -73 20 -121 59 -121s57 45 57 121c0 69 -15 121 -58 121z" />
    <glyph glyph-name="zero.fitted" unicode="&#xf639;" horiz-adv-x="516" 
d="M261 660c168 0 226 -161 226 -332c0 -210 -82 -338 -230 -338c-160 0 -226 154 -227 333c0 189 73 337 231 337zM260 546c-52 0 -84 -70 -84 -221c-1 -151 30 -221 84 -221s81 74 81 222c0 143 -26 220 -81 220z" />
    <glyph glyph-name="one.fitted" unicode="&#xf6dc;" horiz-adv-x="362" 
d="M148 0v518h-2l-119 -58l-25 111l166 79h122v-650h-142z" />
    <glyph glyph-name="two.fitted" unicode="&#xf63a;" horiz-adv-x="458" 
d="M432 0h-430v91l78 77c125 122 194 200 195 281c0 53 -30 93 -99 93c-52 0 -96 -25 -127 -47l-37 106c43 32 113 59 192 59c146 0 216 -89 216 -199c0 -113 -78 -203 -166 -288l-54 -49v-2h232v-122z" />
    <glyph glyph-name="three.fitted" unicode="&#xf63b;" horiz-adv-x="457" 
d="M3 30l27 111c27 -14 82 -35 135 -35c75 0 113 39 113 89c0 67 -61 97 -128 97h-49v105h46c50 0 113 20 113 77c0 41 -31 70 -89 70c-47 0 -94 -19 -120 -35l-27 106c35 23 106 45 181 45c131 0 202 -73 202 -160c0 -67 -38 -122 -111 -149v-2c73 -17 132 -75 132 -161
c0 -110 -94 -198 -251 -198c-75 0 -139 19 -174 40z" />
    <glyph glyph-name="four.fitted" unicode="&#xf63c;" horiz-adv-x="507" 
d="M417 0h-135v155h-269v96l236 399h168v-384h74v-111h-74v-155zM145 266h137v141c0 37 3 77 5 117h-3c-20 -41 -36 -76 -57 -115l-82 -141v-2z" />
    <glyph glyph-name="five.fitted" unicode="&#xf63d;" horiz-adv-x="466" 
d="M413 650v-122h-228l-14 -105c12 1 22 2 35 2c52 -1 114 -15 157 -48c45 -34 72 -86 72 -159c0 -123 -98 -228 -263 -228c-69 0 -130 16 -164 34l26 110c27 -13 78 -29 130 -29c64 0 123 33 123 103c0 72 -57 110 -170 110c-31 0 -53 -2 -76 -5l41 337h331z" />
    <glyph glyph-name="six.fitted" unicode="&#xf63e;" horiz-adv-x="517" 
d="M427 658v-114c-17 1 -35 0 -58 -3c-120 -13 -175 -83 -192 -161h3c30 32 72 52 127 52c102 0 185 -78 185 -209c0 -124 -87 -233 -223 -233c-159 0 -240 123 -240 279c0 128 45 228 112 293c58 55 136 87 223 94c29 3 49 2 63 2zM268 97c49 0 77 51 77 121
c0 58 -28 110 -86 110c-34 0 -65 -22 -78 -53c-5 -8 -7 -22 -7 -44c2 -74 32 -134 94 -134z" />
    <glyph glyph-name="seven.fitted" unicode="&#xf63f;" horiz-adv-x="430" 
d="M2 650h428v-93l-249 -557h-151l247 526v2h-275v122z" />
    <glyph glyph-name="eight.fitted" unicode="&#xf640;" horiz-adv-x="516" 
d="M139 336l-1 2c-60 34 -89 88 -89 143c0 109 94 179 216 179c134 0 201 -81 201 -164c0 -53 -26 -109 -92 -144v-3c62 -26 114 -82 114 -164c0 -118 -96 -195 -234 -195c-149 0 -226 86 -226 180c0 79 45 134 111 166zM260 90c50 0 81 37 81 86c0 58 -41 94 -94 110
c-45 -16 -72 -53 -72 -101c-1 -50 31 -95 85 -95zM258 562c-48 0 -72 -36 -72 -76c0 -45 35 -74 84 -92c33 12 60 46 60 86c0 41 -21 82 -72 82z" />
    <glyph glyph-name="nine.fitted" unicode="&#xf641;" horiz-adv-x="517" 
d="M85 -8v115c21 -1 36 -1 64 2c40 3 82 17 113 40c38 28 65 72 76 123l-2 1c-27 -28 -66 -45 -120 -45c-103 0 -188 76 -188 200c0 122 92 232 230 232c153 0 228 -122 228 -276c0 -139 -44 -239 -112 -303c-56 -52 -133 -82 -223 -88c-24 -2 -48 -2 -66 -1zM252 554
c-46 0 -80 -45 -79 -116c0 -59 28 -108 83 -108c36 0 62 19 74 40c5 10 7 22 7 48c1 74 -25 136 -85 136z" />
    <glyph glyph-name="zero.slashfitted" unicode="&#xe008;" horiz-adv-x="516" 
d="M176 242l143 262c-11 25 -31 42 -60 42c-57 0 -91 -76 -91 -220c0 -28 2 -56 8 -84zM341 412l-144 -268c14 -26 32 -40 60 -40c57 0 91 74 91 222c0 28 -2 54 -7 86zM483 643l-50 -79c38 -62 53 -149 53 -236c0 -210 -82 -338 -229 -338c-53 0 -97 17 -132 48l-36 -58
l-54 39l47 72c-36 58 -52 144 -52 232c0 194 73 337 231 337c53 0 95 -16 127 -43l39 63z" />
    <glyph glyph-name="zero.taboldstyle" unicode="&#xf643;" horiz-adv-x="522" 
d="M260 -10c-139 0 -229 103 -229 255s90 256 230 256s230 -103 230 -256c0 -151 -90 -255 -231 -255zM262 98c57 0 91 53 91 147c0 95 -35 148 -92 148c-58 0 -92 -53 -92 -148c0 -94 35 -147 93 -147z" />
    <glyph glyph-name="one.taboldstyle" unicode="&#xf644;" horiz-adv-x="522" 
d="M386 0h-142v366h-2l-162 -65l-20 108l209 81h117v-490z" />
    <glyph glyph-name="two.taboldstyle" unicode="&#xf645;" horiz-adv-x="522" 
d="M455 0h-397v80l56 40c109 75 167 131 167 192c0 49 -32 74 -84 74c-38 0 -77 -15 -105 -32l-33 94c34 23 101 54 182 54c112 0 184 -63 184 -163c0 -87 -63 -151 -133 -203l-38 -26v-3c32 4 77 7 100 7h101v-114z" />
    <glyph glyph-name="three.taboldstyle" unicode="&#xf646;" horiz-adv-x="522" 
d="M57 -106l15 108c23 -8 61 -14 101 -14c73 0 125 31 125 85c0 48 -45 77 -117 77c-17 0 -36 0 -50 -2l-1 105l28 2c68 5 124 29 124 73c0 38 -30 58 -80 58c-42 0 -85 -15 -113 -28l-24 98c37 25 104 44 171 44c111 0 189 -57 189 -145c0 -68 -52 -122 -115 -137v-2
c76 -13 137 -63 137 -145c0 -123 -123 -196 -257 -196c-59 0 -107 9 -133 19z" />
    <glyph glyph-name="four.taboldstyle" unicode="&#xf647;" horiz-adv-x="522" 
d="M495 34h-74v-157h-132v157h-264v95l228 363h168v-350h74v-108zM289 142v129c0 35 0 72 3 107h-4c-15 -35 -36 -78 -56 -112l-77 -120l1 -4h133z" />
    <glyph glyph-name="five.taboldstyle" unicode="&#xf648;" horiz-adv-x="522" 
d="M64 -108l15 105c20 -6 56 -11 94 -11c65 0 124 32 124 92c0 22 -7 42 -22 56c-28 27 -84 40 -192 37l52 319h303l-16 -119h-192l-18 -101c76 -3 144 -21 187 -62c30 -30 47 -69 47 -120c0 -123 -98 -213 -261 -213c-48 0 -97 8 -121 17z" />
    <glyph glyph-name="six.taboldstyle" unicode="&#xf649;" horiz-adv-x="522" 
d="M438 615l9 -105c-161 -8 -233 -78 -251 -150l2 -1c21 23 61 46 111 46c98 0 179 -69 179 -193c0 -132 -103 -222 -223 -222c-136 0 -227 95 -227 255c0 207 146 364 400 370zM267 96c37 0 76 32 76 106c0 66 -33 106 -79 106c-29 0 -51 -14 -66 -32
c-11 -12 -16 -34 -16 -59c0 -79 33 -121 85 -121z" />
    <glyph glyph-name="seven.taboldstyle" unicode="&#xf64a;" horiz-adv-x="522" 
d="M458 490v-87c-44 -124 -161 -373 -254 -525l-138 17c81 129 197 345 244 472v2h-252v121h400z" />
    <glyph glyph-name="eight.taboldstyle" unicode="&#xf64b;" horiz-adv-x="522" 
d="M376 328v-4c59 -28 110 -75 110 -148c0 -114 -100 -186 -231 -186c-133 0 -222 70 -222 172c0 68 43 120 106 151v4c-53 30 -86 73 -86 128c0 103 87 172 213 172c125 0 199 -70 199 -157c0 -62 -37 -104 -89 -132zM264 526c-45 1 -71 -33 -71 -72c0 -38 31 -70 84 -88
c31 15 57 44 57 85c0 50 -33 75 -70 75zM260 87c46 0 79 33 79 78c0 49 -39 85 -95 104c-42 -17 -68 -53 -68 -97c0 -46 33 -85 84 -85z" />
    <glyph glyph-name="nine.taboldstyle" unicode="&#xf64c;" horiz-adv-x="522" 
d="M77 -121l-10 104c157 9 233 66 259 151l-2 1c-20 -24 -62 -45 -114 -45c-97 0 -176 75 -176 192c0 131 100 221 227 221c132 0 222 -100 222 -252c0 -246 -179 -370 -406 -372zM260 186c25 0 52 16 66 37c7 10 12 31 12 57c0 71 -34 115 -81 115c-41 0 -79 -32 -79 -105
c0 -68 36 -104 82 -104z" />
    <glyph glyph-name="dollar.taboldstyle" unicode="&#xf653;" horiz-adv-x="522" 
d="M302 -82h-88v81c-56 2 -112 19 -146 39l28 99c31 -19 91 -35 135 -35c45 0 75 14 75 41c0 22 -16 37 -83 62c-105 37 -146 77 -146 145c0 67 55 118 145 135v90h88v-84c52 -2 95 -15 123 -29l-29 -96c-24 13 -67 27 -111 27s-72 -14 -72 -37c0 -22 13 -34 89 -60
c104 -34 144 -81 144 -146c0 -69 -54 -129 -152 -146v-86z" />
    <glyph glyph-name="cent.taboldstyle" unicode="&#xf654;" horiz-adv-x="522" 
d="M399 154l15 -94c-19 -7 -52 -16 -87 -17v-72h-83v74c-107 17 -174 94 -174 204c0 104 65 189 174 210v72h83v-67c30 -1 61 -8 82 -16l-19 -95c-18 8 -45 14 -78 14c-65 0 -108 -44 -108 -114c0 -76 50 -113 110 -113c35 0 63 5 85 14z" />
    <glyph glyph-name="Euro.taboldstyle" unicode="&#xf64e;" horiz-adv-x="522" 
d="M463 120l14 -101c-26 -15 -75 -29 -131 -29c-69 0 -134 23 -179 69c-30 30 -53 70 -64 118h-60v66h51c0 10 -1 17 -1 21c0 6 0 16 1 26h-51v66h62c11 47 35 87 64 117c48 48 116 73 189 73c53 0 95 -13 118 -23l-26 -102c-17 7 -45 16 -82 16c-34 0 -68 -10 -92 -34
c-12 -12 -21 -28 -26 -47h184v-66h-199c-1 -10 -1 -18 -1 -24v-23h199v-66h-183c5 -17 13 -31 25 -42c24 -24 58 -34 95 -34c36 0 73 9 93 19z" />
    <glyph glyph-name="florin.taboldstyle" unicode="&#xf64f;" horiz-adv-x="522" 
d="M108 257v93h84l6 53c8 82 52 215 209 215c31 0 60 -7 77 -15l-22 -105c-12 5 -27 8 -45 8c-48 0 -72 -39 -78 -95l-7 -61h100v-93h-110l-20 -171c-13 -117 -53 -212 -189 -212c-37 0 -70 8 -86 16l21 103c14 -5 29 -8 44 -8c43 1 63 26 75 129l16 143h-75z" />
    <glyph glyph-name="sterling.taboldstyle" unicode="&#xf651;" horiz-adv-x="522" 
d="M476 0h-423v80c58 23 99 65 99 117c0 11 -1 21 -3 31h-86v81h69c-3 16 -5 34 -5 51c0 112 77 203 214 203c47 0 85 -11 107 -22l-23 -110c-19 10 -46 17 -76 17c-57 0 -86 -37 -86 -91c0 -16 2 -33 5 -48h134v-81h-120c1 -6 1 -12 1 -17c-3 -45 -28 -76 -52 -94v-2h245
v-115z" />
    <glyph glyph-name="yen.taboldstyle" unicode="&#xf652;" horiz-adv-x="522" 
d="M326 0h-136v106h-141v70h141v49h-141v70h109l-136 240h149l54 -127c15 -38 26 -67 37 -99h2c12 31 23 63 38 99l55 127h144l-142 -240h109v-70h-142v-49h142v-70h-142v-106z" />
    <glyph glyph-name="numbersign.taboldstyle" unicode="&#xf650;" horiz-adv-x="522" 
d="M213 236h85l15 113h-85zM177 -15h-85l23 164h-79v87h92l16 113h-81v87h94l22 160h84l-22 -160h85l22 160h85l-22 -160h77v-87h-90l-15 -113h80v-87h-94l-22 -164h-86l23 164h-85z" />
    <glyph glyph-name="zero.superior" unicode="&#x2070;" horiz-adv-x="352" 
d="M175 430c-109 0 -155 92 -155 200s47 200 156 200c111 0 156 -94 156 -200c0 -113 -50 -200 -157 -200zM177 507c30 0 49 37 49 123c0 84 -19 123 -50 123c-30 0 -50 -38 -50 -123s19 -123 51 -123z" />
    <glyph glyph-name="one.superior" horiz-adv-x="282" 
d="M222 435h-110v299h-2l-76 -35l-16 79l108 47h96v-390z" />
    <glyph glyph-name="two.superior" horiz-adv-x="328" 
d="M13 435v56l57 56c68 66 109 102 109 146c0 32 -21 50 -56 50c-31 0 -59 -12 -79 -26l-28 73c30 22 78 40 135 40c98 0 144 -55 144 -118c0 -72 -55 -121 -111 -170l-22 -20v-2h139v-85h-288z" />
    <glyph glyph-name="three.superior" horiz-adv-x="321" 
d="M43 731l-19 70c27 16 74 29 126 29c92 0 136 -45 136 -97c0 -44 -32 -74 -77 -90v-2c51 -7 91 -43 91 -92c0 -70 -67 -119 -172 -119c-49 0 -94 11 -120 25l20 75c19 -10 56 -23 89 -23c39 0 67 20 67 48c0 34 -39 52 -82 53h-25v66h22c33 0 76 11 76 42
c0 22 -17 37 -50 37c-32 0 -63 -12 -82 -22z" />
    <glyph glyph-name="four.superior" unicode="&#x2074;" horiz-adv-x="366" 
d="M297 435h-101v90h-179v62l158 240h122v-229h49v-73h-49v-90zM196 598v72c0 25 2 50 4 72h-3c-11 -23 -21 -43 -32 -62l-51 -81l1 -1h81z" />
    <glyph glyph-name="five.superior" unicode="&#x2075;" horiz-adv-x="326" 
d="M281 824v-83h-147l-8 -51c6 0 17 1 23 1c35 0 76 -8 104 -29c27 -19 45 -52 45 -94c0 -77 -63 -139 -170 -139c-42 0 -87 10 -109 21l17 76c17 -8 52 -18 86 -18s72 15 72 53c0 39 -32 60 -106 60c-18 0 -36 -2 -50 -3l25 206h218z" />
    <glyph glyph-name="six.superior" unicode="&#x2076;" horiz-adv-x="343" 
d="M278 829l1 -78c-10 1 -24 1 -37 0c-68 -5 -105 -38 -118 -82h2c18 15 46 27 78 27c69 0 118 -47 118 -124c0 -83 -65 -142 -145 -142c-106 0 -156 79 -156 169c0 73 27 134 69 173c38 34 86 53 149 56c16 1 31 2 39 1zM176 505c27 0 44 28 44 63c0 30 -14 60 -50 60
c-21 0 -38 -14 -46 -31c-1 -5 -3 -13 -3 -24c0 -34 19 -68 55 -68z" />
    <glyph glyph-name="seven.superior" unicode="&#x2077;" horiz-adv-x="311" 
d="M20 824h278v-63l-155 -326h-107l155 305v1h-171v83z" />
    <glyph glyph-name="eight.superior" unicode="&#x2078;" horiz-adv-x="342" 
d="M174 830c87 0 131 -48 131 -100c0 -33 -19 -66 -56 -84v-2c35 -13 71 -45 71 -95c0 -71 -59 -119 -152 -119c-102 0 -146 56 -146 108c0 47 29 77 68 95v2c-36 19 -56 51 -56 85c0 67 61 110 140 110zM173 499c26 0 45 19 45 45c0 33 -27 51 -54 58
c-26 -10 -41 -28 -41 -54s19 -49 50 -49zM170 763c-27 0 -42 -19 -42 -40c0 -23 20 -40 50 -50c19 6 34 24 34 46s-14 44 -42 44z" />
    <glyph glyph-name="nine.superior" unicode="&#x2079;" horiz-adv-x="338" 
d="M55 431v78c13 -1 26 -1 39 0c26 2 53 8 72 20c25 15 41 39 48 65l-2 1c-14 -14 -39 -25 -72 -25c-63 0 -120 43 -120 121c0 76 61 139 147 139c104 0 150 -79 150 -167c0 -80 -26 -141 -68 -179c-38 -34 -91 -51 -155 -53c-13 -1 -29 0 -39 0zM166 756
c-25 0 -45 -24 -45 -61c0 -29 15 -58 48 -58c21 0 36 11 42 22c3 5 4 13 4 27c0 37 -14 70 -49 70z" />
    <glyph glyph-name="period.superior" unicode="&#xf6e8;" horiz-adv-x="166" 
d="M82 430c-35 0 -60 26 -60 62c0 37 26 63 61 63c36 0 61 -25 61 -63c0 -36 -25 -62 -62 -62z" />
    <glyph glyph-name="comma.superior" unicode="&#xf6e2;" horiz-adv-x="166" 
d="M65 372l-70 -6c21 60 37 122 47 180l105 6c-22 -65 -48 -126 -82 -180z" />
    <glyph glyph-name="dollar.superior" unicode="&#xf6e4;" horiz-adv-x="327" 
d="M192 383h-63v57c-39 2 -78 12 -100 24l18 77c27 -14 60 -25 98 -25c35 0 53 12 53 32c0 19 -13 30 -61 48c-66 25 -105 52 -105 110c0 52 36 94 101 108v56h63v-51c36 -1 67 -10 86 -19l-19 -74c-15 7 -45 20 -84 20c-37 0 -47 -15 -47 -29c0 -18 12 -27 68 -48
c72 -26 98 -60 98 -113c0 -54 -38 -98 -106 -111v-62z" />
    <glyph glyph-name="cent.superior" unicode="&#xf6e0;" horiz-adv-x="311" 
d="M216 430h-64v58c-37 6 -66 23 -88 47c-20 24 -32 58 -32 96c0 70 42 132 120 148v57h64v-53c18 -1 38 -4 54 -11l-15 -74c-14 6 -30 10 -51 10c-43 0 -69 -27 -69 -73c0 -49 33 -73 72 -73c22 0 40 3 55 9l11 -72c-15 -7 -34 -11 -57 -13v-56z" />
    <glyph glyph-name="hyphen.superior" unicode="&#xf6e6;" horiz-adv-x="192" 
d="M18 657h156v-69h-156v69z" />
    <glyph glyph-name="parenleft.superior" unicode="&#x207d;" horiz-adv-x="192" 
d="M106 861h73c-30 -52 -60 -134 -60 -241c0 -106 29 -184 60 -239h-73c-31 45 -69 125 -69 239c0 116 39 197 69 241z" />
    <glyph glyph-name="parenright.superior" unicode="&#x207e;" horiz-adv-x="192" 
d="M85 381h-73c31 55 60 135 60 240c0 106 -29 186 -60 240h73c31 -44 69 -124 69 -240c0 -113 -38 -194 -69 -240z" />
    <glyph glyph-name="zero.inferior" unicode="&#x2080;" horiz-adv-x="352" 
d="M175 -152c-109 0 -155 93 -155 200c0 108 47 200 156 200c111 0 156 -94 156 -200c0 -113 -50 -200 -157 -200zM177 -75c30 0 49 37 49 123c0 84 -19 123 -50 123c-30 0 -50 -38 -50 -123s19 -123 51 -123z" />
    <glyph glyph-name="one.inferior" unicode="&#x2081;" horiz-adv-x="282" 
d="M222 -147h-110v299h-2l-76 -35l-16 78l108 48h96v-390z" />
    <glyph glyph-name="two.inferior" unicode="&#x2082;" horiz-adv-x="328" 
d="M13 -147v56l57 55c68 66 109 103 109 147c0 31 -21 50 -56 50c-31 0 -59 -12 -79 -27l-28 74c30 22 78 40 135 40c98 0 144 -55 144 -118c0 -72 -55 -121 -111 -170l-22 -20v-2h139v-85h-288z" />
    <glyph glyph-name="three.inferior" unicode="&#x2083;" horiz-adv-x="321" 
d="M43 148l-19 71c27 15 74 29 126 29c92 0 136 -46 136 -97c0 -44 -32 -75 -77 -90v-2c51 -7 91 -42 91 -92c0 -70 -67 -119 -172 -119c-49 0 -94 11 -120 26l20 74c19 -10 56 -23 89 -23c39 0 67 20 67 48c0 34 -39 52 -82 52h-25v66h22c33 0 76 11 76 43
c0 22 -17 37 -50 37c-32 0 -63 -12 -82 -23z" />
    <glyph glyph-name="four.inferior" unicode="&#x2084;" horiz-adv-x="366" 
d="M297 -147h-101v90h-179v62l158 240h122v-229h49v-73h-49v-90zM196 16v72c0 25 2 50 4 72h-3c-11 -23 -21 -43 -32 -62l-51 -81l1 -1h81z" />
    <glyph glyph-name="five.inferior" unicode="&#x2085;" horiz-adv-x="326" 
d="M281 243v-83h-147l-8 -52c6 1 17 1 23 1c35 0 76 -7 104 -28c27 -20 45 -52 45 -95c0 -76 -63 -138 -170 -138c-42 0 -87 10 -109 20l17 77c17 -8 52 -18 86 -18s72 15 72 53s-32 59 -106 59c-18 0 -36 -2 -50 -3l25 207h218z" />
    <glyph glyph-name="six.inferior" unicode="&#x2086;" horiz-adv-x="343" 
d="M278 247l1 -78c-10 1 -24 1 -37 0c-68 -5 -105 -38 -118 -82h2c18 15 46 27 78 27c69 0 118 -47 118 -124c0 -83 -65 -142 -145 -142c-106 0 -156 79 -156 169c0 74 27 134 69 173c38 35 86 53 149 56c16 2 31 2 39 1zM176 -77c27 0 44 28 44 63c0 30 -14 60 -50 60
c-21 0 -38 -14 -46 -31c-1 -5 -3 -12 -3 -24c0 -34 19 -68 55 -68z" />
    <glyph glyph-name="seven.inferior" unicode="&#x2087;" horiz-adv-x="311" 
d="M20 243h278v-63l-155 -327h-107l155 305v2h-171v83z" />
    <glyph glyph-name="eight.inferior" unicode="&#x2088;" horiz-adv-x="342" 
d="M174 248c87 0 131 -48 131 -100c0 -33 -19 -66 -56 -84v-2c35 -14 71 -45 71 -95c0 -71 -59 -119 -152 -119c-102 0 -146 56 -146 108c0 47 29 77 68 95v2c-36 19 -56 51 -56 85c0 67 61 110 140 110zM173 -83c26 0 45 19 45 45c0 33 -27 50 -54 58
c-26 -10 -41 -28 -41 -54s19 -49 50 -49zM170 181c-27 0 -42 -19 -42 -40c0 -23 20 -40 50 -50c19 6 34 24 34 46s-14 44 -42 44z" />
    <glyph glyph-name="nine.inferior" unicode="&#x2089;" horiz-adv-x="338" 
d="M55 -151v78c13 -1 26 -1 39 0c26 2 53 8 72 20c25 15 41 39 48 65l-2 1c-14 -14 -39 -25 -72 -25c-63 0 -120 43 -120 121c0 75 61 139 147 139c104 0 150 -79 150 -167c0 -80 -26 -141 -68 -179c-38 -34 -91 -51 -155 -53c-13 -1 -29 0 -39 0zM166 174
c-25 0 -45 -24 -45 -61c0 -29 15 -58 48 -58c21 0 36 11 42 22c3 5 4 13 4 27c0 37 -14 70 -49 70z" />
    <glyph glyph-name="period.inferior" unicode="&#xf6e7;" horiz-adv-x="166" 
d="M82 -152c-35 0 -60 26 -60 62c0 37 26 63 61 63c36 0 61 -25 61 -63c0 -36 -25 -62 -62 -62z" />
    <glyph glyph-name="comma.inferior" unicode="&#xf6e1;" horiz-adv-x="166" 
d="M65 -210l-70 -6c21 60 37 122 47 180l105 6c-22 -65 -48 -126 -82 -180z" />
    <glyph glyph-name="dollar.inferior" unicode="&#xf6e3;" horiz-adv-x="327" 
d="M192 -199h-63v57c-39 2 -78 12 -100 24l18 77c27 -14 60 -25 98 -25c35 0 53 12 53 32c0 19 -13 30 -61 48c-66 25 -105 52 -105 110c0 52 36 94 101 108v56h63v-51c36 -1 67 -10 86 -19l-19 -74c-15 7 -45 20 -84 20c-37 0 -47 -15 -47 -29c0 -18 12 -27 68 -48
c72 -26 98 -60 98 -113c0 -54 -38 -98 -106 -111v-62z" />
    <glyph glyph-name="cent.inferior" unicode="&#xf6df;" horiz-adv-x="311" 
d="M216 -152h-64v58c-37 6 -66 22 -88 47c-20 24 -32 58 -32 96c0 71 42 133 120 149v57h64v-54c18 -1 38 -4 54 -11l-15 -74c-14 6 -30 10 -51 10c-43 0 -69 -28 -69 -73c0 -49 33 -73 72 -73c22 0 40 3 55 9l11 -72c-15 -7 -34 -11 -57 -13v-56z" />
    <glyph glyph-name="hyphen.inferior" unicode="&#xf6e5;" horiz-adv-x="192" 
d="M18 74h156v-69h-156v69z" />
    <glyph glyph-name="parenleft.inferior" unicode="&#x208d;" horiz-adv-x="192" 
d="M106 280h73c-30 -52 -60 -134 -60 -241c0 -106 29 -184 60 -239h-73c-31 45 -69 125 -69 239c0 116 39 197 69 241z" />
    <glyph glyph-name="parenright.inferior" unicode="&#x208e;" horiz-adv-x="192" 
d="M85 -200h-73c31 55 60 135 60 240c0 106 -29 186 -60 240h73c31 -44 69 -124 69 -240c0 -113 -38 -194 -69 -240z" />
    <glyph glyph-name="zero.numerator" unicode="&#xf661;" horiz-adv-x="352" 
d="M175 260c-109 0 -155 93 -155 200c0 108 47 200 156 200c111 0 156 -94 156 -200c0 -113 -50 -200 -157 -200zM177 337c30 0 49 37 49 123c0 84 -19 123 -50 123c-30 0 -50 -38 -50 -123s19 -123 51 -123z" />
    <glyph glyph-name="one.numerator" unicode="&#xf662;" horiz-adv-x="282" 
d="M222 265h-110v299h-2l-76 -35l-16 78l108 48h96v-390z" />
    <glyph glyph-name="two.numerator" unicode="&#xf663;" horiz-adv-x="328" 
d="M13 265v56l57 56c68 66 109 102 109 146c0 32 -21 50 -56 50c-31 0 -59 -12 -79 -26l-28 73c30 22 78 40 135 40c98 0 144 -55 144 -118c0 -72 -55 -121 -111 -170l-22 -20v-2h139v-85h-288z" />
    <glyph glyph-name="three.numerator" unicode="&#xf664;" horiz-adv-x="321" 
d="M43 560l-19 71c27 16 74 29 126 29c92 0 136 -45 136 -97c0 -44 -32 -75 -77 -90v-2c51 -7 91 -42 91 -92c0 -70 -67 -119 -172 -119c-49 0 -94 11 -120 26l20 74c19 -10 56 -23 89 -23c39 0 67 20 67 48c0 34 -39 52 -82 52h-25v66h22c33 0 76 11 76 43
c0 22 -17 37 -50 37c-32 0 -63 -12 -82 -23z" />
    <glyph glyph-name="four.numerator" unicode="&#xf665;" horiz-adv-x="366" 
d="M297 265h-101v90h-179v62l158 240h122v-229h49v-73h-49v-90zM196 428v72c0 25 2 50 4 72h-3c-11 -23 -21 -43 -32 -62l-51 -81l1 -1h81z" />
    <glyph glyph-name="five.numerator" unicode="&#xf666;" horiz-adv-x="326" 
d="M281 655v-83h-147l-8 -52c6 1 17 1 23 1c35 0 76 -7 104 -28c27 -20 45 -52 45 -95c0 -76 -63 -138 -170 -138c-42 0 -87 10 -109 20l17 77c17 -8 52 -18 86 -18s72 15 72 53s-32 59 -106 59c-18 0 -36 -2 -50 -3l25 207h218z" />
    <glyph glyph-name="six.numerator" unicode="&#xf667;" horiz-adv-x="343" 
d="M278 659l1 -78c-10 1 -24 1 -37 0c-68 -5 -105 -38 -118 -82h2c18 15 46 27 78 27c69 0 118 -47 118 -124c0 -83 -65 -142 -145 -142c-106 0 -156 79 -156 169c0 74 27 134 69 173c38 35 86 53 149 56c16 2 31 2 39 1zM176 335c27 0 44 28 44 63c0 30 -14 60 -50 60
c-21 0 -38 -14 -46 -31c-1 -5 -3 -12 -3 -24c0 -34 19 -68 55 -68z" />
    <glyph glyph-name="seven.numerator" unicode="&#xf668;" horiz-adv-x="311" 
d="M20 655h278v-63l-155 -327h-107l155 305v2h-171v83z" />
    <glyph glyph-name="eight.numerator" unicode="&#xf669;" horiz-adv-x="342" 
d="M174 660c87 0 131 -48 131 -100c0 -33 -19 -66 -56 -84v-2c35 -14 71 -45 71 -95c0 -71 -59 -119 -152 -119c-102 0 -146 56 -146 108c0 47 29 77 68 95v2c-36 19 -56 51 -56 85c0 67 61 110 140 110zM173 329c26 0 45 19 45 45c0 33 -27 50 -54 58
c-26 -10 -41 -28 -41 -54s19 -49 50 -49zM170 593c-27 0 -42 -19 -42 -40c0 -23 20 -40 50 -50c19 6 34 24 34 46s-14 44 -42 44z" />
    <glyph glyph-name="nine.numerator" unicode="&#xf66a;" horiz-adv-x="338" 
d="M55 261v78c13 -1 26 -1 39 0c26 2 53 8 72 20c25 15 41 39 48 65l-2 1c-14 -14 -39 -25 -72 -25c-63 0 -120 43 -120 121c0 76 61 139 147 139c104 0 150 -79 150 -167c0 -80 -26 -141 -68 -179c-38 -34 -91 -51 -155 -53c-13 -1 -29 0 -39 0zM166 586
c-25 0 -45 -24 -45 -61c0 -29 15 -58 48 -58c21 0 36 11 42 22c3 5 4 13 4 27c0 37 -14 70 -49 70z" />
    <glyph glyph-name="period.numerator" unicode="&#xf66c;" horiz-adv-x="166" 
d="M82 260c-35 0 -60 26 -60 62c0 37 26 63 61 63c36 0 61 -25 61 -63c0 -36 -25 -62 -62 -62z" />
    <glyph glyph-name="comma.numerator" unicode="&#xf66b;" horiz-adv-x="166" 
d="M65 202l-70 -6c21 60 37 122 47 180l105 6c-22 -65 -48 -126 -82 -180z" />
    <glyph glyph-name="dollar.numerator" unicode="&#xf62f;" horiz-adv-x="327" 
d="M192 213h-63v57c-39 2 -78 12 -100 24l18 77c27 -14 60 -25 98 -25c35 0 53 12 53 32c0 19 -13 30 -61 48c-66 25 -105 52 -105 110c0 52 36 94 101 108v56h63v-51c36 -1 67 -10 86 -19l-19 -74c-15 7 -45 20 -84 20c-37 0 -47 -15 -47 -29c0 -18 12 -27 68 -48
c72 -26 98 -60 98 -113c0 -54 -38 -98 -106 -111v-62z" />
    <glyph glyph-name="cent.numerator" unicode="&#xf62e;" horiz-adv-x="311" 
d="M216 260h-64v58c-37 6 -66 22 -88 47c-20 24 -32 58 -32 96c0 71 42 133 120 149v57h64v-54c18 -1 38 -4 54 -11l-15 -74c-14 6 -30 10 -51 10c-43 0 -69 -28 -69 -73c0 -49 33 -73 72 -73c22 0 40 3 55 9l11 -72c-15 -7 -34 -11 -57 -13v-56z" />
    <glyph glyph-name="hyphen.numerator" unicode="&#xf630;" horiz-adv-x="192" 
d="M18 487h156v-69h-156v69z" />
    <glyph glyph-name="parenleft.numerator" unicode="&#xf631;" horiz-adv-x="192" 
d="M106 692h73c-30 -52 -60 -134 -60 -241c0 -106 29 -184 60 -239h-73c-31 45 -69 125 -69 239c0 116 39 197 69 241z" />
    <glyph glyph-name="parenright.numerator" unicode="&#xf632;" horiz-adv-x="192" 
d="M85 212h-73c31 55 60 135 60 240c0 106 -29 186 -60 240h73c31 -44 69 -124 69 -240c0 -113 -38 -194 -69 -240z" />
    <glyph glyph-name="zero.denominator" unicode="&#xf655;" horiz-adv-x="352" 
d="M175 -5c-109 0 -155 93 -155 200c0 108 47 200 156 200c111 0 156 -94 156 -200c0 -113 -50 -200 -157 -200zM177 72c30 0 49 37 49 123c0 84 -19 123 -50 123c-30 0 -50 -38 -50 -123s19 -123 51 -123z" />
    <glyph glyph-name="one.denominator" unicode="&#xf656;" horiz-adv-x="282" 
d="M222 0h-110v299h-2l-76 -35l-16 79l108 47h96v-390z" />
    <glyph glyph-name="two.denominator" unicode="&#xf657;" horiz-adv-x="328" 
d="M13 0v56l57 55c68 66 109 103 109 147c0 32 -21 50 -56 50c-31 0 -59 -12 -79 -26l-28 73c30 22 78 40 135 40c98 0 144 -55 144 -118c0 -72 -55 -121 -111 -170l-22 -20v-2h139v-85h-288z" />
    <glyph glyph-name="three.denominator" unicode="&#xf658;" horiz-adv-x="321" 
d="M43 295l-19 71c27 16 74 29 126 29c92 0 136 -45 136 -97c0 -44 -32 -75 -77 -90v-2c51 -7 91 -42 91 -92c0 -70 -67 -119 -172 -119c-49 0 -94 11 -120 26l20 74c19 -10 56 -23 89 -23c39 0 67 20 67 48c0 34 -39 52 -82 52h-25v66h22c33 0 76 11 76 43
c0 22 -17 37 -50 37c-32 0 -63 -12 -82 -23z" />
    <glyph glyph-name="four.denominator" unicode="&#xf659;" horiz-adv-x="366" 
d="M297 0h-101v90h-179v62l158 240h122v-229h49v-73h-49v-90zM196 163v72c0 25 2 50 4 72h-3c-11 -23 -21 -43 -32 -62l-51 -81l1 -1h81z" />
    <glyph glyph-name="five.denominator" unicode="&#xf65a;" horiz-adv-x="326" 
d="M281 389v-83h-147l-8 -51c6 1 17 1 23 1c35 0 76 -7 104 -28c27 -20 45 -52 45 -95c0 -76 -63 -138 -170 -138c-42 0 -87 10 -109 20l17 77c17 -8 52 -18 86 -18s72 15 72 53s-32 59 -106 59c-18 0 -36 -2 -50 -3l25 206h218z" />
    <glyph glyph-name="six.denominator" unicode="&#xf65b;" horiz-adv-x="343" 
d="M278 394l1 -78c-10 1 -24 1 -37 0c-68 -5 -105 -38 -118 -82h2c18 15 46 27 78 27c69 0 118 -47 118 -124c0 -83 -65 -142 -145 -142c-106 0 -156 79 -156 169c0 74 27 134 69 173c38 34 86 53 149 56c16 1 31 2 39 1zM176 70c27 0 44 28 44 63c0 30 -14 60 -50 60
c-21 0 -38 -14 -46 -31c-1 -5 -3 -12 -3 -24c0 -34 19 -68 55 -68z" />
    <glyph glyph-name="seven.denominator" unicode="&#xf65c;" horiz-adv-x="311" 
d="M20 389h278v-63l-155 -326h-107l155 305v1h-171v83z" />
    <glyph glyph-name="eight.denominator" unicode="&#xf65d;" horiz-adv-x="342" 
d="M174 395c87 0 131 -48 131 -100c0 -33 -19 -66 -56 -84v-2c35 -14 71 -45 71 -95c0 -71 -59 -119 -152 -119c-102 0 -146 56 -146 108c0 47 29 77 68 95v2c-36 19 -56 51 -56 85c0 67 61 110 140 110zM173 64c26 0 45 19 45 45c0 33 -27 50 -54 58
c-26 -10 -41 -28 -41 -54s19 -49 50 -49zM170 328c-27 0 -42 -19 -42 -40c0 -23 20 -40 50 -50c19 6 34 24 34 46s-14 44 -42 44z" />
    <glyph glyph-name="nine.denominator" unicode="&#xf65e;" horiz-adv-x="338" 
d="M55 -4v78c13 -1 26 -1 39 0c26 2 53 8 72 20c25 15 41 39 48 65l-2 1c-14 -14 -39 -25 -72 -25c-63 0 -120 43 -120 121c0 76 61 139 147 139c104 0 150 -79 150 -167c0 -80 -26 -141 -68 -179c-38 -34 -91 -51 -155 -53c-13 -1 -29 0 -39 0zM166 321
c-25 0 -45 -24 -45 -61c0 -29 15 -58 48 -58c21 0 36 11 42 22c3 5 4 13 4 27c0 37 -14 70 -49 70z" />
    <glyph glyph-name="period.denominator" unicode="&#xf660;" horiz-adv-x="166" 
d="M82 -5c-35 0 -60 26 -60 62c0 37 26 63 61 63c36 0 61 -25 61 -63c0 -36 -25 -62 -62 -62z" />
    <glyph glyph-name="comma.denominator" unicode="&#xf65f;" horiz-adv-x="166" 
d="M65 -63l-70 -6c21 60 37 122 47 180l105 6c-22 -65 -48 -126 -82 -180z" />
    <glyph glyph-name="dollar.denominator" unicode="&#xf62a;" horiz-adv-x="327" 
d="M192 -52h-63v57c-39 2 -78 12 -100 24l18 77c27 -14 60 -25 98 -25c35 0 53 12 53 32c0 19 -13 30 -61 48c-66 25 -105 52 -105 110c0 52 36 94 101 108v56h63v-51c36 -1 67 -10 86 -19l-19 -74c-15 7 -45 20 -84 20c-37 0 -47 -15 -47 -29c0 -18 12 -27 68 -48
c72 -26 98 -60 98 -113c0 -54 -38 -98 -106 -111v-62z" />
    <glyph glyph-name="cent.denominator" unicode="&#xf629;" horiz-adv-x="311" 
d="M216 -5h-64v58c-37 6 -66 22 -88 47c-20 24 -32 58 -32 96c0 71 42 133 120 149v57h64v-54c18 -1 38 -4 54 -11l-15 -74c-14 6 -30 10 -51 10c-43 0 -69 -28 -69 -73c0 -49 33 -73 72 -73c22 0 40 3 55 9l11 -72c-15 -7 -34 -11 -57 -13v-56z" />
    <glyph glyph-name="hyphen.denominator" unicode="&#xf62b;" horiz-adv-x="192" 
d="M18 221h156v-69h-156v69z" />
    <glyph glyph-name="parenleft.denominator" unicode="&#xf62c;" horiz-adv-x="192" 
d="M106 427h73c-30 -52 -60 -134 -60 -241c0 -106 29 -184 60 -239h-73c-31 45 -69 125 -69 239c0 116 39 197 69 241z" />
    <glyph glyph-name="parenright.denominator" unicode="&#xf62d;" horiz-adv-x="192" 
d="M85 -53h-73c31 55 60 135 60 240c0 106 -29 186 -60 240h73c31 -44 69 -124 69 -240c0 -113 -38 -194 -69 -240z" />
    <glyph glyph-name="at.cap" unicode="&#xf633;" horiz-adv-x="725" 
d="M414 337l18 106c-8 2 -18 4 -30 4c-60 0 -112 -69 -112 -153c0 -37 15 -60 45 -60c35 0 71 48 79 103zM498 80l16 -53c-57 -28 -108 -37 -175 -37c-154 0 -294 114 -294 310c0 203 143 384 359 384c171 0 282 -122 282 -279c0 -155 -76 -248 -180 -248
c-48 0 -78 27 -82 79h-2c-29 -51 -73 -79 -124 -79c-61 0 -104 48 -104 127c0 124 87 236 226 236c41 0 87 -10 111 -23l-31 -185c-11 -63 -3 -92 26 -92c42 -1 92 57 92 178c0 130 -76 230 -225 230c-146 0 -278 -125 -278 -321c0 -169 102 -260 242 -260
c50 0 101 11 141 33z" />
    <glyph glyph-name="emdash.cap" unicode="&#xf6bc;" horiz-adv-x="1000" 
d="M30 377h940v-92h-940v92z" />
    <glyph glyph-name="endash.cap" unicode="&#xf6bb;" horiz-adv-x="500" 
d="M30 377h440v-92h-440v92z" />
    <glyph glyph-name="exclamdown.cap" unicode="&#xf6b4;" horiz-adv-x="258" 
d="M206 0h-154l20 453h114zM130 685c49 0 84 -36 84 -88c0 -51 -33 -88 -85 -88c-50 0 -85 37 -85 88c0 52 36 88 86 88z" />
    <glyph glyph-name="guillemotleft.cap" unicode="&#xf6b6;" horiz-adv-x="440" 
d="M238 516l-116 -189l116 -189h-102l-113 189l112 189h103zM422 516l-116 -189l116 -189h-102l-113 189l112 189h103z" />
    <glyph glyph-name="guillemotright.cap" unicode="&#xf6b7;" horiz-adv-x="440" 
d="M134 327l-116 189h101l114 -189l-113 -189h-102zM316 327l-116 189h101l114 -189l-113 -189h-102z" />
    <glyph glyph-name="guilsinglleft.cap" unicode="&#xf6b8;" horiz-adv-x="255" 
d="M238 516l-116 -189l116 -189h-102l-113 189l112 189h103z" />
    <glyph glyph-name="guilsinglright.cap" unicode="&#xf6b9;" horiz-adv-x="255" 
d="M133 327l-116 189h101l114 -189l-113 -189h-102z" />
    <glyph glyph-name="hyphen.cap" unicode="&#xf6ba;" horiz-adv-x="303" 
d="M30 391h243v-99h-243v99z" />
    <glyph glyph-name="questiondown.cap" unicode="&#xf6b5;" horiz-adv-x="412" 
d="M232 685c49 0 83 -36 83 -88c0 -51 -33 -88 -84 -88c-50 0 -85 37 -85 88c0 52 36 88 86 88zM166 459h126l2 -23c4 -54 -15 -106 -58 -162c-31 -40 -53 -72 -53 -107s23 -59 71 -60c30 0 64 9 89 26l29 -106c-31 -19 -87 -38 -151 -38c-132 0 -186 77 -186 155
c0 74 45 127 82 172c34 41 49 78 49 124v19z" />
    <glyph glyph-name="braceleft.cap" unicode="&#xf6b2;" horiz-adv-x="297" 
d="M24 288v77c64 2 73 36 73 65c0 25 -3 51 -5 77c-3 27 -6 54 -6 80c0 94 58 137 152 137h30v-83h-17c-43 -2 -59 -28 -59 -70c0 -19 2 -39 4 -59c3 -21 5 -43 5 -66c1 -72 -28 -105 -82 -118v-2c54 -13 83 -45 82 -118c0 -25 -2 -47 -4 -68c-3 -21 -5 -40 -5 -58
c0 -43 14 -70 60 -72h16v-83h-31c-88 0 -151 36 -151 139c0 25 3 52 5 79c3 27 6 53 6 78c0 27 -9 63 -73 65z" />
    <glyph glyph-name="braceright.cap" unicode="&#xf6b3;" horiz-adv-x="297" 
d="M273 365v-77c-64 -2 -73 -38 -73 -65c0 -25 3 -51 6 -78s6 -54 6 -79c0 -103 -63 -139 -151 -139h-31v83h16c46 2 60 29 60 72c0 18 -2 37 -5 58s-5 43 -5 68c-1 73 28 105 82 118v2c-54 13 -83 46 -82 118c0 23 2 45 6 66c2 20 4 40 4 59c0 42 -16 68 -59 70h-17v83h30
c94 0 152 -43 152 -137c0 -26 -3 -53 -6 -80c-3 -26 -6 -52 -6 -77c0 -29 9 -63 73 -65z" />
    <glyph glyph-name="bracketleft.cap" unicode="&#xf6b0;" horiz-adv-x="297" 
d="M261 -73h-198v798h198v-84h-92v-630h92v-84z" />
    <glyph glyph-name="bracketright.cap" unicode="&#xf6b1;" horiz-adv-x="297" 
d="M36 725h198v-798h-198v84h92v630h-92v84z" />
    <glyph glyph-name="parenleft.cap" unicode="&#xf6ae;" horiz-adv-x="297" 
d="M165 730h103c-57 -92 -103 -224 -103 -406c0 -177 46 -310 103 -403h-103c-54 77 -114 211 -114 404c2 194 60 328 114 405z" />
    <glyph glyph-name="parenright.cap" unicode="&#xf6af;" horiz-adv-x="297" 
d="M132 -79h-103c57 92 103 227 103 406c0 178 -46 310 -103 403h103c54 -76 114 -208 114 -404c-2 -195 -60 -327 -114 -405z" />
    <glyph glyph-name="periodcentered.cap" unicode="&#xf6bd;" horiz-adv-x="252" 
d="M125 247c-48 0 -84 37 -84 90s37 91 86 91s85 -36 85 -91c0 -53 -34 -90 -87 -90z" />
    <glyph glyph-name="lessequal" unicode="&#x2264;" horiz-adv-x="596" 
d="M537 116l-478 178v88l478 178v-98l-354 -123v-2l354 -124v-97zM537 0h-477v84h477v-84z" />
    <glyph glyph-name="greaterequal" unicode="&#x2265;" horiz-adv-x="596" 
d="M537 294l-478 -178v97l354 124v2l-354 123v98l478 -178v-88zM536 0h-477v84h477v-84z" />
    <glyph glyph-name="approxequal" unicode="&#x2248;" horiz-adv-x="596" 
d="M524 431l51 -61c-34 -49 -93 -90 -160 -90c-56 0 -93 22 -125 36c-30 13 -62 34 -111 34c-48 0 -88 -33 -113 -61l-47 63c34 45 92 88 161 88c57 0 92 -22 124 -36c30 -13 62 -34 110 -34c49 0 89 37 110 61zM528 220l49 -59c-34 -51 -94 -92 -161 -92
c-55 0 -92 22 -124 36c-30 13 -62 34 -112 34c-46 0 -87 -33 -112 -61l-47 64c34 46 94 87 160 87c57 0 93 -22 125 -36c30 -13 62 -34 110 -34c49 0 89 33 112 61z" />
    <glyph glyph-name="notequal" unicode="&#x2260;" horiz-adv-x="596" 
d="M556 117h-309l-64 -103h-94l66 103h-115v90h173l76 121h-249v90h307l64 103h94l-66 -103h117v-90h-175l-77 -121h252v-90z" />
    <glyph glyph-name="infinity" unicode="&#x221e;" horiz-adv-x="750" 
d="M553 99c-73 0 -131 55 -179 103c-51 -48 -101 -103 -187 -103c-94 0 -159 71 -159 164c0 88 67 166 167 166c74 0 132 -55 180 -103c51 48 101 103 187 103c94 0 159 -71 159 -166c0 -86 -67 -164 -168 -164zM552 188c42 0 74 34 74 75c0 45 -31 77 -72 77
c-47 0 -86 -41 -120 -76c32 -30 69 -76 118 -76zM196 188c46 0 85 40 119 74c-32 31 -69 78 -117 78c-43 0 -75 -35 -75 -77c0 -44 31 -75 73 -75z" />
    <glyph glyph-name="lozenge" unicode="&#x25ca;" horiz-adv-x="551" 
d="M512 324l-184 -359h-105l-184 359l184 360h105zM396 322l-108 225c-5 8 -10 21 -13 31h-2c-4 -10 -10 -23 -14 -31l-104 -220l108 -225c4 -9 10 -22 13 -31h2c4 9 10 22 14 31z" />
    <glyph glyph-name="integral" unicode="&#x222b;" horiz-adv-x="354" 
d="M342 800l-14 -88c-9 2 -21 4 -34 4c-19 0 -35 -10 -45 -28c-14 -23 -20 -68 -20 -148c0 -152 13 -276 13 -445c0 -85 -10 -148 -32 -186c-28 -53 -75 -73 -126 -73c-29 0 -55 5 -68 11l17 91c8 -3 22 -5 35 -5c16 0 31 7 41 21c14 20 23 58 23 136c0 173 -13 300 -13 460
c0 109 18 168 58 212c28 32 69 45 109 45c23 0 44 -4 56 -7z" />
    <glyph glyph-name="partialdiff" unicode="&#x2202;" horiz-adv-x="375" 
d="M87 580l-42 98c30 20 92 54 183 54c154 0 280 -132 280 -354c0 -259 -130 -388 -280 -388c-139 0 -207 112 -207 220c0 145 87 249 211 249c69 0 112 -37 132 -66h1v15c0 124 -65 205 -158 205c-59 0 -100 -20 -120 -33zM244 107c57 0 101 86 108 174
c-10 30 -41 65 -86 65c-58 0 -99 -63 -99 -140c0 -65 33 -99 77 -99z" />
    <glyph glyph-name="product" unicode="&#x220f;" horiz-adv-x="613" 
d="M601 528h-84v-618h-135v618h-155v-618h-135v618h-84v122h593v-122z" />
    <glyph glyph-name="radical" unicode="&#x221a;" horiz-adv-x="574" 
d="M586 838l-216 -917h-98l-148 410l-77 -29l-23 66l171 68l97 -293c10 -31 19 -64 24 -86h1c4 21 9 55 17 90l154 691h98z" />
    <glyph glyph-name="summation" unicode="&#x2211;" horiz-adv-x="504" 
d="M497 -90h-483v84l200 285l-191 277v94h453v-121h-270v-4l161 -240l-173 -250v-4h303v-121z" />
    <glyph glyph-name="Delta" unicode="&#x2206;" horiz-adv-x="578" 
d="M543 0h-508v73l172 579h171l165 -578v-74zM391 120l-65 234c-12 49 -30 128 -39 171h-3c-8 -37 -25 -113 -37 -162l-67 -243h211z" />
    <glyph glyph-name="Omega" unicode="&#x2126;" horiz-adv-x="681" 
d="M528 116v-3h122v-113h-272v86c57 49 109 139 109 266c0 113 -52 213 -145 213c-91 0 -148 -96 -148 -214c0 -114 52 -222 110 -265v-86h-273v113h120v3c-52 51 -108 139 -109 256c0 173 122 312 304 312c193 0 291 -151 291 -302c0 -125 -60 -215 -109 -266z" />
    <glyph glyph-name="pi" unicode="&#x3c0;" horiz-adv-x="561" 
d="M533 377h-55v-235c0 -63 5 -112 11 -142h-138c-12 19 -17 76 -17 135v242h-95c-2 -107 -21 -288 -53 -377h-139c30 104 52 274 51 377c-28 0 -57 -2 -79 -6l-16 86c22 19 78 32 169 32h374z" />
    <glyph glyph-name="aringacute" unicode="&#x1fb;" horiz-adv-x="496" 
d="M293 851h133l-138 -112h-98zM440 290v-173c0 -44 2 -88 8 -117h-131l-8 49h-3c-30 -39 -77 -59 -131 -59c-92 0 -149 69 -149 149c0 128 114 186 268 186v8c0 30 -16 64 -83 64c-47 0 -93 -15 -125 -34l-26 94c32 18 95 42 179 42c158 0 201 -98 201 -209zM298 170l1 63
c-69 0 -131 -18 -131 -79c0 -41 26 -60 57 -60c32 0 61 21 71 52c2 7 2 16 2 24zM250 524c-71 0 -112 41 -112 94c0 54 39 98 113 98c71 0 108 -41 108 -96s-41 -96 -109 -96zM248 572c31 0 45 24 45 48s-13 48 -45 48c-29 0 -43 -26 -43 -49c0 -21 15 -47 43 -47z" />
    <glyph glyph-name="Abreve" unicode="&#x102;" horiz-adv-x="597" 
d="M377 167h-172l-42 -167h-148l188 674h186l186 -674h-153zM225 277h133l-36 143c-10 40 -21 96 -30 137h-3c-9 -41 -19 -98 -28 -137zM162 831h78c2 -23 18 -45 57 -45c38 0 55 20 59 45h75c-1 -72 -43 -123 -134 -123c-93 0 -134 51 -135 123z" />
    <glyph glyph-name="Amacron" unicode="&#x100;" horiz-adv-x="597" 
d="M377 167h-172l-42 -167h-148l188 674h186l186 -674h-153zM225 277h133l-36 143c-10 40 -21 96 -30 137h-3c-9 -41 -19 -98 -28 -137zM169 815h252v-80h-252v80z" />
    <glyph glyph-name="Aogonek" unicode="&#x104;" horiz-adv-x="597" 
d="M389 674l186 -674h-71c-11 -19 -25 -46 -25 -72c0 -30 22 -52 50 -52c18 0 32 3 42 7l20 -69c-28 -20 -67 -29 -98 -29c-68 0 -108 36 -108 103c0 47 26 94 37 113l-45 166h-172l-42 -167h-148l187 674h187zM225 277h133l-36 143c-10 40 -21 96 -31 137h-2
c-9 -41 -19 -98 -29 -137z" />
    <glyph glyph-name="i.dot" horiz-adv-x="259" 
d="M202 0h-146v489h146v-489zM129 698c45 0 75 -31 76 -75c0 -42 -31 -74 -78 -74c-45 0 -75 32 -75 74c0 44 31 75 77 75z" />
    <glyph glyph-name="Cacute" unicode="&#x106;" horiz-adv-x="535" 
d="M487 133l20 -117c-25 -12 -81 -25 -151 -25c-215 0 -324 145 -324 336c0 237 158 356 339 356c70 0 121 -14 144 -26l-29 -118c-25 12 -61 22 -107 22c-107 0 -193 -71 -193 -225c0 -143 74 -221 193 -221c39 0 82 8 108 18zM347 831h152l-123 -120h-113z" />
    <glyph glyph-name="Ccaron" unicode="&#x10c;" horiz-adv-x="535" 
d="M487 133l20 -117c-25 -12 -81 -25 -151 -25c-215 0 -324 145 -324 336c0 237 158 356 339 356c70 0 121 -14 144 -26l-29 -118c-25 12 -61 22 -107 22c-107 0 -193 -71 -193 -225c0 -143 74 -221 193 -221c39 0 82 8 108 18zM387 710h-111l-96 119h104l46 -59h2l47 59
h102z" />
    <glyph glyph-name="Ccircumflex" unicode="&#x108;" horiz-adv-x="535" 
d="M487 133l20 -117c-25 -12 -81 -25 -151 -25c-215 0 -324 145 -324 336c0 237 158 356 339 356c70 0 121 -14 144 -26l-29 -118c-25 12 -61 22 -107 22c-107 0 -193 -71 -193 -225c0 -143 74 -221 193 -221c39 0 82 8 108 18zM270 831h111l96 -119h-104l-46 59h-2l-47 -59
h-102z" />
    <glyph glyph-name="Cdotaccent" unicode="&#x10a;" horiz-adv-x="535" 
d="M487 133l20 -117c-25 -12 -81 -25 -151 -25c-215 0 -324 145 -324 336c0 237 158 356 339 356c70 0 121 -14 144 -26l-29 -118c-25 12 -61 22 -107 22c-107 0 -193 -71 -193 -225c0 -143 74 -221 193 -221c39 0 82 8 108 18zM327 713c-37 0 -67 31 -67 67
c0 38 30 67 68 67c37 0 66 -29 66 -67c0 -36 -29 -67 -67 -67z" />
    <glyph glyph-name="Dcaron" unicode="&#x10e;" horiz-adv-x="635" 
d="M64 2v663c49 9 115 14 184 14c115 0 191 -22 249 -69c66 -52 106 -136 106 -259c0 -132 -43 -223 -106 -277c-64 -55 -159 -81 -279 -81c-68 0 -120 5 -154 9zM210 560v-449c11 -2 29 -2 44 -2c115 -1 195 71 195 240c0 140 -68 216 -183 216c-26 0 -44 -2 -56 -5z
M347 710h-111l-96 119h104l46 -59h2l47 59h102z" />
    <glyph glyph-name="Ebreve" unicode="&#x114;" horiz-adv-x="492" 
d="M430 408v-119h-220v-168h246v-121h-392v674h378v-121h-232v-145h220zM121 834h78c2 -23 18 -45 57 -45c38 0 55 20 59 45h75c-1 -72 -43 -123 -134 -123c-93 0 -134 51 -135 123z" />
    <glyph glyph-name="Ecaron" unicode="&#x11a;" horiz-adv-x="492" 
d="M430 408v-119h-220v-168h246v-121h-392v674h378v-121h-232v-145h220zM307 710h-111l-96 119h104l46 -59h2l47 59h102z" />
    <glyph glyph-name="Edotaccent" unicode="&#x116;" horiz-adv-x="492" 
d="M430 408v-119h-220v-168h246v-121h-392v674h378v-121h-232v-145h220zM248 714c-37 0 -67 31 -67 67c0 38 30 67 68 67c37 0 66 -29 66 -67c0 -36 -29 -67 -67 -67z" />
    <glyph glyph-name="Emacron" unicode="&#x112;" horiz-adv-x="492" 
d="M430 408v-119h-220v-168h246v-121h-392v674h378v-121h-232v-145h220zM124 815h252v-80h-252v80z" />
    <glyph glyph-name="Eogonek" unicode="&#x118;" horiz-adv-x="492" 
d="M446 -116l19 -70c-29 -20 -65 -29 -104 -29c-62 0 -99 34 -99 91c0 53 36 98 69 124h-267v674h378v-121h-232v-145h220v-119h-220v-168h246v-121h-23c-34 -24 -66 -60 -66 -91c0 -21 16 -32 37 -32c15 0 29 2 42 7z" />
    <glyph glyph-name="Gbreve" unicode="&#x11e;" horiz-adv-x="619" 
d="M570 383v-356c-42 -15 -122 -34 -199 -34c-110 0 -189 28 -246 83c-61 58 -94 150 -93 254c2 232 158 351 355 351c77 0 135 -15 164 -29l-29 -119c-32 14 -71 25 -132 25c-116 0 -205 -69 -205 -225c0 -146 80 -221 186 -221c28 0 50 3 60 8v148h-91v115h230zM212 836
h78c2 -23 18 -45 57 -45c38 0 55 20 59 45h75c-1 -72 -43 -123 -134 -123c-93 0 -134 51 -135 123z" />
    <glyph glyph-name="Gcircumflex" unicode="&#x11c;" horiz-adv-x="619" 
d="M570 383v-356c-42 -15 -122 -34 -199 -34c-110 0 -189 28 -246 83c-61 58 -94 150 -93 254c2 232 158 351 355 351c77 0 135 -15 164 -29l-29 -119c-32 14 -71 25 -132 25c-116 0 -205 -69 -205 -225c0 -146 80 -221 186 -221c28 0 50 3 60 8v148h-91v115h230zM287 831
h110l96 -119h-104l-46 59h-2l-47 -59h-102z" />
    <glyph glyph-name="Gcommaaccent" unicode="&#x122;" horiz-adv-x="619" 
d="M570 383v-356c-42 -15 -122 -34 -199 -34c-110 0 -189 28 -246 83c-61 58 -94 150 -93 254c2 232 158 351 355 351c77 0 135 -15 164 -29l-29 -119c-32 14 -71 25 -132 25c-116 0 -205 -69 -205 -225c0 -146 80 -221 186 -221c28 0 50 3 60 8v148h-91v115h230zM263 -236
l-22 63c31 7 63 26 63 58c0 23 -17 46 -30 60l103 16c19 -14 38 -41 38 -77c0 -79 -69 -116 -152 -120z" />
    <glyph glyph-name="Gdotaccent" unicode="&#x120;" horiz-adv-x="619" 
d="M570 383v-356c-42 -15 -122 -34 -199 -34c-110 0 -189 28 -246 83c-61 58 -94 150 -93 254c2 232 158 351 355 351c77 0 135 -15 164 -29l-29 -119c-32 14 -71 25 -132 25c-116 0 -205 -69 -205 -225c0 -146 80 -221 186 -221c28 0 50 3 60 8v148h-91v115h230zM344 713
c-37 0 -67 31 -67 67c0 38 30 67 68 67c37 0 66 -29 66 -67c0 -36 -29 -67 -67 -67z" />
    <glyph glyph-name="G_tildecomb" unicode="&#xe000;" horiz-adv-x="619" 
d="M570 383v-356c-42 -15 -122 -34 -199 -34c-110 0 -189 28 -246 83c-61 58 -94 150 -93 254c2 232 158 351 355 351c77 0 135 -15 164 -29l-29 -119c-32 14 -71 25 -132 25c-116 0 -205 -69 -205 -225c0 -146 80 -221 186 -221c28 0 50 3 60 8v148h-91v115h230zM287 715
h-67c-2 82 28 124 74 124c25 0 43 -9 60 -18c16 -10 30 -19 42 -19c16 0 22 9 26 41h65c2 -87 -26 -121 -76 -121c-25 0 -44 8 -61 17c-16 9 -27 17 -40 17c-12 0 -21 -13 -23 -41z" />
    <glyph glyph-name="Hcircumflex" unicode="&#x124;" horiz-adv-x="637" 
d="M64 674h146v-263h217v263h146v-674h-146v282h-217v-282h-146v674zM262 829h111l96 -119h-104l-46 59h-2l-47 -59h-102z" />
    <glyph glyph-name="Ibreve" unicode="&#x12c;" horiz-adv-x="274" 
d="M64 674h146v-674h-146v674zM2 836h78c2 -23 18 -45 57 -45c38 0 55 20 59 45h75c-1 -72 -43 -123 -134 -123c-93 0 -134 51 -135 123z" />
    <glyph glyph-name="Idotaccent" unicode="&#x130;" horiz-adv-x="274" 
d="M64 674h146v-674h-146v674zM137 714c-37 0 -67 31 -67 67c0 38 30 67 68 67c37 0 66 -29 66 -67c0 -36 -29 -67 -67 -67z" />
    <glyph glyph-name="Imacron" unicode="&#x12a;" horiz-adv-x="274" 
d="M64 674h146v-674h-146v674zM12 815h252v-80h-252v80z" />
    <glyph glyph-name="Iogonek" unicode="&#x12e;" horiz-adv-x="274" 
d="M210 674v-674h-63c-11 -19 -23 -46 -23 -71c0 -33 22 -53 50 -53c19 0 33 3 42 7l20 -69c-28 -21 -67 -30 -98 -30c-68 0 -108 36 -108 102c0 49 25 95 34 114v674h146z" />
    <glyph glyph-name="Itilde" unicode="&#x128;" horiz-adv-x="274" 
d="M64 674h146v-674h-146v674zM70 715h-67c-2 82 28 124 74 124c26 0 44 -9 61 -18c16 -10 30 -19 42 -19c16 0 22 9 26 41h65c2 -87 -26 -121 -76 -121c-25 0 -45 8 -61 17c-17 9 -28 17 -41 17c-12 0 -21 -13 -23 -41z" />
    <glyph glyph-name="Jcircumflex" unicode="&#x134;" horiz-adv-x="376" 
d="M173 237v437h146v-436c0 -192 -92 -248 -225 -248c-32 0 -72 5 -97 14l15 119c18 -6 41 -10 67 -10c56 0 94 25 94 124zM189 829h110l96 -119h-104l-46 59h-2l-47 -59h-102z" />
    <glyph glyph-name="Kcommaaccent" unicode="&#x136;" horiz-adv-x="568" 
d="M64 0v674h145v-300h3c13 27 27 53 42 78l133 222h175l-202 -289l211 -385h-167l-146 287l-49 -66v-221h-145zM221 -235l-22 63c30 7 63 26 63 58c0 23 -17 46 -30 60l103 16c19 -14 38 -41 38 -77c0 -79 -69 -116 -152 -120z" />
    <glyph glyph-name="Lacute" unicode="&#x139;" horiz-adv-x="471" 
d="M64 0v674h146v-551h239v-123h-385zM163 830h152l-123 -120h-113z" />
    <glyph glyph-name="Lcaron" unicode="&#x13d;" horiz-adv-x="471" 
d="M64 0v674h146v-551h239v-123h-385zM277 487l-22 63c30 7 63 26 63 58c0 23 -17 46 -30 60l103 16c19 -14 38 -41 38 -77c0 -79 -69 -116 -152 -120z" />
    <glyph glyph-name="Lcommaaccent" unicode="&#x13b;" horiz-adv-x="471" 
d="M64 0v674h146v-551h239v-123h-385zM171 -236l-22 63c30 7 63 26 63 58c0 23 -17 46 -30 60l103 16c19 -14 38 -41 38 -77c0 -79 -69 -116 -152 -120z" />
    <glyph glyph-name="Ldot" unicode="&#x13f;" horiz-adv-x="471" 
d="M64 0v674h146v-551h239v-123h-385zM356 307c-37 0 -67 31 -67 67c0 38 30 67 68 67c37 0 66 -29 66 -67c0 -36 -29 -67 -67 -67z" />
    <glyph glyph-name="M_uni0302" unicode="&#xe001;" horiz-adv-x="783" 
d="M597 0l-11 251c-3 77 -6 171 -6 262h-2c-19 -82 -44 -174 -66 -246l-75 -256h-111l-67 254c-20 72 -41 164 -55 248h-3c-2 -86 -7 -185 -10 -264l-13 -249h-132l45 674h183l62 -231c21 -79 41 -161 55 -239h3c16 77 36 162 57 240l66 230h181l38 -674h-139zM335 829h111
l96 -119h-104l-46 59h-2l-47 -59h-102z" />
    <glyph glyph-name="Nacute" unicode="&#x143;" horiz-adv-x="638" 
d="M196 0h-132v674h160l129 -252c35 -65 72 -150 99 -221h3c-8 84 -13 182 -13 291v182h132v-674h-147l-132 259c-36 68 -76 154 -103 227h-3c4 -83 7 -181 7 -299v-187zM333 830h152l-123 -120h-113z" />
    <glyph glyph-name="Ncaron" unicode="&#x147;" horiz-adv-x="638" 
d="M196 0h-132v674h160l129 -252c35 -65 72 -150 99 -221h3c-8 84 -13 182 -13 291v182h132v-674h-147l-132 259c-36 68 -76 154 -103 227h-3c4 -83 7 -181 7 -299v-187zM377 709h-110l-96 119h104l46 -59h2l47 59h102z" />
    <glyph glyph-name="N_uni0302" unicode="&#xe002;" horiz-adv-x="638" 
d="M196 0h-132v674h160l129 -252c35 -65 72 -150 99 -221h3c-8 84 -13 182 -13 291v182h132v-674h-147l-132 259c-36 68 -76 154 -103 227h-3c4 -83 7 -181 7 -299v-187zM263 829h111l96 -119h-104l-46 59h-2l-47 -59h-102z" />
    <glyph glyph-name="Ncommaaccent" unicode="&#x145;" horiz-adv-x="638" 
d="M196 0h-132v674h160l129 -252c35 -65 72 -150 99 -221h3c-8 84 -13 182 -13 291v182h132v-674h-147l-132 259c-36 68 -76 154 -103 227h-3c4 -83 7 -181 7 -299v-187zM251 -233l-21 63c30 7 63 26 63 58c0 23 -17 46 -30 60l103 16c19 -14 38 -41 38 -77
c0 -79 -69 -116 -153 -120z" />
    <glyph glyph-name="Obreve" unicode="&#x14e;" horiz-adv-x="646" 
d="M328 684c194 0 287 -162 287 -339c0 -231 -121 -355 -297 -355c-185 0 -286 154 -286 344c0 197 113 350 296 350zM324 565c-87 0 -138 -94 -138 -229c0 -138 52 -227 139 -227c89 0 136 98 136 231c0 120 -45 225 -137 225zM188 839h78c2 -23 18 -45 57 -45
c38 0 55 20 59 45h75c-1 -72 -43 -123 -134 -123c-93 0 -134 51 -135 123z" />
    <glyph glyph-name="Ohungarumlaut" unicode="&#x150;" horiz-adv-x="646" 
d="M328 684c194 0 287 -162 287 -339c0 -231 -121 -355 -297 -355c-185 0 -286 154 -286 344c0 197 113 350 296 350zM324 565c-87 0 -138 -94 -138 -229c0 -138 52 -227 139 -227c89 0 136 98 136 231c0 120 -45 225 -137 225zM255 831h131l-99 -114h-95zM426 831h131
l-99 -114h-95z" />
    <glyph glyph-name="Omacron" unicode="&#x14c;" horiz-adv-x="646" 
d="M328 684c194 0 287 -162 287 -339c0 -231 -121 -355 -297 -355c-185 0 -286 154 -286 344c0 197 113 350 296 350zM324 565c-87 0 -138 -94 -138 -229c0 -138 52 -227 139 -227c89 0 136 98 136 231c0 120 -45 225 -137 225zM198 816h252v-80h-252v80z" />
    <glyph glyph-name="Oslashacute" unicode="&#x1fe;" horiz-adv-x="646" 
d="M140 -61l-77 56l52 87c-55 64 -83 155 -83 255c0 193 112 347 293 347c49 0 94 -11 133 -32l48 78l81 -50l-52 -88c54 -64 79 -157 79 -248c0 -231 -122 -354 -290 -354c-49 0 -94 11 -132 33zM198 220l195 321c-18 17 -42 26 -69 26c-92 0 -147 -91 -147 -229
c0 -42 6 -79 20 -118h1zM450 451l-194 -318c17 -17 41 -26 68 -26c90 0 145 90 145 233c0 36 -5 73 -17 110zM338 834h152l-123 -120h-113z" />
    <glyph glyph-name="Racute" unicode="&#x154;" horiz-adv-x="556" 
d="M64 0v665c47 8 113 14 185 14c91 0 160 -14 206 -52c41 -34 60 -81 60 -142c0 -81 -53 -142 -115 -166v-3c47 -19 72 -63 88 -128c19 -76 38 -162 51 -188h-150c-10 19 -26 78 -43 158c-16 85 -43 108 -99 108h-38v-266h-145zM209 564v-191h49c70 0 111 41 111 100
c0 61 -36 95 -103 96c-29 0 -47 -2 -57 -5zM282 831h152l-123 -120h-113z" />
    <glyph glyph-name="Rcaron" unicode="&#x158;" horiz-adv-x="556" 
d="M64 0v665c47 8 113 14 185 14c91 0 160 -14 206 -52c41 -34 60 -81 60 -142c0 -81 -53 -142 -115 -166v-3c47 -19 72 -63 88 -128c19 -76 38 -162 51 -188h-150c-10 19 -26 78 -43 158c-16 85 -43 108 -99 108h-38v-266h-145zM209 564v-191h49c70 0 111 41 111 100
c0 61 -36 95 -103 96c-29 0 -47 -2 -57 -5zM329 710h-111l-96 119h104l46 -59h2l47 59h102z" />
    <glyph glyph-name="Rcommaaccent" unicode="&#x156;" horiz-adv-x="556" 
d="M64 0v665c47 8 113 14 185 14c91 0 160 -14 206 -52c41 -34 60 -81 60 -142c0 -81 -53 -142 -115 -166v-3c47 -19 72 -63 88 -128c19 -76 38 -162 51 -188h-150c-10 19 -26 78 -43 158c-16 85 -43 108 -99 108h-38v-266h-145zM209 564v-191h49c70 0 111 41 111 100
c0 61 -36 95 -103 96c-29 0 -47 -2 -57 -5zM211 -234l-22 63c30 7 63 26 63 58c0 23 -17 46 -30 60l103 16c19 -14 38 -41 38 -77c0 -79 -69 -116 -152 -120z" />
    <glyph glyph-name="Sacute" unicode="&#x15a;" horiz-adv-x="496" 
d="M36 28l27 122c37 -19 95 -37 152 -37c67 0 102 30 102 74s-32 68 -105 99c-106 45 -168 109 -168 196c0 113 89 201 242 201c67 0 118 -14 152 -31l-30 -119c-24 12 -67 29 -124 29c-63 0 -93 -32 -93 -66c0 -43 32 -62 115 -98c110 -48 158 -111 158 -199
c0 -116 -87 -208 -256 -208c-70 0 -139 19 -172 37zM272 831h152l-123 -120h-113z" />
    <glyph glyph-name="Scedilla" unicode="&#x15e;" horiz-adv-x="496" 
d="M36 28l27 122c37 -19 95 -37 152 -37c67 0 102 30 102 74s-32 68 -105 99c-106 45 -168 109 -168 196c0 113 89 201 242 201c67 0 118 -14 152 -31l-30 -119c-24 12 -67 29 -124 29c-63 0 -93 -32 -93 -66c0 -43 32 -62 115 -98c110 -48 158 -111 158 -199
c0 -96 -60 -175 -178 -200l-23 -43c38 -5 71 -33 71 -71c0 -66 -57 -89 -118 -89c-31 0 -59 8 -79 19l20 57c17 -10 38 -16 54 -16c17 0 34 7 34 25c0 20 -23 33 -74 37l35 73h-3c-57 0 -129 17 -167 37z" />
    <glyph glyph-name="Scircumflex" unicode="&#x15c;" horiz-adv-x="496" 
d="M36 28l27 122c37 -19 95 -37 152 -37c67 0 102 30 102 74s-32 68 -105 99c-106 45 -168 109 -168 196c0 113 89 201 242 201c67 0 118 -14 152 -31l-30 -119c-24 12 -67 29 -124 29c-63 0 -93 -32 -93 -66c0 -43 32 -62 115 -98c110 -48 158 -111 158 -199
c0 -116 -87 -208 -256 -208c-70 0 -139 19 -172 37zM197 830h110l96 -119h-104l-46 59h-2l-47 -59h-102z" />
    <glyph glyph-name="Scommaaccent" unicode="&#x218;" horiz-adv-x="496" 
d="M36 28l27 122c37 -19 95 -37 152 -37c67 0 102 30 102 74s-32 68 -105 99c-106 45 -168 109 -168 196c0 113 89 201 242 201c67 0 118 -14 152 -31l-30 -119c-24 12 -67 29 -124 29c-63 0 -93 -32 -93 -66c0 -43 32 -62 115 -98c110 -48 158 -111 158 -199
c0 -116 -87 -208 -256 -208c-70 0 -139 19 -172 37zM177 -236l-22 63c30 7 63 26 63 58c0 23 -17 46 -30 60l103 16c19 -14 38 -41 38 -77c0 -79 -69 -116 -152 -120z" />
    <glyph glyph-name="Tcaron" unicode="&#x164;" horiz-adv-x="501" 
d="M177 0v548h-163v126h474v-126h-165v-548h-146zM307 710h-111l-96 119h104l46 -59h2l47 59h102z" />
    <glyph glyph-name="Tcommaaccent" unicode="&#x162;" horiz-adv-x="501" 
d="M177 0v548h-163v126h474v-126h-165v-548h-146zM174 -236l-22 63c30 7 63 26 63 58c0 23 -17 46 -30 60l103 16c19 -14 38 -41 38 -77c0 -79 -69 -116 -152 -120z" />
    <glyph glyph-name="Ubreve" unicode="&#x16c;" horiz-adv-x="627" 
d="M62 674h146v-403c0 -111 40 -162 105 -162c67 0 106 48 106 162v403h146v-390c0 -197 -93 -294 -256 -294c-161 0 -247 95 -247 295v389zM178 832h78c2 -23 18 -45 57 -45c38 0 55 20 59 45h75c-1 -72 -43 -123 -134 -123c-93 0 -134 51 -135 123z" />
    <glyph glyph-name="Uhungarumlaut" unicode="&#x170;" horiz-adv-x="627" 
d="M62 674h146v-403c0 -111 40 -162 105 -162c67 0 106 48 106 162v403h146v-390c0 -197 -93 -294 -256 -294c-161 0 -247 95 -247 295v389zM238 831h131l-99 -114h-95zM409 831h131l-99 -114h-95z" />
    <glyph glyph-name="Umacron" unicode="&#x16a;" horiz-adv-x="627" 
d="M62 674h146v-403c0 -111 40 -162 105 -162c67 0 106 48 106 162v403h146v-390c0 -197 -93 -294 -256 -294c-161 0 -247 95 -247 295v389zM188 815h252v-80h-252v80z" />
    <glyph glyph-name="Uogonek" unicode="&#x172;" horiz-adv-x="627" 
d="M423 -113l20 -69c-29 -20 -67 -31 -102 -31c-67 0 -102 35 -102 87c0 50 32 92 54 117h-7c-143 8 -224 101 -224 294v389h146v-403c0 -111 40 -162 105 -162c67 0 106 48 106 162v403h146v-389c0 -161 -62 -256 -173 -283c-25 -24 -51 -59 -51 -87c0 -25 18 -37 39 -37
c15 0 30 3 43 9z" />
    <glyph glyph-name="Uring" unicode="&#x16e;" horiz-adv-x="627" 
d="M62 674h146v-403c0 -111 40 -162 105 -162c67 0 106 48 106 162v403h146v-390c0 -197 -93 -294 -256 -294c-161 0 -247 95 -247 295v389zM315 883c75 0 111 -44 111 -96c0 -53 -40 -96 -112 -96c-73 0 -112 44 -112 94c0 52 39 98 113 98zM312 833c-28 0 -41 -24 -41 -48
c0 -21 15 -44 42 -44c29 0 43 21 43 46c0 23 -15 46 -44 46z" />
    <glyph glyph-name="Utilde" unicode="&#x168;" horiz-adv-x="627" 
d="M62 674h146v-403c0 -111 40 -162 105 -162c67 0 106 48 106 162v403h146v-390c0 -197 -93 -294 -256 -294c-161 0 -247 95 -247 295v389zM247 715h-67c-2 82 28 124 74 124c25 0 43 -9 60 -18c16 -10 30 -19 42 -19c16 0 22 9 26 41h65c2 -87 -26 -121 -76 -121
c-25 0 -44 8 -61 17c-16 9 -27 17 -40 17c-12 0 -21 -13 -23 -41z" />
    <glyph glyph-name="Wacute" unicode="&#x1e82;" horiz-adv-x="825" 
d="M316 0h-156l-146 674h155l46 -275c13 -79 24 -164 34 -236h3c10 76 26 155 42 238l55 273h145l51 -279c14 -78 25 -151 34 -230h3c9 80 22 156 35 236l48 273h147l-157 -674h-156l-52 269c-13 66 -24 134 -32 212h-2c-12 -78 -23 -145 -38 -212zM438 830h152l-123 -120
h-113z" />
    <glyph glyph-name="Wcircumflex" unicode="&#x174;" horiz-adv-x="825" 
d="M316 0h-156l-146 674h155l46 -275c13 -79 24 -164 34 -236h3c10 76 26 155 42 238l55 273h145l51 -279c14 -78 25 -151 34 -230h3c9 80 22 156 35 236l48 273h147l-157 -674h-156l-52 269c-13 66 -24 134 -32 212h-2c-12 -78 -23 -145 -38 -212zM362 829h111l96 -119
h-104l-46 59h-2l-47 -59h-102z" />
    <glyph glyph-name="Wdieresis" unicode="&#x1e84;" horiz-adv-x="825" 
d="M316 0h-156l-146 674h155l46 -275c13 -79 24 -164 34 -236h3c10 76 26 155 42 238l55 273h145l51 -279c14 -78 25 -151 34 -230h3c9 80 22 156 35 236l48 273h147l-157 -674h-156l-52 269c-13 66 -24 134 -32 212h-2c-12 -78 -23 -145 -38 -212zM320 713
c-36 0 -65 30 -65 67c0 38 30 67 66 67s64 -29 64 -67c0 -37 -28 -67 -65 -67zM521 713c-37 0 -65 30 -65 67c0 38 29 67 66 67c36 0 64 -29 64 -67c0 -37 -28 -67 -65 -67z" />
    <glyph glyph-name="Wgrave" unicode="&#x1e80;" horiz-adv-x="825" 
d="M316 0h-156l-146 674h155l46 -275c13 -79 24 -164 34 -236h3c10 76 26 155 42 238l55 273h145l51 -279c14 -78 25 -151 34 -230h3c9 80 22 156 35 236l48 273h147l-157 -674h-156l-52 269c-13 66 -24 134 -32 212h-2c-12 -78 -23 -145 -38 -212zM249 830h152l84 -119
h-113z" />
    <glyph glyph-name="Ycircumflex" unicode="&#x176;" horiz-adv-x="542" 
d="M341 0h-146v271l-193 403h164l61 -162c19 -47 33 -87 47 -133h2c13 44 28 86 45 134l60 161h161l-201 -398v-276zM215 829h111l96 -119h-104l-46 59h-2l-47 -59h-102z" />
    <glyph glyph-name="Ygrave" unicode="&#x1ef2;" horiz-adv-x="542" 
d="M341 0h-146v271l-193 403h164l61 -162c19 -47 33 -87 47 -133h2c13 44 28 86 45 134l60 161h161l-201 -398v-276zM113 828h152l84 -119h-113z" />
    <glyph glyph-name="uni0232" unicode="&#x232;" horiz-adv-x="542" 
d="M341 0h-146v271l-193 403h164l61 -162c19 -47 33 -87 47 -133h2c13 44 28 86 45 134l60 161h161l-201 -398v-276zM145 815h252v-80h-252v80z" />
    <glyph glyph-name="Zacute" unicode="&#x179;" horiz-adv-x="520" 
d="M20 0v81l289 467v3h-263v123h445v-91l-281 -457v-3h284v-123h-474zM276 830h152l-123 -120h-113z" />
    <glyph glyph-name="Zdotaccent" unicode="&#x17b;" horiz-adv-x="520" 
d="M20 0v81l289 467v3h-263v123h445v-91l-281 -457v-3h284v-123h-474zM266 713c-37 0 -67 31 -67 67c0 38 30 67 68 67c37 0 66 -29 66 -67c0 -36 -29 -67 -67 -67z" />
    <glyph glyph-name="AEacute" unicode="&#x1fc;" horiz-adv-x="786" 
d="M148 0h-148l261 674h470v-121h-246l15 -151h227v-119h-210l17 -162h228v-121h-354l-20 184h-175zM252 300h120l-16 164c-3 33 -7 71 -10 108h-4c-11 -40 -25 -86 -35 -117zM447 830h152l-123 -120h-113z" />
    <glyph glyph-name="abreve" unicode="&#x103;" horiz-adv-x="496" 
d="M440 290v-174c0 -44 2 -87 8 -116h-131l-9 49h-2c-31 -39 -77 -59 -131 -59c-92 0 -149 69 -149 149c0 128 114 186 268 186v8c0 30 -16 64 -83 64c-47 0 -93 -15 -125 -34l-26 94c32 18 95 42 178 42c159 0 202 -98 202 -209zM298 170v63c-69 0 -130 -18 -130 -79
c0 -41 26 -60 56 -60c33 0 62 21 72 51c2 8 2 17 2 25zM115 689h75c5 -36 23 -59 57 -59c40 0 58 28 59 59h74c0 -81 -48 -138 -133 -138c-87 0 -132 60 -132 138z" />
    <glyph glyph-name="amacron" unicode="&#x101;" horiz-adv-x="496" 
d="M440 290v-174c0 -44 2 -87 8 -116h-131l-9 49h-2c-31 -39 -77 -59 -131 -59c-92 0 -149 69 -149 149c0 128 114 186 268 186v8c0 30 -16 64 -83 64c-47 0 -93 -15 -125 -34l-26 94c32 18 95 42 178 42c159 0 202 -98 202 -209zM298 170v63c-69 0 -130 -18 -130 -79
c0 -41 26 -60 56 -60c33 0 62 21 72 51c2 8 2 17 2 25zM129 663h239v-81h-239v81z" />
    <glyph glyph-name="aogonek" unicode="&#x105;" horiz-adv-x="496" 
d="M440 290v-173c0 -47 2 -88 9 -117h-50c-11 -20 -22 -48 -22 -73c0 -31 19 -49 45 -49c18 0 31 3 43 8l20 -69c-32 -24 -68 -32 -100 -32c-62 0 -102 36 -102 100c0 50 24 95 34 116l-9 48h-2c-31 -39 -77 -59 -131 -59c-92 0 -149 69 -149 149c0 128 114 186 268 186v8
c0 30 -16 64 -83 64c-47 0 -93 -15 -125 -34l-26 94c32 18 95 42 178 42c159 0 202 -98 202 -209zM298 170v63c-69 0 -130 -18 -130 -79c0 -41 26 -60 56 -60c33 0 62 21 72 52c2 7 2 16 2 24z" />
    <glyph glyph-name="a.superior" horiz-adv-x="355" 
d="M319 265h-87l-6 33h-2c-22 -23 -53 -38 -92 -38c-61 0 -100 41 -100 98c0 79 77 116 184 117v7c0 12 -9 38 -59 38c-34 0 -63 -10 -83 -23l-19 63c26 15 69 30 121 30c105 0 138 -67 138 -138v-109c0 -29 1 -57 5 -78zM219 376v40c-48 0 -92 -13 -92 -50
c0 -23 18 -38 41 -38c19 0 38 11 46 27c3 7 5 14 5 21z" />
    <glyph glyph-name="cacute" unicode="&#x107;" horiz-adv-x="412" 
d="M379 120l16 -109c-23 -11 -69 -20 -120 -20c-148 0 -243 93 -243 249c0 146 95 259 263 259c38 0 77 -7 103 -18l-22 -109c-16 6 -39 13 -74 13c-75 0 -122 -58 -122 -140c0 -89 53 -139 123 -139c31 0 56 5 76 14zM273 698h132l-116 -148h-97z" />
    <glyph glyph-name="ccaron" unicode="&#x10d;" horiz-adv-x="412" 
d="M379 120l16 -109c-23 -11 -69 -20 -120 -20c-148 0 -243 93 -243 249c0 146 95 259 263 259c38 0 77 -7 103 -18l-22 -109c-16 6 -39 13 -74 13c-75 0 -122 -58 -122 -140c0 -89 53 -139 123 -139c31 0 56 5 76 14zM299 550h-100l-95 148h96l48 -85h2l47 85h97z" />
    <glyph glyph-name="ccircumflex" unicode="&#x109;" horiz-adv-x="412" 
d="M379 120l16 -109c-23 -11 -69 -20 -120 -20c-148 0 -243 93 -243 249c0 146 95 259 263 259c38 0 77 -7 103 -18l-22 -109c-16 6 -39 13 -74 13c-75 0 -122 -58 -122 -140c0 -89 53 -139 123 -139c31 0 56 5 76 14zM198 698h98l95 -148h-96l-47 85h-2l-47 -85h-97z" />
    <glyph glyph-name="cdotaccent" unicode="&#x10b;" horiz-adv-x="412" 
d="M379 120l16 -109c-23 -11 -69 -20 -120 -20c-148 0 -243 93 -243 249c0 146 95 259 263 259c38 0 77 -7 103 -18l-22 -109c-16 6 -39 13 -74 13c-75 0 -122 -58 -122 -140c0 -89 53 -139 123 -139c31 0 56 5 76 14zM254 558c-37 0 -67 30 -67 69s30 68 68 68
s66 -29 66 -68s-28 -69 -67 -69z" />
    <glyph glyph-name="dcaron" unicode="&#x10f;" horiz-adv-x="561" 
d="M349 705h146v-559c0 -53 2 -110 4 -146h-129l-6 67h-2c-27 -49 -81 -77 -138 -77c-112 0 -192 104 -192 251c0 167 94 259 200 259c56 0 96 -22 115 -54h2v259zM349 204v84c0 8 0 19 -2 28c-7 37 -35 69 -76 69c-62 0 -92 -63 -92 -141c0 -86 36 -137 91 -137
c36 0 66 24 76 64c2 10 3 21 3 33zM596 495l-60 39c14 22 28 59 28 96c0 27 -11 52 -22 68l91 16c16 -12 32 -42 32 -75c0 -82 -53 -129 -69 -144z" />
    <glyph glyph-name="ebreve" unicode="&#x115;" horiz-adv-x="495" 
d="M461 196h-290c3 -67 61 -96 128 -96c47 0 86 7 122 19l20 -100c-46 -18 -104 -28 -165 -28c-156 0 -245 94 -245 246c0 137 80 263 232 263c143 0 203 -112 203 -241c0 -29 -3 -51 -5 -63zM170 297h161c0 44 -16 103 -76 103c-58 0 -82 -60 -85 -103zM120 689h75
c5 -36 23 -59 57 -59c40 0 58 28 59 59h74c0 -81 -48 -138 -133 -138c-87 0 -132 60 -132 138z" />
    <glyph glyph-name="ecaron" unicode="&#x11b;" horiz-adv-x="495" 
d="M461 196h-290c3 -67 61 -96 128 -96c47 0 86 7 122 19l20 -100c-46 -18 -104 -28 -165 -28c-156 0 -245 94 -245 246c0 137 80 263 232 263c143 0 203 -112 203 -241c0 -29 -3 -51 -5 -63zM170 297h161c0 44 -16 103 -76 103c-58 0 -82 -60 -85 -103zM301 550h-99
l-95 148h96l47 -85h2l48 85h97z" />
    <glyph glyph-name="edotaccent" unicode="&#x117;" horiz-adv-x="495" 
d="M461 196h-290c3 -67 61 -96 128 -96c47 0 86 7 122 19l20 -100c-46 -18 -104 -28 -165 -28c-156 0 -245 94 -245 246c0 137 80 263 232 263c143 0 203 -112 203 -241c0 -29 -3 -51 -5 -63zM170 297h161c0 44 -16 103 -76 103c-58 0 -82 -60 -85 -103zM254 558
c-37 0 -67 30 -67 69s30 68 68 68s66 -29 66 -68s-28 -69 -67 -69z" />
    <glyph glyph-name="emacron" unicode="&#x113;" horiz-adv-x="495" 
d="M461 196h-290c3 -67 61 -96 128 -96c47 0 86 7 122 19l20 -100c-46 -18 -104 -28 -165 -28c-156 0 -245 94 -245 246c0 137 80 263 232 263c143 0 203 -112 203 -241c0 -29 -3 -51 -5 -63zM170 297h161c0 44 -16 103 -76 103c-58 0 -82 -60 -85 -103zM131 663h239v-81
h-239v81z" />
    <glyph glyph-name="eogonek" unicode="&#x119;" horiz-adv-x="495" 
d="M393 -113l22 -68c-29 -23 -67 -33 -102 -33c-64 0 -100 34 -100 84c0 52 38 96 68 120v1h-11c-152 2 -239 95 -239 246c0 137 80 263 232 263c143 0 203 -112 203 -241c0 -29 -3 -51 -5 -63h-290c3 -67 61 -96 128 -96c47 0 86 7 122 19l19 -100c-14 -6 -31 -11 -41 -14
c-41 -22 -84 -65 -84 -96c0 -22 16 -32 33 -32c14 0 30 4 45 10zM170 297h161c0 44 -16 103 -76 103c-58 0 -81 -60 -85 -103z" />
    <glyph glyph-name="gbreve" unicode="&#x11f;" horiz-adv-x="543" 
d="M488 340v-274c0 -97 -19 -168 -70 -214c-48 -43 -115 -58 -187 -58c-59 0 -118 12 -160 33l29 111c29 -16 76 -32 127 -32c71 0 117 40 117 126v31h-2c-25 -38 -69 -59 -119 -59c-118 0 -191 105 -191 238c0 159 93 258 205 258c59 0 98 -27 121 -67h2l6 56h126
c-2 -36 -4 -80 -4 -149zM342 206v90c0 11 -1 22 -3 31c-10 34 -34 59 -70 59c-53 0 -90 -54 -90 -141c0 -78 33 -132 89 -132c32 0 59 21 69 54c4 11 5 27 5 39zM142 689h75c5 -36 23 -59 57 -59c40 0 58 28 59 59h74c0 -81 -48 -138 -133 -138c-87 0 -132 60 -132 138z" />
    <glyph glyph-name="gcircumflex" unicode="&#x11d;" horiz-adv-x="543" 
d="M488 340v-274c0 -97 -19 -168 -70 -214c-48 -43 -115 -58 -187 -58c-59 0 -118 12 -160 33l29 111c29 -16 76 -32 127 -32c71 0 117 40 117 126v31h-2c-25 -38 -69 -59 -119 -59c-118 0 -191 105 -191 238c0 159 93 258 205 258c59 0 98 -27 121 -67h2l6 56h126
c-2 -36 -4 -80 -4 -149zM342 206v90c0 11 -1 22 -3 31c-10 34 -34 59 -70 59c-53 0 -90 -54 -90 -141c0 -78 33 -132 89 -132c32 0 59 21 69 54c4 11 5 27 5 39zM225 698h99l95 -148h-96l-47 85h-2l-47 -85h-97z" />
    <glyph glyph-name="gcommaaccent" unicode="&#x123;" horiz-adv-x="543" 
d="M488 340v-274c0 -97 -19 -168 -70 -214c-48 -43 -115 -58 -187 -58c-59 0 -118 12 -160 33l29 111c29 -16 76 -32 127 -32c71 0 117 40 117 126v31h-2c-25 -38 -69 -59 -119 -59c-118 0 -191 105 -191 238c0 159 93 258 205 258c59 0 98 -27 121 -67h2l6 56h126
c-2 -36 -4 -80 -4 -149zM342 206v90c0 11 -1 22 -3 31c-10 34 -34 59 -70 59c-53 0 -90 -54 -90 -141c0 -78 33 -132 89 -132c32 0 59 21 69 54c4 11 5 27 5 39zM346 724l22 -53c-40 -7 -71 -25 -71 -59c0 -24 17 -44 32 -58l-97 -14c-19 13 -38 41 -38 72
c0 75 68 108 152 112z" />
    <glyph glyph-name="gdotaccent" unicode="&#x121;" horiz-adv-x="543" 
d="M488 340v-274c0 -97 -19 -168 -70 -214c-48 -43 -115 -58 -187 -58c-59 0 -118 12 -160 33l29 111c29 -16 76 -32 127 -32c71 0 117 40 117 126v31h-2c-25 -38 -69 -59 -119 -59c-118 0 -191 105 -191 238c0 159 93 258 205 258c59 0 98 -27 121 -67h2l6 56h126
c-2 -36 -4 -80 -4 -149zM342 206v90c0 11 -1 22 -3 31c-10 34 -34 59 -70 59c-53 0 -90 -54 -90 -141c0 -78 33 -132 89 -132c32 0 59 21 69 54c4 11 5 27 5 39zM273 558h-2c-37 0 -67 30 -67 69s30 68 68 68s66 -29 66 -68s-28 -69 -65 -69z" />
    <glyph glyph-name="g_tildecomb" unicode="&#xe005;" horiz-adv-x="543" 
d="M481 340v-274c0 -97 -19 -168 -70 -214c-48 -43 -115 -58 -187 -58c-59 0 -118 12 -160 33l29 111c29 -16 76 -32 127 -32c71 0 117 40 117 126v31h-2c-25 -38 -69 -59 -119 -59c-118 0 -191 105 -191 238c0 159 93 258 205 258c59 0 98 -27 121 -67h2l6 56h126
c-2 -36 -4 -80 -4 -149zM335 206v90c0 11 -1 22 -3 31c-10 34 -34 59 -70 59c-53 0 -90 -54 -90 -141c0 -78 33 -132 89 -132c32 0 59 21 69 54c4 11 5 27 5 39zM203 558h-68c-2 78 28 127 78 127c26 0 45 -10 64 -20c15 -9 28 -18 40 -18c16 0 23 8 25 42h66
c2 -88 -29 -124 -78 -124c-25 0 -45 10 -64 20c-18 9 -26 16 -39 16c-14 0 -23 -14 -24 -43z" />
    <glyph glyph-name="hcircumflex" unicode="&#x125;" horiz-adv-x="547" 
d="M56 0v705h146v-273h2c15 20 33 37 55 48c22 12 48 19 76 19c94 0 157 -70 157 -210v-289h-146v277c0 60 -18 103 -70 103c-35 0 -58 -22 -69 -51c-3 -9 -5 -24 -5 -35v-294h-146zM77 850h111l96 -119h-104l-46 59h-2l-47 -59h-102z" />
    <glyph glyph-name="ibreve" unicode="&#x12d;" horiz-adv-x="259" 
d="M202 0h-146v489h146v-489zM-3 689h75c5 -36 24 -59 57 -59c41 0 59 28 60 59h74c0 -81 -48 -138 -134 -138c-87 0 -132 60 -132 138z" />
    <glyph glyph-name="imacron" unicode="&#x12b;" horiz-adv-x="259" 
d="M202 0h-146v489h146v-489zM10 663h239v-81h-239v81z" />
    <glyph glyph-name="iogonek" unicode="&#x12f;" horiz-adv-x="259" 
d="M127 550c-46 0 -77 33 -77 77s32 76 78 76c47 0 79 -32 79 -76s-31 -77 -80 -77zM202 489v-489h-63c-11 -19 -23 -46 -23 -72c0 -31 22 -52 50 -52c19 0 33 3 42 7l20 -69c-28 -21 -67 -30 -98 -30c-68 0 -108 36 -108 103c0 48 25 94 34 113v489h146z" />
    <glyph glyph-name="itilde" unicode="&#x129;" horiz-adv-x="259" 
d="M202 0h-146v489h146v-489zM61 557h-68c-2 79 28 128 78 128c25 0 45 -10 63 -20c16 -9 29 -18 41 -18c16 0 23 8 25 42h66c2 -88 -29 -124 -78 -124c-25 0 -45 10 -64 20c-18 9 -26 16 -39 16c-14 0 -23 -15 -24 -44z" />
    <glyph glyph-name="jcircumflex" unicode="&#x135;" horiz-adv-x="271" 
d="M-26 -210l-13 114c35 3 64 11 82 31c21 21 28 59 28 150v404h146v-437c0 -107 -23 -168 -68 -208c-42 -37 -110 -54 -175 -54zM88 696h99l95 -148h-96l-47 85h-2l-47 -85h-97z" />
    <glyph glyph-name="kcommaaccent" unicode="&#x137;" horiz-adv-x="504" 
d="M202 705v-425h2c11 23 21 43 32 62l88 147h171l-159 -201l178 -288h-175l-103 201l-34 -47v-154h-146v705h146zM185 -237l-22 63c30 6 63 26 63 58c0 24 -17 46 -30 60l103 16c19 -14 38 -42 38 -77c0 -79 -69 -116 -152 -120z" />
    <glyph glyph-name="lacute" unicode="&#x13a;" horiz-adv-x="260" 
d="M56 0v705h146v-705h-146zM141 855h152l-123 -120h-113z" />
    <glyph glyph-name="lcaron" unicode="&#x13e;" horiz-adv-x="269" 
d="M56 0v705h146v-705h-146zM304 494l-65 39c14 25 29 59 29 97c0 27 -11 52 -23 68l92 16c16 -12 32 -42 32 -78c0 -79 -49 -124 -65 -142z" />
    <glyph glyph-name="lcommaaccent" unicode="&#x13c;" horiz-adv-x="260" 
d="M56 0v705h146v-705h-146zM55 -237l-22 63c30 6 63 26 63 58c0 24 -17 46 -30 60l103 16c19 -14 38 -42 38 -77c0 -79 -69 -116 -152 -120z" />
    <glyph glyph-name="ldot" unicode="&#x140;" horiz-adv-x="344" 
d="M56 0v705h146v-705h-146zM302 336c-35 0 -62 30 -62 67c0 38 28 66 63 66c34 0 60 -28 60 -66c0 -37 -26 -67 -61 -67z" />
    <glyph glyph-name="m_uni0302" unicode="&#xe006;" horiz-adv-x="806" 
d="M56 0v335c0 59 -2 109 -4 154h124l7 -63h3c22 32 65 73 138 73c61 0 106 -30 126 -79h2c17 24 37 44 60 57c24 14 52 22 85 22c91 0 153 -67 153 -204v-295h-143v273c0 66 -18 108 -64 108c-31 0 -53 -21 -63 -50c-3 -10 -5 -25 -5 -38v-293h-143v284c0 54 -16 97 -63 97
c-33 0 -55 -25 -65 -51c-4 -11 -5 -25 -5 -38v-292h-143zM354 698h99l95 -148h-96l-47 85h-2l-47 -85h-97z" />
    <glyph glyph-name="nacute" unicode="&#x144;" horiz-adv-x="547" 
d="M56 0v335c0 59 -2 109 -4 154h126l7 -64h3c21 33 69 74 142 74c98 0 162 -69 162 -202v-297h-146v282c0 56 -19 98 -69 98c-36 0 -59 -25 -69 -53c-4 -10 -6 -25 -6 -40v-287h-146zM289 698h133l-116 -148h-97z" />
    <glyph glyph-name="ncaron" unicode="&#x148;" horiz-adv-x="547" 
d="M56 0v335c0 59 -2 109 -4 154h126l7 -64h3c21 33 69 74 142 74c98 0 162 -69 162 -202v-297h-146v282c0 56 -19 98 -69 98c-36 0 -59 -25 -69 -53c-4 -10 -6 -25 -6 -40v-287h-146zM323 550h-100l-95 148h96l48 -85h2l47 85h97z" />
    <glyph glyph-name="n_uni0302" unicode="&#xe007;" horiz-adv-x="547" 
d="M224 698h99l95 -148h-96l-47 85h-2l-47 -85h-97zM56 0v335c0 59 -2 109 -4 154h126l7 -64h3c21 33 69 74 142 74c98 0 162 -69 162 -202v-297h-146v282c0 56 -19 98 -69 98c-36 0 -59 -25 -69 -53c-4 -10 -6 -25 -6 -40v-287h-146z" />
    <glyph glyph-name="ncommaaccent" unicode="&#x146;" horiz-adv-x="547" 
d="M56 0v335c0 59 -2 109 -4 154h126l7 -64h3c21 33 69 74 142 74c98 0 162 -69 162 -202v-297h-146v282c0 56 -19 98 -69 98c-36 0 -59 -25 -69 -53c-4 -10 -6 -25 -6 -40v-287h-146zM206 -236l-22 63c31 6 64 26 64 58c0 24 -17 46 -30 60l103 16c19 -14 38 -42 38 -77
c0 -79 -69 -116 -153 -120z" />
    <glyph glyph-name="obreve" unicode="&#x14f;" horiz-adv-x="533" 
d="M272 500c138 0 229 -101 229 -251c0 -187 -123 -259 -236 -259c-135 0 -233 94 -233 252c0 163 101 258 240 258zM268 394c-65 0 -87 -78 -87 -149c0 -83 29 -149 88 -149c54 0 83 66 83 150c0 71 -23 148 -84 148zM133 689h75c5 -36 24 -59 57 -59c41 0 59 28 60 59h74
c0 -81 -48 -138 -134 -138c-87 0 -132 60 -132 138z" />
    <glyph glyph-name="ohungarumlaut" unicode="&#x151;" horiz-adv-x="533" 
d="M272 500c138 0 229 -101 229 -251c0 -187 -123 -259 -236 -259c-135 0 -233 94 -233 252c0 163 101 258 240 258zM268 394c-65 0 -87 -78 -87 -149c0 -83 29 -149 88 -149c54 0 83 66 83 150c0 71 -23 148 -84 148zM194 697h113l-99 -146h-80zM357 697h112l-98 -146h-80z
" />
    <glyph glyph-name="omacron" unicode="&#x14d;" horiz-adv-x="533" 
d="M272 500c138 0 229 -101 229 -251c0 -187 -123 -259 -236 -259c-135 0 -233 94 -233 252c0 163 101 258 240 258zM268 394c-65 0 -87 -78 -87 -149c0 -83 29 -149 88 -149c54 0 83 66 83 150c0 71 -23 148 -84 148zM147 663h239v-81h-239v81z" />
    <glyph glyph-name="oslashacute" unicode="&#x1ff;" horiz-adv-x="533" 
d="M268 500c39 0 76 -9 109 -26l42 65l55 -35l-45 -69c46 -44 72 -109 72 -188c0 -184 -123 -257 -233 -257c-40 0 -77 8 -109 25l-43 -66l-52 39l42 65c-47 43 -74 108 -74 191c0 161 101 256 236 256zM187 171l129 203c-13 13 -28 20 -50 20c-72 0 -95 -85 -95 -149
c0 -24 3 -51 13 -73zM347 314l-127 -198c12 -14 28 -20 47 -20c62 0 95 63 95 144c0 22 -3 49 -12 73zM284 698h132l-116 -148h-97z" />
    <glyph glyph-name="racute" unicode="&#x155;" horiz-adv-x="354" 
d="M56 0v332c0 65 -2 114 -4 157h125l6 -85h4c24 66 78 95 122 95c13 0 20 -1 31 -3v-138c-11 2 -22 3 -38 3c-47 0 -85 -26 -96 -75c-3 -10 -4 -23 -4 -38v-248h-146zM200 698h133l-116 -148h-97z" />
    <glyph glyph-name="rcaron" unicode="&#x159;" horiz-adv-x="354" 
d="M56 0v332c0 65 -2 114 -4 157h125l6 -85h4c24 66 78 95 122 95c13 0 20 -1 31 -3v-138c-11 2 -22 3 -38 3c-47 0 -85 -26 -96 -75c-3 -10 -4 -23 -4 -38v-248h-146zM237 550h-99l-95 148h96l47 -85h2l48 85h97z" />
    <glyph glyph-name="rcommaaccent" unicode="&#x157;" horiz-adv-x="354" 
d="M56 0v332c0 65 -2 114 -4 157h125l6 -85h4c24 66 78 95 122 95c13 0 20 -1 31 -3v-138c-11 2 -22 3 -38 3c-47 0 -85 -26 -96 -75c-3 -10 -4 -23 -4 -38v-248h-146zM66 -237l-21 63c30 6 63 26 63 58c0 24 -17 46 -30 60l103 16c19 -14 38 -42 38 -77
c0 -79 -69 -116 -153 -120z" />
    <glyph glyph-name="sacute" unicode="&#x15b;" horiz-adv-x="401" 
d="M29 24l26 104c25 -15 77 -33 118 -33c42 0 62 15 62 41s-15 39 -68 60c-95 37 -127 91 -127 145c0 90 73 159 188 159c52 0 97 -13 126 -27l-26 -102c-21 11 -57 25 -94 25c-36 0 -56 -16 -56 -40c0 -23 17 -35 73 -58c86 -34 122 -83 122 -150c0 -94 -71 -157 -200 -157
c-57 0 -111 13 -144 33zM227 698h132l-116 -148h-97z" />
    <glyph glyph-name="scedilla" unicode="&#x15f;" horiz-adv-x="401" 
d="M28 23l27 105c25 -16 77 -33 118 -33c42 0 62 15 62 41s-15 39 -68 60c-95 37 -127 91 -127 145c0 90 73 159 188 159c52 0 97 -13 126 -27l-26 -102c-21 11 -57 25 -94 25c-36 0 -56 -16 -56 -40c0 -23 17 -35 73 -58c86 -34 122 -83 122 -150c0 -76 -47 -133 -136 -151
l-23 -41c37 -5 71 -32 71 -73c0 -65 -57 -87 -118 -87c-31 0 -60 8 -79 19l20 57c17 -10 38 -16 54 -16c17 0 34 6 34 25c0 20 -23 33 -75 37l35 73h-1c-27 0 -82 8 -127 32z" />
    <glyph glyph-name="scircumflex" unicode="&#x15d;" horiz-adv-x="401" 
d="M29 24l26 104c25 -15 77 -33 118 -33c42 0 62 15 62 41s-15 39 -68 60c-95 37 -127 91 -127 145c0 90 73 159 188 159c52 0 97 -13 126 -27l-26 -102c-21 11 -57 25 -94 25c-36 0 -56 -16 -56 -40c0 -23 17 -35 73 -58c86 -34 122 -83 122 -150c0 -94 -71 -157 -200 -157
c-57 0 -111 13 -144 33zM154 698h98l95 -148h-96l-47 85h-2l-47 -85h-97z" />
    <glyph glyph-name="scommaaccent" unicode="&#x219;" horiz-adv-x="401" 
d="M29 24l26 104c25 -15 77 -33 118 -33c42 0 62 15 62 41s-15 39 -68 60c-95 37 -127 91 -127 145c0 90 73 159 188 159c52 0 97 -13 126 -27l-26 -102c-21 11 -57 25 -94 25c-36 0 -56 -16 -56 -40c0 -23 17 -35 73 -58c86 -34 122 -83 122 -150c0 -94 -71 -157 -200 -157
c-57 0 -111 13 -144 33zM128 -237l-22 63c30 6 63 26 63 58c0 24 -17 46 -30 60l103 16c19 -14 38 -42 38 -77c0 -79 -69 -116 -152 -120z" />
    <glyph glyph-name="tcaron" unicode="&#x165;" horiz-adv-x="356" 
d="M78 579l144 41v-131h105v-106h-105v-191c0 -59 17 -82 57 -82c18 0 28 1 42 4l1 -111c-19 -7 -53 -12 -93 -12c-46 0 -85 15 -109 39c-28 28 -42 72 -42 143v210h-63v106h63v90zM326 539l-43 48c17 14 32 43 32 72c0 22 -10 44 -19 57l94 15c15 -11 32 -37 32 -69
c0 -72 -62 -112 -96 -123z" />
    <glyph glyph-name="tcommaaccent" unicode="&#x163;" horiz-adv-x="350" 
d="M78 579l144 41v-131h105v-106h-105v-191c0 -59 17 -82 57 -82c19 0 28 1 42 4l1 -111c-19 -7 -53 -12 -93 -12c-46 0 -85 15 -109 39c-28 28 -42 72 -42 143v210h-63v106h63v90zM117 -238l-22 63c30 6 63 26 63 58c0 24 -17 46 -30 60l103 16c19 -14 38 -42 38 -77
c0 -79 -69 -116 -152 -120z" />
    <glyph glyph-name="ubreve" unicode="&#x16d;" horiz-adv-x="544" 
d="M486 489v-334c0 -61 2 -113 4 -155h-126l-7 64h-3c-20 -31 -64 -74 -141 -74c-97 0 -159 64 -159 209v290h146v-268c0 -70 20 -112 68 -112c36 0 57 25 66 47c4 9 6 22 6 35v298h146zM139 689h75c5 -36 24 -59 57 -59c41 0 59 28 60 59h74c0 -81 -48 -138 -134 -138
c-87 0 -132 60 -132 138z" />
    <glyph glyph-name="uhungarumlaut" unicode="&#x171;" horiz-adv-x="544" 
d="M486 489v-334c0 -61 2 -113 4 -155h-126l-7 64h-3c-20 -31 -64 -74 -141 -74c-97 0 -159 64 -159 209v290h146v-268c0 -70 20 -112 68 -112c36 0 57 25 66 47c4 9 6 22 6 35v298h146zM212 697h113l-99 -146h-80zM375 697h112l-98 -146h-80z" />
    <glyph glyph-name="umacron" unicode="&#x16b;" horiz-adv-x="544" 
d="M486 489v-334c0 -61 2 -113 4 -155h-126l-7 64h-3c-20 -31 -64 -74 -141 -74c-97 0 -159 64 -159 209v290h146v-268c0 -70 20 -112 68 -112c36 0 57 25 66 47c4 9 6 22 6 35v298h146zM153 663h239v-81h-239v81z" />
    <glyph glyph-name="uogonek" unicode="&#x173;" horiz-adv-x="544" 
d="M486 489v-334c0 -61 2 -113 5 -155l-44 1c-11 -20 -23 -47 -23 -73c0 -31 22 -52 50 -52c19 0 33 3 42 7l20 -69c-28 -21 -67 -30 -98 -30c-68 0 -108 36 -108 104c0 47 25 94 34 113l-7 63h-3c-20 -31 -64 -74 -141 -74c-97 0 -159 64 -159 209v290h146v-268
c0 -70 20 -112 68 -112c36 0 57 25 66 47c4 9 6 22 6 35v298h146z" />
    <glyph glyph-name="uring" unicode="&#x16f;" horiz-adv-x="544" 
d="M486 489v-334c0 -61 2 -113 4 -155h-126l-7 64h-3c-20 -31 -64 -74 -141 -74c-97 0 -159 64 -159 209v290h146v-268c0 -70 20 -112 68 -112c36 0 57 25 66 47c4 9 6 22 6 35v298h146zM272 539c-70 0 -112 41 -112 94c0 54 39 98 113 98c71 0 109 -41 109 -97
c0 -54 -42 -95 -110 -95zM271 587c31 0 45 24 45 48s-14 48 -46 48c-29 0 -42 -25 -42 -50c0 -20 14 -46 43 -46z" />
    <glyph glyph-name="utilde" unicode="&#x169;" horiz-adv-x="544" 
d="M486 489v-334c0 -61 2 -113 4 -155h-126l-7 64h-3c-20 -31 -64 -74 -141 -74c-97 0 -159 64 -159 209v290h146v-268c0 -70 20 -112 68 -112c36 0 57 25 66 47c4 9 6 22 6 35v298h146zM204 557h-68c-2 79 28 128 78 128c25 0 45 -10 63 -20c16 -9 29 -18 41 -18
c16 0 23 8 25 42h66c2 -88 -29 -124 -78 -124c-25 0 -45 10 -65 20c-17 9 -25 16 -38 16c-14 0 -23 -15 -24 -44z" />
    <glyph glyph-name="wacute" unicode="&#x1e83;" horiz-adv-x="716" 
d="M9 489h151l35 -203c9 -52 18 -104 25 -157h2c9 53 22 108 33 155l50 205h114l47 -199c12 -55 24 -108 33 -161h2c6 52 14 106 25 162l38 198h143l-143 -489h-133l-43 171c-12 48 -21 94 -30 153h-2c-8 -60 -18 -107 -30 -152l-47 -172h-134zM378 698h132l-116 -148h-97z
" />
    <glyph glyph-name="wcircumflex" unicode="&#x175;" horiz-adv-x="716" 
d="M9 489h151l35 -203c9 -52 18 -104 25 -157h2c9 53 22 108 33 155l50 205h114l47 -199c12 -55 24 -108 33 -161h2c6 52 14 106 25 162l38 198h143l-143 -489h-133l-43 171c-12 48 -21 94 -30 153h-2c-8 -60 -18 -107 -30 -152l-47 -172h-134zM309 698h99l95 -148h-96
l-47 85h-2l-47 -85h-97z" />
    <glyph glyph-name="wdieresis" unicode="&#x1e85;" horiz-adv-x="716" 
d="M9 489h151l35 -203c9 -52 18 -104 25 -157h2c9 53 22 108 33 155l50 205h114l47 -199c12 -55 24 -108 33 -161h2c6 52 14 106 25 162l38 198h143l-143 -489h-133l-43 171c-12 48 -21 94 -30 153h-2c-8 -60 -18 -107 -30 -152l-47 -172h-134zM258 558c-38 0 -68 31 -68 69
c0 39 30 68 69 68c36 0 65 -28 65 -68c0 -38 -28 -69 -66 -69zM459 558h-2c-37 0 -66 31 -66 69c0 39 30 68 68 68c37 0 66 -28 66 -68c0 -38 -28 -69 -66 -69z" />
    <glyph glyph-name="wgrave" unicode="&#x1e81;" horiz-adv-x="716" 
d="M9 489h151l35 -203c9 -52 18 -104 25 -157h2c9 53 22 108 33 155l50 205h114l47 -199c12 -55 24 -108 33 -161h2c6 52 14 106 25 162l38 198h143l-143 -489h-133l-43 171c-12 48 -21 94 -30 153h-2c-8 -60 -18 -107 -30 -152l-47 -172h-134zM216 698h132l81 -148h-97z
" />
    <glyph glyph-name="ycircumflex" unicode="&#x177;" horiz-adv-x="483" 
d="M6 489h160l66 -245c7 -29 15 -62 21 -88h3c6 26 12 60 19 88l54 245h152l-109 -339c-57 -164 -99 -246 -153 -299c-50 -47 -104 -66 -136 -70l-35 123c20 5 43 16 66 31c21 13 43 37 56 60c5 8 8 15 8 22c0 5 -2 12 -6 23zM198 698h98l95 -148h-96l-47 85h-2l-47 -85h-97
z" />
    <glyph glyph-name="ygrave" unicode="&#x1ef3;" horiz-adv-x="483" 
d="M6 489h160l66 -245c7 -29 15 -62 21 -88h3c6 26 12 60 19 88l54 245h152l-109 -339c-57 -164 -99 -246 -153 -299c-50 -47 -104 -66 -136 -70l-35 123c20 5 43 16 66 31c21 13 43 37 56 60c5 8 8 15 8 22c0 5 -2 12 -6 23zM103 698h132l81 -148h-97z" />
    <glyph glyph-name="uni0233" unicode="&#x233;" horiz-adv-x="483" 
d="M6 489h160l66 -245c7 -29 15 -62 21 -88h3c6 26 12 60 19 88l54 245h152l-109 -339c-57 -164 -99 -246 -153 -299c-50 -47 -104 -66 -136 -70l-35 123c20 5 43 16 66 31c21 13 43 37 56 60c5 8 8 15 8 22c0 5 -2 12 -6 23zM123 663h239v-81h-239v81z" />
    <glyph glyph-name="zacute" unicode="&#x17a;" horiz-adv-x="433" 
d="M21 0v86l144 200c24 31 46 58 68 84v2h-196v117h369v-91l-138 -192c-24 -31 -48 -62 -70 -87v-2h215v-117h-392zM242 698h132l-116 -148h-97z" />
    <glyph glyph-name="zdotaccent" unicode="&#x17c;" horiz-adv-x="433" 
d="M21 0v86l144 200c24 31 46 58 68 84v2h-196v117h369v-91l-138 -192c-24 -31 -48 -62 -70 -87v-2h215v-117h-392zM219 558c-37 0 -67 30 -67 69s30 68 68 68s66 -29 66 -68s-28 -69 -67 -69z" />
    <glyph glyph-name="aeacute" unicode="&#x1fd;" horiz-adv-x="752" 
d="M719 206h-286c1 -71 53 -108 125 -108c53 0 89 10 122 24l20 -98c-50 -26 -109 -34 -165 -34c-76 0 -145 30 -177 86h-3c-36 -53 -92 -86 -170 -86c-98 0 -159 68 -159 153c0 120 115 177 269 177v15c0 21 -19 62 -88 62c-45 0 -91 -17 -119 -35l-28 95
c36 20 97 43 163 43c73 0 124 -28 150 -79h3c35 51 90 79 156 79c131 0 191 -113 191 -240c0 -20 -2 -41 -4 -54zM299 172v58c-71 1 -133 -18 -133 -78c0 -39 28 -58 58 -58c34 0 59 21 70 49c4 8 5 18 5 29zM432 303h157c1 39 -14 100 -74 100c-58 0 -82 -62 -83 -100z
M392 698h133l-116 -148h-97z" />
    <glyph glyph-name="space_uni0326" unicode="&#xf6c3;" 
d="M83 -237l-22 63c30 6 63 26 63 58c0 24 -17 46 -30 60l103 16c19 -14 38 -42 38 -77c0 -79 -69 -116 -152 -120z" />
    <glyph glyph-name="acute.cap" unicode="&#xf6c9;" 
d="M165 830h152l-123 -120h-113z" />
    <glyph glyph-name="breve.cap" unicode="&#xefee;" 
d="M15 844h78c2 -23 18 -45 57 -45c38 0 55 20 59 45h75c-1 -72 -43 -123 -134 -123c-93 0 -134 51 -135 123z" />
    <glyph glyph-name="caron.cap" unicode="&#xf6ca;" 
d="M206 710h-111l-96 119h104l46 -59h2l47 59h102z" />
    <glyph glyph-name="cedilla.cap" unicode="&#xeff2;" 
d="M125 4h78l-24 -49c37 -8 71 -34 71 -78c0 -68 -60 -91 -117 -91c-29 0 -61 6 -82 19l19 60c15 -8 37 -14 56 -14c18 0 34 7 34 24c0 21 -24 33 -76 38z" />
    <glyph glyph-name="circumflex.cap" unicode="&#xeff7;" 
d="M94 829h111l96 -119h-104l-46 59h-2l-47 -59h-102z" />
    <glyph glyph-name="space_uni0326.cap" unicode="&#xf634;" 
d="M83 -236l-22 63c30 7 63 26 63 58c0 23 -17 46 -30 60l103 16c19 -14 38 -41 38 -77c0 -79 -69 -116 -152 -120z" />
    <glyph glyph-name="dieresis.cap" unicode="&#xf6cb;" 
d="M49 713c-36 0 -65 30 -65 67c0 38 30 67 66 67s64 -29 64 -67c0 -37 -28 -67 -65 -67zM250 713c-37 0 -65 30 -65 67c0 38 29 67 66 67c36 0 64 -29 64 -67c0 -37 -28 -67 -65 -67z" />
    <glyph glyph-name="dotaccent.cap" unicode="&#xefed;" 
d="M150 714c-37 0 -67 31 -67 67c0 38 30 67 68 67c37 0 66 -29 66 -67c0 -36 -29 -67 -67 -67z" />
    <glyph glyph-name="grave.cap" unicode="&#xf6ce;" 
d="M-7 830h152l84 -119h-113z" />
    <glyph glyph-name="hungarumlaut.cap" unicode="&#xf6cf;" 
d="M80 831h131l-99 -114h-95zM251 831h131l-99 -114h-95z" />
    <glyph glyph-name="macron.cap" unicode="&#xf6d0;" 
d="M25 815h252v-80h-252v80z" />
    <glyph glyph-name="ogonek.cap" unicode="&#xeff1;" 
d="M85 3h81c-10 -19 -25 -49 -25 -76c0 -28 20 -50 49 -50c18 0 33 4 43 8l20 -70c-28 -20 -67 -29 -98 -29c-68 0 -108 36 -108 103c0 47 26 95 38 114z" />
    <glyph glyph-name="ring.cap" unicode="&#xeff3;" horiz-adv-x="400" 
d="M202 889c75 0 111 -44 111 -96c0 -53 -40 -96 -112 -96c-73 0 -112 44 -112 94c0 52 39 98 113 98zM199 839c-28 0 -41 -24 -41 -48c0 -21 15 -44 42 -44c29 0 43 21 43 46c0 23 -15 46 -44 46z" />
    <glyph glyph-name="tilde.cap" unicode="&#xeff5;" 
d="M83 715h-67c-2 82 28 124 74 124c26 0 44 -9 61 -18c16 -10 30 -19 42 -19c16 0 22 9 26 41h65c2 -87 -26 -121 -76 -121c-25 0 -45 8 -61 17c-17 9 -28 17 -41 17c-12 0 -21 -13 -23 -41z" />
    <glyph glyph-name="Alpha" unicode="&#x391;" horiz-adv-x="597" 
d="M377 167h-172l-42 -167h-148l188 674h186l186 -674h-153zM225 277h133l-36 143c-10 40 -21 96 -30 137h-3c-9 -41 -19 -98 -28 -137z" />
    <glyph glyph-name="Beta" unicode="&#x392;" horiz-adv-x="568" 
d="M64 2v663c40 8 112 14 183 14c83 0 142 -9 190 -41c44 -26 72 -72 72 -130c0 -59 -34 -116 -108 -144v-3c78 -21 130 -81 130 -164c0 -61 -25 -108 -64 -141c-47 -40 -124 -63 -251 -63c-68 0 -119 4 -152 9zM209 568v-164h43c71 0 111 35 111 87c0 51 -34 81 -98 81
c-28 0 -45 -2 -56 -4zM209 299v-194c13 -3 28 -3 49 -3c65 0 120 29 120 99c0 68 -56 98 -124 98h-45z" />
    <glyph glyph-name="Gamma" unicode="&#x393;" horiz-adv-x="445" 
d="M64 674h375v-123h-229v-551h-146v674z" />
    <glyph glyph-name="uni0394" unicode="&#x394;" horiz-adv-x="594" 
d="M15 0v73l195 601h177l188 -600v-74h-560zM170 122h244l-82 268c-13 47 -29 118 -39 161h-3c-8 -36 -24 -104 -37 -153z" />
    <glyph glyph-name="Epsilon" unicode="&#x395;" horiz-adv-x="492" 
d="M430 408v-119h-220v-168h246v-121h-392v674h378v-121h-232v-145h220z" />
    <glyph glyph-name="Zeta" unicode="&#x396;" horiz-adv-x="520" 
d="M20 0v81l289 467v3h-263v123h445v-91l-281 -457v-3h284v-123h-474z" />
    <glyph glyph-name="Eta" unicode="&#x397;" horiz-adv-x="637" 
d="M64 674h146v-263h217v263h146v-674h-146v282h-217v-282h-146v674z" />
    <glyph glyph-name="Theta" unicode="&#x398;" horiz-adv-x="650" 
d="M320 -10c-186 0 -288 154 -288 344c0 197 114 350 298 350c195 0 289 -162 289 -339c0 -231 -122 -355 -299 -355zM327 108c90 0 139 98 139 232c0 121 -47 226 -140 226c-91 0 -141 -103 -141 -229c0 -130 51 -229 142 -229zM235 404h180v-122h-180v122z" />
    <glyph glyph-name="Iota" unicode="&#x399;" horiz-adv-x="274" 
d="M64 674h146v-674h-146v674z" />
    <glyph glyph-name="Kappa" unicode="&#x39a;" horiz-adv-x="568" 
d="M64 0v674h145v-300h3c13 27 27 53 42 78l133 222h175l-202 -289l211 -385h-167l-146 287l-49 -66v-221h-145z" />
    <glyph glyph-name="Lambda" unicode="&#x39b;" horiz-adv-x="590" 
d="M577 0h-157l-97 378c-12 53 -24 110 -34 163h-2c-10 -54 -19 -111 -30 -164l-91 -377h-152l188 674h182z" />
    <glyph glyph-name="Mu" unicode="&#x39c;" horiz-adv-x="783" 
d="M597 0l-11 251c-3 77 -6 171 -6 262h-2c-19 -82 -44 -174 -66 -246l-75 -256h-111l-67 254c-20 72 -41 164 -55 248h-3c-2 -86 -7 -185 -10 -264l-13 -249h-132l45 674h183l62 -231c21 -79 41 -161 55 -239h3c16 77 36 162 57 240l66 230h181l38 -674h-139z" />
    <glyph glyph-name="Nu" unicode="&#x39d;" horiz-adv-x="638" 
d="M196 0h-132v674h160l129 -252c35 -65 72 -150 99 -221h3c-8 84 -13 182 -13 291v182h132v-674h-147l-132 259c-36 68 -76 154 -103 227h-3c4 -83 7 -181 7 -299v-187z" />
    <glyph glyph-name="Xi" unicode="&#x39e;" horiz-adv-x="527" 
d="M51 674h429v-121h-429v121zM78 405h373v-120h-373v120zM39 121h452v-121h-452v121z" />
    <glyph glyph-name="Omicron" unicode="&#x39f;" horiz-adv-x="646" 
d="M318 -10c-185 0 -286 154 -286 344c0 197 113 350 296 350c194 0 287 -162 287 -339c0 -231 -121 -355 -297 -355zM325 109c89 0 136 98 136 231c0 120 -45 225 -137 225c-90 0 -139 -103 -138 -228c-1 -129 49 -228 139 -228z" />
    <glyph glyph-name="Pi" unicode="&#x3a0;" horiz-adv-x="620" 
d="M556 674v-674h-146v548h-200v-548h-146v674h492z" />
    <glyph glyph-name="Rho" unicode="&#x3a1;" horiz-adv-x="544" 
d="M64 0v665c44 8 105 14 185 14c89 0 155 -16 200 -54c42 -34 67 -90 67 -153c0 -68 -22 -123 -60 -161c-49 -47 -124 -69 -203 -69c-17 0 -32 1 -44 3v-245h-145zM209 561v-202c11 -2 24 -3 42 -3c76 0 120 43 120 109c0 62 -37 101 -109 101c-25 0 -43 -2 -53 -5z" />
    <glyph glyph-name="Sigma" unicode="&#x3a3;" horiz-adv-x="531" 
d="M206 125v-4h293v-121h-473v84l183 252l-175 244v94h443v-121h-260v-4l146 -207z" />
    <glyph glyph-name="Tau" unicode="&#x3a4;" horiz-adv-x="501" 
d="M177 0v548h-163v126h474v-126h-165v-548h-146z" />
    <glyph glyph-name="Upsilon" unicode="&#x3a5;" horiz-adv-x="576" 
d="M6 557l24 123c44 -1 117 -23 168 -77c51 -53 83 -132 92 -228h6c11 92 49 167 96 218c48 53 116 85 155 87l24 -126c-90 -28 -172 -144 -199 -275c-10 -46 -15 -89 -15 -132v-147h-146v147c0 48 -3 83 -9 127c-22 142 -84 259 -196 283z" />
    <glyph glyph-name="Phi" unicode="&#x3a6;" horiz-adv-x="725" 
d="M429 28v-54h-135v54c-138 19 -265 116 -265 307c0 198 144 296 266 314v51h135v-51c137 -18 265 -119 265 -307c0 -189 -125 -293 -266 -314zM295 133v412c-55 -12 -119 -79 -119 -210c0 -119 63 -190 119 -202zM429 545v-412c57 12 119 74 119 204
c0 135 -63 197 -119 208z" />
    <glyph glyph-name="Chi" unicode="&#x3a7;" horiz-adv-x="551" 
d="M541 0h-164l-56 123c-21 44 -36 80 -52 120h-2c-14 -40 -28 -77 -47 -121l-50 -122h-160l174 342l-168 332h164l53 -123c17 -40 30 -73 45 -111h2c15 42 26 73 41 111l50 123h161l-171 -331z" />
    <glyph glyph-name="Psi" unicode="&#x3a8;" horiz-adv-x="692" 
d="M654 674v-186c0 -203 -105 -288 -241 -300v-188h-133v188c-133 11 -241 82 -241 263v223h138v-206c0 -123 41 -163 104 -169v375h131v-376c60 6 104 54 104 204v172h138z" />
    <glyph glyph-name="uni03A9" unicode="&#x3a9;" horiz-adv-x="681" 
d="M528 116v-3h122v-113h-272v86c57 49 109 139 109 266c0 113 -52 213 -145 213c-91 0 -148 -96 -148 -214c0 -114 52 -222 110 -265v-86h-273v113h120v3c-52 51 -108 139 -109 256c0 173 122 312 304 312c193 0 291 -151 291 -302c0 -125 -60 -215 -109 -266z" />
    <glyph glyph-name="Alphatonos" unicode="&#x386;" horiz-adv-x="609" 
d="M390 167h-172l-43 -167h-148l188 674h187l186 -674h-153zM237 277h133l-36 143c-10 40 -21 96 -30 137h-2c-9 -41 -20 -98 -29 -137zM19 674h115l-36 -172h-80z" />
    <glyph glyph-name="Epsilontonos" unicode="&#x388;" horiz-adv-x="592" 
d="M530 408v-119h-220v-168h246v-121h-392v674h379v-121h-233v-145h220zM2 674h115l-36 -171h-81z" />
    <glyph glyph-name="Etatonos" unicode="&#x389;" horiz-adv-x="737" 
d="M164 674h146v-263h217v263h146v-674h-146v282h-217v-282h-146v674zM2 674h115l-36 -172h-81z" />
    <glyph glyph-name="Iotatonos" unicode="&#x38a;" horiz-adv-x="374" 
d="M164 674h146v-674h-146v674zM2 674h115l-36 -172h-81z" />
    <glyph glyph-name="Iotadieresis" unicode="&#x3aa;" horiz-adv-x="274" 
d="M39 712c-37 0 -65 30 -65 67c0 38 29 66 66 66c36 0 63 -28 63 -66c0 -37 -27 -67 -64 -67zM234 712c-36 0 -64 30 -64 67c0 38 28 66 65 66s64 -28 64 -66c0 -37 -27 -67 -65 -67zM64 674h146v-674h-146v674z" />
    <glyph glyph-name="Omicrontonos" unicode="&#x38c;" horiz-adv-x="718" 
d="M390 -10c-185 0 -286 154 -286 344c0 197 113 350 296 350c194 0 287 -162 287 -339c0 -231 -121 -355 -297 -355zM397 109c89 0 136 98 136 231c0 120 -45 225 -137 225c-90 0 -139 -103 -138 -228c-1 -129 49 -228 139 -228zM2 674h116l-37 -172h-80z" />
    <glyph glyph-name="Upsilontonos" unicode="&#x38e;" horiz-adv-x="721" 
d="M149 557l24 123c44 -1 117 -23 168 -77c51 -53 83 -132 92 -228h6c11 92 49 167 96 218c48 53 116 85 155 87l24 -126c-90 -28 -172 -144 -199 -275c-10 -46 -15 -89 -15 -132v-147h-146v147c0 48 -3 83 -9 127c-22 142 -84 259 -196 283zM2 674h115l-36 -172h-80z" />
    <glyph glyph-name="Upsilondieresis" unicode="&#x3ab;" horiz-adv-x="576" 
d="M195 696c-37 0 -65 30 -65 67c0 38 29 66 66 66c36 0 63 -28 63 -66c0 -37 -27 -67 -64 -67zM390 696c-36 0 -64 30 -64 67c0 38 28 66 65 66s64 -28 64 -66c0 -37 -27 -67 -65 -67zM7 557l23 123c44 -1 117 -23 168 -77c51 -53 83 -132 92 -228h6c11 92 49 167 96 218
c48 53 116 85 155 87l24 -126c-90 -28 -172 -144 -199 -275c-10 -46 -15 -89 -15 -132v-147h-146v147c0 48 -3 83 -9 127c-22 142 -84 259 -195 283z" />
    <glyph glyph-name="Omegatonos" unicode="&#x38f;" horiz-adv-x="746" 
d="M593 116v-3h122v-113h-272v86c57 49 109 133 109 266c0 113 -52 213 -144 213c-91 0 -148 -96 -148 -214c0 -121 52 -223 109 -265v-86h-273v113h120v3c-52 51 -108 139 -108 256c0 173 122 312 304 312c192 0 290 -151 290 -302c0 -125 -60 -215 -109 -266zM2 674h115
l-36 -172h-80z" />
    <glyph glyph-name="alpha" unicode="&#x3b1;" horiz-adv-x="542" 
d="M376 489h118c-6 -65 -13 -217 -13 -327c0 -51 16 -64 43 -63l-9 -102c-9 -4 -30 -7 -47 -7c-54 0 -88 27 -100 85h-3c-29 -54 -81 -85 -143 -85c-111 0 -190 101 -190 243c0 167 104 266 207 266c53 0 97 -24 121 -72h4c3 22 8 44 12 62zM179 241c0 -78 33 -135 81 -135
c37 0 68 37 77 84c2 19 3 36 3 57s0 35 -2 50c-7 54 -36 89 -73 89c-53 0 -86 -67 -86 -145z" />
    <glyph glyph-name="beta" unicode="&#x3b2;" horiz-adv-x="547" 
d="M197 31h-2v-53c0 -63 4 -136 13 -174h-136c-13 28 -19 96 -19 172v440c0 141 30 201 73 242c35 34 83 57 152 57c122 0 189 -82 189 -182c0 -61 -30 -123 -78 -148v-6c66 -17 126 -85 126 -181c0 -124 -84 -208 -197 -208c-47 0 -89 12 -121 41zM195 445v-298
c20 -28 51 -45 86 -45c57 0 88 46 88 103c0 66 -45 105 -97 110c-7 2 -14 1 -21 1v94c5 0 10 1 15 2c43 9 69 50 69 102c0 48 -24 86 -64 86c-47 0 -76 -42 -76 -155z" />
    <glyph glyph-name="gamma" unicode="&#x3b3;" horiz-adv-x="481" 
d="M300 -196h-142c2 114 2 197 -18 293c-34 161 -105 309 -151 392h159c32 -57 83 -197 106 -338h4c30 76 65 190 65 292c0 21 0 34 -1 46h137c1 -10 2 -25 2 -39c0 -119 -62 -278 -158 -428c-5 -8 -6 -14 -6 -23c1 -49 2 -128 3 -195z" />
    <glyph glyph-name="delta" unicode="&#x3b4;" horiz-adv-x="535" 
d="M466 669l-36 -92c-18 12 -67 33 -113 33c-35 0 -50 -11 -50 -27c0 -15 19 -32 52 -61l74 -66c66 -58 110 -129 110 -216c0 -159 -112 -250 -239 -250c-132 0 -232 96 -232 240c0 121 80 196 153 233v5l-17 17c-18 19 -52 56 -52 102c0 63 65 128 185 128
c78 0 137 -25 165 -46zM300 357l-39 36c-45 -31 -80 -82 -80 -162c0 -78 40 -135 91 -135s85 56 85 130c0 49 -20 96 -57 131z" />
    <glyph glyph-name="epsilon" unicode="&#x3b5;" horiz-adv-x="438" 
d="M137 257v5c-51 15 -83 53 -83 102c0 68 64 136 204 136c63 0 111 -12 147 -33l-25 -95c-24 13 -63 24 -103 24c-49 0 -78 -20 -78 -47c0 -33 44 -46 109 -46h38v-96h-40c-66 -1 -119 -13 -119 -52c0 -37 44 -55 91 -55c44 0 94 14 122 27l18 -97
c-48 -29 -119 -40 -177 -40c-103 0 -209 40 -209 150c0 60 50 106 105 117z" />
    <glyph glyph-name="zeta" unicode="&#x3b6;" horiz-adv-x="414" 
d="M337 -148l-91 29c12 25 24 72 26 96c-31 6 -69 15 -105 31c-70 29 -134 91 -134 211c0 131 76 270 193 372v5h-43c-42 0 -81 3 -107 13l14 95c31 -3 81 -4 135 -4h167l21 -97c-120 -58 -231 -216 -231 -354c0 -79 31 -120 83 -144c39 -19 88 -27 132 -34
c6 -1 10 -7 10 -13c0 -74 -36 -164 -70 -206z" />
    <glyph glyph-name="eta" unicode="&#x3b7;" horiz-adv-x="547" 
d="M185 425h3c21 33 69 74 142 74c98 0 162 -69 162 -202v-320c0 -63 2 -137 10 -173h-138c-13 25 -18 99 -18 174v304c0 56 -19 98 -69 98c-36 0 -59 -25 -69 -53c-4 -10 -6 -25 -6 -40v-287h-146v335c0 62 -4 120 -15 154h128c8 -15 15 -40 16 -64z" />
    <glyph glyph-name="theta" unicode="&#x3b8;" horiz-adv-x="528" 
d="M263 -10c-143 0 -231 118 -231 368c0 222 91 357 238 357c151 0 227 -134 227 -357c0 -244 -84 -368 -234 -368zM174 413h180c-1 121 -33 199 -89 199s-91 -79 -91 -199zM355 306h-180c0 -137 34 -213 91 -213c60 0 89 79 89 213z" />
    <glyph glyph-name="iota" unicode="&#x3b9;" horiz-adv-x="266" 
d="M202 489v-341c0 -38 14 -50 44 -48l-8 -102c-13 -5 -39 -8 -60 -8c-71 0 -122 28 -122 145v354h146z" />
    <glyph glyph-name="kappa" unicode="&#x3ba;" horiz-adv-x="512" 
d="M326 267v-4c45 -14 78 -75 112 -139l67 -124h-166l-48 100c-30 60 -53 99 -82 101h-7v-201h-146v365c0 49 -4 105 -12 124h143c9 -11 15 -40 15 -86v-119h3c46 62 100 152 134 205h162v-5c-54 -68 -113 -141 -175 -217z" />
    <glyph glyph-name="lambda" unicode="&#x3bb;" horiz-adv-x="479" 
d="M322 0l-61 218c-7 28 -15 59 -25 102h-5c-5 -34 -13 -68 -21 -100l-57 -220h-150l158 451c3 10 4 17 4 23c0 7 -3 16 -6 26c-21 57 -58 90 -95 90h-19l12 113c10 3 30 5 45 5c112 0 164 -101 206 -223l167 -485h-153z" />
    <glyph glyph-name="uni03BC" unicode="&#x3bc;" horiz-adv-x="546" 
d="M364 62h-3c-15 -33 -52 -67 -107 -67c-24 0 -49 9 -64 27v-41c0 -58 3 -141 10 -177h-130c-9 25 -14 100 -14 181v504h146v-284c0 -62 22 -98 65 -98c35 0 60 26 69 48c4 9 6 23 6 36v298h146v-335c0 -42 11 -54 39 -55l-9 -101c-12 -5 -29 -8 -51 -8
c-54 0 -87 25 -103 72z" />
    <glyph glyph-name="nu" unicode="&#x3bd;" horiz-adv-x="474" 
d="M-1 489h155l57 -225c11 -41 19 -81 28 -124h4c34 82 74 209 74 311v38h134c2 -12 3 -24 3 -38c0 -133 -79 -303 -161 -451h-139z" />
    <glyph glyph-name="xi" unicode="&#x3be;" horiz-adv-x="441" 
d="M372 431v-101h-24c-104 0 -163 -44 -163 -117c0 -58 39 -94 118 -117c37 -10 71 -17 119 -25c9 -2 13 -6 13 -13c0 -67 -38 -164 -71 -206l-92 29c13 25 23 72 25 96c-113 20 -265 61 -265 221c0 97 64 168 145 192v5c-65 25 -101 78 -101 142c0 96 77 178 221 178
c56 0 94 -10 125 -24l-21 -98c-22 10 -52 17 -82 17c-65 0 -97 -42 -97 -86c0 -60 53 -87 122 -92c8 -1 18 -1 28 -1z" />
    <glyph glyph-name="omicron" unicode="&#x3bf;" horiz-adv-x="533" 
d="M265 -10c-135 0 -233 94 -233 252c0 163 101 258 240 258c138 0 229 -101 229 -251c0 -187 -123 -259 -236 -259zM269 96c54 0 83 66 83 150c0 71 -23 148 -84 148c-65 0 -87 -78 -87 -149c0 -83 29 -149 88 -149z" />
    <glyph glyph-name="rho" unicode="&#x3c1;" horiz-adv-x="547" 
d="M200 36h-2v-59c0 -62 2 -137 8 -173h-140c-9 25 -13 96 -14 174v228c0 138 42 201 88 239c42 35 91 54 150 54c142 0 225 -106 225 -252c0 -173 -106 -257 -208 -257c-48 0 -87 19 -107 46zM198 237v-49c0 -12 1 -22 4 -32c10 -28 39 -52 74 -52c60 0 92 62 92 141
c0 80 -32 133 -85 133c-48 0 -85 -45 -85 -141z" />
    <glyph glyph-name="sigma" unicode="&#x3c3;" horiz-adv-x="547" 
d="M433 400l-1 -4c42 -36 63 -101 63 -152c0 -183 -118 -254 -230 -254c-135 0 -233 92 -233 250c0 163 100 259 248 259h78h74h107l-6 -106c-23 0 -55 2 -100 7zM269 96c53 0 82 66 82 150c0 71 -23 147 -82 147c-66 0 -88 -77 -88 -148c0 -84 29 -149 88 -149z" />
    <glyph glyph-name="tau" unicode="&#x3c4;" horiz-adv-x="424" 
d="M342 102l-5 -102c-13 -6 -37 -10 -66 -10c-105 0 -139 60 -139 168v219h-38c-41 0 -64 -3 -83 -7l-19 88c18 13 56 31 158 31h265l-14 -112h-123v-208c0 -50 19 -67 46 -67h18z" />
    <glyph glyph-name="upsilon" unicode="&#x3c5;" horiz-adv-x="520" 
d="M314 489h136c16 -36 34 -103 34 -184c0 -155 -54 -315 -233 -315c-114 0 -201 66 -201 200v142c0 68 -1 124 -10 157h142c10 -13 14 -43 14 -97v-194c0 -58 29 -89 67 -89c58 0 78 84 78 182c0 86 -16 169 -27 198z" />
    <glyph glyph-name="phi" unicode="&#x3c6;" horiz-adv-x="671" 
d="M194 500l60 -75c-39 -32 -78 -90 -78 -173c0 -82 37 -144 97 -161v237c0 125 77 172 153 171c109 -2 213 -95 213 -244c0 -165 -125 -252 -236 -264v-187h-130v187c-114 11 -241 84 -241 257c0 144 103 231 162 252zM403 359v-269c57 12 97 71 97 163
c0 86 -39 144 -73 144c-15 0 -24 -13 -24 -38z" />
    <glyph glyph-name="chi" unicode="&#x3c7;" horiz-adv-x="471" 
d="M4 489h154l88 -222h4c10 28 18 55 31 88l50 134h138l-155 -333l154 -347l-137 -31l-104 253l-5 -1c-9 -24 -19 -57 -34 -96l-63 -156l-125 31l159 347z" />
    <glyph glyph-name="psi" unicode="&#x3c8;" horiz-adv-x="681" 
d="M280 -196v186c-117 10 -229 64 -229 257v116c0 50 -1 94 -7 126h131c10 -13 13 -48 13 -97v-134c0 -122 42 -160 93 -166v517h129v-517c67 3 99 94 99 201c0 94 -18 171 -28 196h127c19 -38 37 -100 37 -186c0 -154 -57 -300 -234 -313v-186h-131z" />
    <glyph glyph-name="omega" unicode="&#x3c9;" horiz-adv-x="692" 
d="M413 368l-3 -181c0 -41 15 -75 44 -75c36 0 64 51 64 152c0 85 -23 172 -67 224v3h132c36 -36 77 -124 77 -232c0 -171 -84 -269 -192 -269c-56 0 -102 30 -122 75h-4c-23 -42 -66 -75 -124 -75c-96 0 -186 85 -186 257c0 115 42 201 80 244h130v-3
c-41 -53 -69 -139 -69 -232c0 -100 31 -144 62 -144c29 0 44 35 43 76l-2 180h137z" />
    <glyph glyph-name="uni03C2" unicode="&#x3c2;" horiz-adv-x="426" 
d="M413 478l-26 -106c-21 8 -48 14 -75 14c-79 0 -131 -64 -131 -149c0 -70 34 -112 98 -135c40 -13 78 -21 124 -30c5 -1 8 -6 8 -13c0 -76 -37 -171 -68 -209l-94 30c13 25 24 72 27 96c-22 6 -49 12 -75 21c-89 29 -169 98 -169 231c0 139 98 271 274 271
c44 0 82 -8 107 -21z" />
    <glyph glyph-name="alphatonos" unicode="&#x3ac;" horiz-adv-x="543" 
d="M267 696h125l-75 -148h-92zM376 489h118c-6 -65 -13 -217 -13 -327c0 -51 16 -64 43 -63l-9 -102c-9 -4 -30 -7 -47 -7c-54 0 -88 27 -100 85h-3c-29 -54 -81 -85 -143 -85c-111 0 -190 101 -190 243c0 167 104 266 207 266c53 0 97 -24 121 -72h4c3 22 8 44 12 62z
M179 241c0 -78 33 -135 81 -135c37 0 68 37 77 84c2 19 3 36 3 57s0 35 -2 50c-7 54 -36 89 -73 89c-53 0 -86 -67 -86 -145z" />
    <glyph glyph-name="epsilontonos" unicode="&#x3ad;" horiz-adv-x="438" 
d="M230 696h125l-75 -148h-92zM137 257v5c-51 15 -83 52 -83 102c0 68 64 136 204 136c63 0 110 -12 147 -34l-25 -94c-24 13 -63 24 -103 24c-49 0 -78 -20 -78 -47c0 -33 44 -46 109 -46h38v-96h-40c-66 -1 -119 -13 -119 -52c0 -37 44 -55 91 -55c44 0 94 14 122 27
l18 -97c-48 -29 -119 -40 -177 -40c-103 0 -209 40 -209 150c0 60 50 106 105 117z" />
    <glyph glyph-name="etatonos" unicode="&#x3ae;" horiz-adv-x="547" 
d="M268 696h125l-75 -148h-92zM185 425h3c21 33 69 74 142 74c98 0 162 -69 162 -202v-320c0 -63 2 -137 10 -173h-138c-13 25 -18 99 -18 174v304c0 56 -19 98 -69 98c-36 0 -59 -25 -69 -53c-4 -10 -6 -25 -6 -40v-287h-146v335c0 62 -4 120 -15 154h128
c8 -15 15 -40 16 -64z" />
    <glyph glyph-name="iotatonos" unicode="&#x3af;" horiz-adv-x="266" 
d="M121 697h129l-75 -148h-95zM202 489v-341c0 -38 14 -50 44 -48l-8 -102c-13 -5 -39 -8 -60 -8c-71 0 -122 28 -122 145v354h146z" />
    <glyph glyph-name="iotadieresis" unicode="&#x3ca;" horiz-adv-x="266" 
d="M34 551c-37 0 -66 30 -66 67c0 39 30 68 67 68s65 -28 65 -68c0 -37 -27 -67 -66 -67zM230 551c-38 0 -66 30 -66 67c0 39 29 68 67 68c37 0 65 -28 65 -68c0 -37 -27 -67 -66 -67zM203 489v-341c0 -38 14 -50 44 -48l-8 -102c-13 -5 -39 -8 -60 -8
c-71 0 -122 28 -122 145v354h146z" />
    <glyph glyph-name="omicrontonos" unicode="&#x3cc;" horiz-adv-x="533" 
d="M261 696h124l-75 -148h-91zM265 -10c-135 0 -233 94 -233 252c0 163 101 258 240 258c138 0 229 -101 229 -251c0 -187 -123 -259 -236 -259zM269 96c54 0 83 66 83 150c0 71 -23 148 -84 148c-65 0 -87 -78 -87 -149c0 -83 29 -149 88 -149z" />
    <glyph glyph-name="upsilontonos" unicode="&#x3cd;" horiz-adv-x="520" 
d="M247 697h129l-75 -148h-95zM314 489h136c16 -36 34 -103 34 -184c0 -155 -54 -315 -233 -315c-114 0 -201 66 -201 200v142c0 68 -1 124 -10 157h142c10 -13 14 -43 14 -97v-194c0 -58 29 -89 67 -89c58 0 78 84 78 182c0 86 -16 169 -27 198z" />
    <glyph glyph-name="upsilondieresis" unicode="&#x3cb;" horiz-adv-x="520" 
d="M155 551c-37 0 -66 30 -66 67c0 39 30 68 67 68s65 -28 65 -68c0 -37 -27 -67 -66 -67zM351 551c-38 0 -66 30 -66 67c0 39 29 68 67 68c37 0 65 -28 65 -68c0 -37 -27 -67 -66 -67zM315 489h135c16 -36 34 -103 34 -184c0 -155 -54 -315 -233 -315
c-114 0 -201 66 -201 200v142c0 68 -1 124 -10 157h142c10 -13 14 -43 14 -97v-194c0 -58 29 -89 67 -89c58 0 78 84 78 182c0 86 -16 169 -26 198z" />
    <glyph glyph-name="omegatonos" unicode="&#x3ce;" horiz-adv-x="692" 
d="M339 696h125l-75 -148h-92zM413 368l-3 -181c0 -41 15 -75 44 -75c36 0 64 51 64 152c0 85 -23 172 -67 224v3h132c36 -36 77 -124 77 -232c0 -171 -84 -269 -192 -269c-56 0 -102 30 -122 75h-4c-23 -42 -66 -75 -124 -75c-96 0 -186 85 -186 257c0 115 42 201 80 244
h130v-3c-41 -53 -69 -139 -69 -232c0 -100 31 -144 62 -144c29 0 44 35 43 76l-2 180h137z" />
    <glyph glyph-name="iotadieresistonos" unicode="&#x390;" horiz-adv-x="266" 
d="M203 489v-341c0 -38 14 -50 44 -48l-8 -102c-13 -5 -39 -8 -60 -8c-71 0 -122 28 -122 145v354h146zM103 714h107l-51 -167h-74zM-1 556c-33 0 -60 27 -60 61s28 60 61 60c32 0 58 -25 58 -60c0 -34 -26 -61 -59 -61zM278 556c-33 0 -59 27 -59 61s27 60 60 60
s59 -25 59 -60c0 -34 -26 -61 -60 -61z" />
    <glyph glyph-name="upsilondieresistonos" unicode="&#x3b0;" horiz-adv-x="520" 
d="M314 489h136c16 -36 34 -103 34 -184c0 -155 -54 -315 -233 -315c-114 0 -201 66 -201 200v142c0 68 -1 124 -10 157h142c10 -13 14 -43 14 -97v-194c0 -58 29 -89 67 -89c58 0 78 84 78 182c0 86 -16 169 -27 198zM221 712h106l-51 -167h-73zM115 554
c-33 0 -60 27 -60 61c0 35 28 61 61 61c32 0 58 -26 58 -61c0 -34 -26 -61 -59 -61zM397 554c-33 0 -59 27 -59 61c0 35 27 61 60 61s59 -26 59 -61c0 -34 -26 -61 -60 -61z" />
    <glyph glyph-name="uni037E" unicode="&#x37e;" horiz-adv-x="269" 
d="M119 -112l-95 -9c23 87 45 191 52 274l146 5c-25 -89 -64 -194 -103 -270zM141 287c-51 0 -88 40 -88 94c0 55 38 95 90 95s89 -38 89 -95c0 -54 -35 -94 -91 -94z" />
    <glyph glyph-name="anoteleia" unicode="&#x387;" horiz-adv-x="269" 
d="M133 216c-53 0 -93 41 -93 99c0 59 41 100 94 100c55 0 94 -39 94 -100c0 -58 -38 -99 -95 -99z" />
    <glyph glyph-name="tonos" unicode="&#x384;" horiz-adv-x="306" 
d="M127 698h125l-75 -148h-92z" />
    <glyph glyph-name="dieresistonos" unicode="&#x385;" horiz-adv-x="434" 
d="M178 724h108l-51 -171h-75zM72 563c-33 0 -60 28 -60 62c0 35 28 61 61 61s59 -26 59 -61c0 -34 -26 -62 -60 -62zM355 563c-33 0 -59 28 -59 62c0 35 27 61 60 61c34 0 60 -26 60 -61c0 -34 -26 -62 -61 -62z" />
    <glyph glyph-name="dieresis_acutecomb" unicode="&#xf6d7;" horiz-adv-x="301" 
d="M-4 559c-34 0 -62 28 -62 64c0 38 28 65 64 65c35 0 62 -27 62 -65c0 -36 -26 -64 -64 -64zM301 559c-35 0 -62 28 -62 64c0 38 27 65 64 65c35 0 62 -27 62 -65c0 -36 -26 -64 -64 -64zM127 703h123l-97 -148h-87z" />
    <glyph glyph-name="dieresis_gravecomb" unicode="&#xf6d8;" horiz-adv-x="301" 
d="M-3 559c-34 0 -62 28 -62 64c0 38 28 65 64 65c35 0 62 -27 62 -65c0 -36 -26 -64 -64 -64zM301 559c-35 0 -62 28 -62 64c0 38 27 65 64 65c35 0 62 -27 62 -65c0 -36 -26 -64 -64 -64zM52 704h123l61 -148h-87z" />
    <glyph glyph-name="space_uni030F" unicode="&#xf6d6;" 
d="M-30 695h112l67 -146h-78zM139 695h112l67 -146h-79z" />
    <glyph glyph-name="dieresis_acutecomb.cap" unicode="&#xf6cc;" horiz-adv-x="301" 
d="M-17 714c-33 0 -60 28 -60 62c0 36 28 63 62 63c33 0 59 -27 59 -63c0 -34 -26 -62 -61 -62zM318 714c-32 0 -59 28 -59 62c0 36 27 63 61 63s60 -27 60 -63c0 -34 -26 -62 -62 -62zM121 836h139l-116 -125h-102z" />
    <glyph glyph-name="dieresis_gravecomb.cap" unicode="&#xf6cd;" horiz-adv-x="301" 
d="M-18 714c-33 0 -60 28 -60 62c0 36 28 63 62 63c33 0 59 -27 59 -63c0 -34 -26 -62 -61 -62zM317 714c-32 0 -59 28 -59 62c0 36 27 63 61 63s60 -27 60 -63c0 -34 -26 -62 -62 -62zM41 836h139l78 -125h-102z" />
    <glyph glyph-name="space_uni030F.cap" unicode="&#xf6d3;" 
d="M-85 836h142l84 -125h-101zM128 836h142l84 -125h-101z" />
    <glyph glyph-name="o.superior" horiz-adv-x="363" 
d="M183 590c95 0 153 -68 153 -162c0 -120 -79 -168 -156 -168c-88 0 -154 63 -154 163c0 103 67 167 157 167zM179 517c-40 0 -53 -55 -53 -93c0 -50 19 -91 55 -91c37 0 54 41 54 92c0 43 -16 92 -56 92z" />
    <glyph glyph-name="uni0401" unicode="&#x401;" horiz-adv-x="492" 
d="M430 408v-119h-220v-168h246v-121h-392v674h378v-121h-232v-145h220zM151 713c-36 0 -65 30 -65 67c0 38 30 67 66 67s64 -29 64 -67c0 -37 -28 -67 -65 -67zM352 713c-37 0 -65 30 -65 67c0 38 29 67 66 67c36 0 64 -29 64 -67c0 -37 -28 -67 -65 -67z" />
    <glyph glyph-name="uni0402" unicode="&#x402;" horiz-adv-x="667" 
d="M14 674h516v-124h-213v-128h3c25 14 64 26 105 26c75 0 126 -36 160 -88c35 -51 50 -115 50 -191c0 -109 -40 -200 -117 -251c-42 -40 -90 -60 -128 -66l-25 122c29 8 58 22 80 47c21 26 37 73 37 142c0 58 -10 98 -27 124c-18 27 -43 41 -76 41c-25 0 -47 -9 -62 -19
v-309h-146v550h-157v124z" />
    <glyph glyph-name="uni0403" unicode="&#x403;" horiz-adv-x="457" 
d="M64 674h379v-121h-233v-553h-146v674zM260 830h152l-123 -120h-113z" />
    <glyph glyph-name="uni0404" unicode="&#x404;" horiz-adv-x="537" 
d="M512 653l-28 -116c-25 13 -67 26 -115 26c-114 0 -171 -81 -183 -165h270v-117h-268c9 -94 73 -168 187 -168c36 0 83 9 113 22l21 -114c-27 -14 -84 -31 -155 -31c-200 0 -322 131 -322 344c0 175 103 350 329 350c77 0 126 -19 151 -31z" />
    <glyph glyph-name="uni0405" unicode="&#x405;" horiz-adv-x="496" 
d="M36 28l27 122c37 -19 95 -37 152 -37c67 0 102 30 102 74s-32 68 -105 99c-106 45 -168 109 -168 196c0 113 89 201 242 201c67 0 118 -14 152 -31l-30 -119c-24 12 -67 29 -124 29c-63 0 -93 -32 -93 -66c0 -43 32 -62 115 -98c110 -48 158 -111 158 -199
c0 -116 -87 -208 -256 -208c-70 0 -139 19 -172 37z" />
    <glyph glyph-name="uni0406" unicode="&#x406;" horiz-adv-x="274" 
d="M64 674h146v-674h-146v674z" />
    <glyph glyph-name="uni0407" unicode="&#x407;" horiz-adv-x="274" 
d="M64 674h146v-674h-146v674zM36 713c-36 0 -65 30 -65 67c0 38 30 67 66 67s64 -29 64 -67c0 -37 -28 -67 -65 -67zM237 713c-37 0 -65 30 -65 67c0 38 29 67 66 67c36 0 64 -29 64 -67c0 -37 -28 -67 -65 -67z" />
    <glyph glyph-name="uni0408" unicode="&#x408;" horiz-adv-x="376" 
d="M173 237v437h146v-436c0 -192 -92 -248 -225 -248c-32 0 -72 5 -97 14l15 119c18 -6 41 -10 67 -10c56 0 94 25 94 124z" />
    <glyph glyph-name="uni0409" unicode="&#x409;" horiz-adv-x="875" 
d="M112 674h412v-244c20 3 47 5 72 5c133 0 248 -72 248 -214c0 -65 -24 -117 -62 -153c-59 -54 -152 -75 -253 -75c-67 0 -117 4 -150 9v551h-127v-167c0 -167 -19 -303 -115 -364c-31 -20 -74 -33 -119 -33l-23 119c28 5 52 18 68 34c39 42 49 124 49 235v297zM524 321
v-213c15 -3 29 -3 45 -3c69 0 123 42 123 112c0 72 -53 107 -121 107c-17 0 -32 -1 -47 -3z" />
    <glyph glyph-name="uni040A" unicode="&#x40a;" horiz-adv-x="886" 
d="M64 674h146v-254h180v254h145v-246c20 3 47 5 74 5c135 0 245 -72 245 -211c0 -67 -24 -118 -62 -154c-59 -55 -150 -75 -251 -75c-68 0 -118 4 -151 10v293h-180v-296h-146v674zM535 319v-211c15 -3 30 -3 46 -3c70 0 121 42 121 112c0 71 -52 105 -119 105
c-19 0 -34 -1 -48 -3z" />
    <glyph glyph-name="uni040B" unicode="&#x40b;" horiz-adv-x="679" 
d="M14 674h504v-124h-203v-138h3c32 22 83 40 133 40c56 0 98 -19 125 -53c31 -37 45 -91 45 -156v-243h-145v230c0 34 -6 62 -22 80c-13 15 -33 23 -59 23c-30 0 -60 -12 -80 -28v-305h-146v550h-155v124z" />
    <glyph glyph-name="uni040C" unicode="&#x40c;" horiz-adv-x="560" 
d="M64 674h144v-285h12l163 285h173l-211 -304c82 -22 116 -83 141 -164c21 -70 40 -140 68 -206h-154c-21 47 -33 100 -47 151c-21 76 -48 132 -122 132h-23v-283h-144v674zM294 825h152l-123 -120h-113z" />
    <glyph glyph-name="uni040E" unicode="&#x40e;" horiz-adv-x="531" 
d="M-1 674h163l87 -247c16 -44 28 -85 40 -122h3c7 30 17 73 30 125l65 244h152l-118 -341c-36 -98 -73 -198 -119 -258c-40 -55 -94 -89 -166 -89c-31 0 -51 4 -68 9l9 118c10 -2 24 -4 44 -4c43 0 74 32 86 64c5 12 3 22 -2 34zM127 826h97c2 -38 13 -60 44 -60
c30 0 43 21 46 60h97c-7 -86 -61 -121 -145 -121c-81 0 -132 36 -139 121z" />
    <glyph glyph-name="uni040F" unicode="&#x40f;" horiz-adv-x="625" 
d="M64 674h146v-553h206v553h146v-674h-182l-7 -175h-120l-7 175h-182v674z" />
    <glyph glyph-name="uni0410" unicode="&#x410;" horiz-adv-x="597" 
d="M377 167h-172l-42 -167h-148l188 674h186l186 -674h-153zM225 277h133l-36 143c-10 40 -21 96 -30 137h-3c-9 -41 -19 -98 -28 -137z" />
    <glyph glyph-name="uni0411" unicode="&#x411;" horiz-adv-x="565" 
d="M64 674h416v-121h-271v-123c22 3 49 5 73 5c65 0 130 -18 177 -54c45 -34 74 -87 74 -160c0 -65 -24 -116 -62 -152c-59 -55 -155 -76 -256 -76c-67 0 -118 4 -151 9v672zM209 321v-213c15 -3 32 -3 50 -3c35 0 68 12 90 33c19 20 31 47 31 79c0 33 -13 59 -33 76
c-24 21 -58 31 -91 31c-15 0 -31 -1 -47 -3z" />
    <glyph glyph-name="uni0412" unicode="&#x412;" horiz-adv-x="568" 
d="M64 2v663c40 8 112 14 183 14c83 0 142 -9 190 -41c44 -26 72 -72 72 -130c0 -59 -34 -116 -108 -144v-3c78 -21 130 -81 130 -164c0 -61 -25 -108 -64 -141c-47 -40 -124 -63 -251 -63c-68 0 -119 4 -152 9zM209 568v-164h43c71 0 111 35 111 87c0 51 -34 81 -98 81
c-28 0 -45 -2 -56 -4zM209 299v-194c13 -3 28 -3 49 -3c65 0 120 29 120 99c0 68 -56 98 -124 98h-45z" />
    <glyph glyph-name="uni0413" unicode="&#x413;" horiz-adv-x="457" 
d="M64 674h379v-121h-233v-553h-146v674z" />
    <glyph glyph-name="uni0414" unicode="&#x414;" horiz-adv-x="643" 
d="M149 674h413v-556l63 -4l-7 -277h-110l-8 163h-364l-7 -163h-111l-6 277l54 4c25 48 45 98 59 152c17 70 24 146 24 227v177zM284 553v-86c0 -78 -9 -155 -26 -224c-11 -43 -26 -87 -43 -122h201v432h-132z" />
    <glyph glyph-name="uni0415" unicode="&#x415;" horiz-adv-x="492" 
d="M430 408v-119h-220v-168h246v-121h-392v674h378v-121h-232v-145h220z" />
    <glyph glyph-name="uni0416" unicode="&#x416;" horiz-adv-x="822" 
d="M7 674h168l155 -283h12v283h138v-283h12l155 283h168l-215 -303c92 -13 132 -87 157 -173c21 -66 36 -135 63 -198h-146c-20 44 -32 100 -45 146c-20 70 -49 137 -129 137h-20v-283h-138v283h-20c-80 0 -109 -67 -129 -137c-13 -46 -25 -102 -45 -146h-145
c27 63 44 132 63 196c25 85 65 158 156 175z" />
    <glyph glyph-name="uni0417" unicode="&#x417;" horiz-adv-x="501" 
d="M67 528l-31 107c41 25 107 49 192 49c141 0 220 -75 220 -171c0 -79 -54 -138 -128 -157v-2c82 -12 150 -71 149 -162c0 -145 -139 -202 -263 -202c-66 0 -134 14 -183 42l29 114c30 -16 90 -37 145 -37c75 0 119 35 119 91c0 75 -73 94 -138 94h-51v109h49
c66 0 120 30 120 86c0 45 -35 75 -97 75c-45 0 -97 -18 -132 -36z" />
    <glyph glyph-name="uni0418" unicode="&#x418;" horiz-adv-x="637" 
d="M64 674h133v-185c0 -112 -4 -222 -9 -306h2c31 72 73 161 106 228l132 263h144v-674h-132v185c0 113 3 208 10 290h-2c-27 -74 -66 -161 -101 -228l-125 -247h-158v674z" />
    <glyph glyph-name="uni0419" unicode="&#x419;" horiz-adv-x="637" 
d="M64 674h133v-185c0 -112 -4 -222 -9 -306h2c31 72 73 161 106 228l132 263h144v-674h-132v185c0 113 3 208 10 290h-2c-27 -74 -66 -161 -101 -228l-125 -247h-158v674zM176 824h97c2 -38 13 -60 44 -60c30 0 43 21 46 60h97c-7 -86 -61 -121 -145 -121
c-81 0 -132 36 -139 121z" />
    <glyph glyph-name="uni041A" unicode="&#x41a;" horiz-adv-x="560" 
d="M64 674h144v-285h12l163 285h173l-211 -304c82 -22 116 -83 141 -164c21 -70 40 -140 68 -206h-154c-21 47 -33 100 -47 151c-21 76 -48 132 -122 132h-23v-283h-144v674z" />
    <glyph glyph-name="uni041B" unicode="&#x41b;" horiz-adv-x="599" 
d="M112 674h423v-674h-146v553h-137v-166c0 -168 -18 -303 -115 -365c-31 -20 -73 -33 -121 -33l-21 119c28 5 51 17 67 33c41 42 50 125 50 236v297z" />
    <glyph glyph-name="uni041C" unicode="&#x41c;" horiz-adv-x="783" 
d="M597 0l-11 251c-3 77 -6 171 -6 262h-2c-19 -82 -44 -174 -66 -246l-75 -256h-111l-67 254c-20 72 -41 164 -55 248h-3c-2 -86 -7 -185 -10 -264l-13 -249h-132l45 674h183l62 -231c21 -79 41 -161 55 -239h3c16 77 36 162 57 240l66 230h181l38 -674h-139z" />
    <glyph glyph-name="uni041D" unicode="&#x41d;" horiz-adv-x="637" 
d="M64 674h146v-263h217v263h146v-674h-146v282h-217v-282h-146v674z" />
    <glyph glyph-name="uni041E" unicode="&#x41e;" horiz-adv-x="646" 
d="M328 684c194 0 287 -162 287 -339c0 -231 -121 -355 -297 -355c-185 0 -286 154 -286 344c0 197 113 350 296 350zM324 565c-87 0 -138 -94 -138 -229c0 -138 52 -227 139 -227c89 0 136 98 136 231c0 120 -45 225 -137 225z" />
    <glyph glyph-name="uni041F" unicode="&#x41f;" horiz-adv-x="627" 
d="M64 674h500v-674h-146v553h-208v-553h-146v674z" />
    <glyph glyph-name="uni0420" unicode="&#x420;" horiz-adv-x="544" 
d="M64 0v665c44 8 105 14 185 14c89 0 155 -16 200 -54c42 -34 67 -90 67 -153c0 -68 -22 -123 -60 -161c-49 -47 -124 -69 -203 -69c-17 0 -32 1 -44 3v-245h-145zM209 561v-202c11 -2 24 -3 42 -3c76 0 120 43 120 109c0 62 -37 101 -109 101c-25 0 -43 -2 -53 -5z" />
    <glyph glyph-name="uni0421" unicode="&#x421;" horiz-adv-x="535" 
d="M487 133l20 -117c-25 -12 -81 -25 -151 -25c-215 0 -324 145 -324 336c0 237 158 356 339 356c70 0 121 -14 144 -26l-29 -118c-25 12 -61 22 -107 22c-107 0 -193 -71 -193 -225c0 -143 74 -221 193 -221c39 0 82 8 108 18z" />
    <glyph glyph-name="uni0422" unicode="&#x422;" horiz-adv-x="501" 
d="M177 0v548h-163v126h474v-126h-165v-548h-146z" />
    <glyph glyph-name="uni0423" unicode="&#x423;" horiz-adv-x="531" 
d="M-1 674h163l87 -247c16 -44 28 -85 40 -122h3c7 30 17 73 30 125l65 244h152l-118 -341c-36 -98 -73 -198 -119 -258c-40 -55 -94 -89 -166 -89c-31 0 -51 4 -68 9l9 118c10 -2 24 -4 44 -4c43 0 74 32 86 64c5 12 3 22 -2 34z" />
    <glyph glyph-name="uni0424" unicode="&#x424;" horiz-adv-x="730" 
d="M298 701h135v-57c137 -12 265 -100 265 -305c0 -207 -126 -292 -266 -307v-59h-135v59c-139 13 -265 97 -265 303c0 209 144 297 266 309v57zM298 135v407c-53 -9 -119 -61 -119 -205c0 -135 65 -194 119 -202zM432 542v-407c54 8 119 58 119 204c0 145 -64 195 -119 203
z" />
    <glyph glyph-name="uni0425" unicode="&#x425;" horiz-adv-x="551" 
d="M541 0h-164l-56 123c-21 44 -36 80 -52 120h-2c-14 -40 -28 -77 -47 -121l-49 -122h-161l174 342l-168 332h164l53 -123c17 -40 30 -73 45 -111h2c15 42 26 73 41 111l50 123h161l-171 -331z" />
    <glyph glyph-name="uni0426" unicode="&#x426;" horiz-adv-x="642" 
d="M64 674h146v-552h205v552h146v-556l63 -4l-7 -277h-111l-7 163h-435v674z" />
    <glyph glyph-name="uni0427" unicode="&#x427;" horiz-adv-x="599" 
d="M58 674h145v-208c0 -70 35 -108 101 -108c30 0 62 9 86 22v294h145v-683h-145v280h-3c-44 -21 -85 -31 -135 -31c-120 0 -194 69 -194 203v231z" />
    <glyph glyph-name="uni0428" unicode="&#x428;" horiz-adv-x="855" 
d="M64 674h143v-552h149v552h143v-552h149v552h143v-674h-727v674z" />
    <glyph glyph-name="uni0429" unicode="&#x429;" horiz-adv-x="873" 
d="M64 674h143v-552h149v552h143v-552h149v552h143v-556l64 -4l-7 -277h-111l-7 163h-666v674z" />
    <glyph glyph-name="uni042A" unicode="&#x42a;" horiz-adv-x="665" 
d="M12 674h307v-239c18 3 46 5 73 5c130 0 242 -77 242 -216c0 -65 -21 -114 -55 -149c-59 -61 -152 -82 -253 -82c-68 0 -119 4 -152 9v551h-162v121zM319 323v-215c13 -2 28 -3 47 -3c68 0 115 43 115 112c0 73 -51 109 -114 109c-17 0 -34 -1 -48 -3z" />
    <glyph glyph-name="uni042B" unicode="&#x42b;" horiz-adv-x="801" 
d="M64 674h145v-239c19 3 45 5 68 5c133 0 248 -73 248 -217c0 -64 -21 -113 -55 -148c-59 -61 -160 -82 -258 -82c-64 0 -115 4 -148 9v672zM209 323v-215c11 -3 27 -3 43 -3c64 0 120 42 120 112c0 73 -60 109 -117 109c-17 0 -33 -2 -46 -3zM583 674h146v-674h-146v674z
" />
    <glyph glyph-name="uni042C" unicode="&#x42c;" horiz-adv-x="564" 
d="M64 674h145v-239c18 3 45 5 73 5c140 0 251 -72 251 -216c0 -65 -21 -114 -55 -149c-59 -61 -160 -82 -262 -82c-68 0 -119 4 -152 9v672zM209 323v-215c15 -3 29 -3 47 -3c72 0 124 40 124 112s-51 109 -121 109c-19 0 -35 -1 -50 -3z" />
    <glyph glyph-name="uni042D" unicode="&#x42d;" horiz-adv-x="533" 
d="M88 283v118h257c-7 84 -61 162 -166 162c-46 0 -89 -12 -120 -25l-30 111c38 17 96 35 163 35c224 0 309 -171 309 -349c0 -221 -139 -345 -323 -345c-65 0 -126 16 -157 30l26 115c30 -13 74 -22 117 -22c111 0 170 78 180 170h-256z" />
    <glyph glyph-name="uni042E" unicode="&#x42e;" horiz-adv-x="848" 
d="M64 674h145v-265h74c24 161 122 275 269 275c179 0 265 -162 265 -338c0 -232 -113 -356 -274 -356c-155 0 -248 124 -263 294h-71v-284h-145v674zM548 108c80 0 122 99 122 232c0 121 -40 226 -122 226s-125 -104 -125 -228c0 -130 44 -230 125 -230z" />
    <glyph glyph-name="uni042F" unicode="&#x42f;" horiz-adv-x="560" 
d="M163 0h-155c12 22 23 47 32 75c24 74 35 158 86 208c14 14 33 26 53 33v3c-73 16 -134 69 -134 164c0 64 27 113 67 144c50 38 125 52 206 52c66 0 131 -6 178 -14v-665h-145v266h-30c-28 0 -50 -9 -66 -25c-39 -40 -52 -129 -70 -184c-6 -19 -12 -36 -22 -57zM351 375
v189c-10 2 -26 5 -51 5c-64 0 -109 -34 -109 -98c0 -63 51 -98 116 -98c17 0 32 0 44 2z" />
    <glyph glyph-name="uni0430" unicode="&#x430;" horiz-adv-x="496" 
d="M440 290v-174c0 -44 2 -87 8 -116h-131l-9 49h-2c-31 -39 -77 -59 -131 -59c-92 0 -149 69 -149 149c0 128 114 186 268 186v8c0 30 -16 64 -83 64c-47 0 -93 -15 -125 -34l-26 94c32 18 95 42 178 42c159 0 202 -98 202 -209zM298 170v63c-69 0 -130 -18 -130 -79
c0 -41 26 -60 56 -60c33 0 62 21 72 51c2 8 2 17 2 25z" />
    <glyph glyph-name="uni0431" unicode="&#x431;" horiz-adv-x="540" 
d="M460 714l-9 -117c-25 -9 -69 -14 -103 -18c-74 -9 -119 -30 -148 -67c-24 -29 -41 -74 -45 -111h5c26 50 81 88 148 88c120 0 200 -92 200 -243c0 -153 -94 -257 -234 -257c-168 0 -238 146 -238 317c0 121 27 220 90 288c45 53 108 86 197 98c41 5 106 13 137 22z
M360 241c0 63 -20 144 -90 144c-31 0 -53 -19 -66 -43c-15 -26 -22 -58 -22 -93c0 -63 22 -153 90 -153s88 82 88 145z" />
    <glyph glyph-name="uni0432" unicode="&#x432;" horiz-adv-x="522" 
d="M56 0v484c38 6 112 12 180 12c84 0 234 -11 234 -124c0 -62 -49 -97 -98 -107v-3c73 -12 119 -54 119 -118c0 -137 -180 -151 -279 -151c-61 0 -126 4 -156 7zM199 402v-105h36c56 0 94 17 94 55c0 34 -28 53 -84 53c-18 0 -31 -2 -46 -3zM198 210v-125
c14 -2 26 -2 45 -2c51 0 100 16 100 63c0 44 -41 64 -106 64h-39z" />
    <glyph glyph-name="uni0433" unicode="&#x433;" horiz-adv-x="390" 
d="M56 489h321v-115h-175v-374h-146v489z" />
    <glyph glyph-name="uni0434" unicode="&#x434;" horiz-adv-x="557" 
d="M119 489h369v-385l51 -2l-6 -253h-110l-5 151h-287l-7 -151h-110l-4 252l44 3c20 29 35 65 45 101c13 51 20 106 20 160v124zM246 381v-52c0 -43 -6 -90 -16 -134c-7 -30 -18 -61 -33 -88h149v274h-100z" />
    <glyph glyph-name="uni0435" unicode="&#x435;" horiz-adv-x="495" 
d="M461 196h-290c3 -67 61 -96 128 -96c47 0 86 7 122 19l20 -100c-46 -18 -104 -28 -165 -28c-156 0 -245 94 -245 246c0 137 80 263 232 263c143 0 203 -112 203 -241c0 -29 -3 -51 -5 -63zM170 297h161c0 44 -16 103 -76 103c-58 0 -82 -60 -85 -103z" />
    <glyph glyph-name="uni0436" unicode="&#x436;" horiz-adv-x="696" 
d="M2 489h159l100 -197h17v197h140v-197h17l100 197h159l-156 -213c52 -12 86 -65 104 -127c16 -50 34 -108 53 -149h-145c-13 25 -24 64 -39 113c-17 54 -44 85 -82 85h-11v-198h-140v198h-12c-41 0 -65 -31 -83 -85c-16 -50 -26 -88 -40 -113h-143c20 42 38 100 55 149
c19 60 51 115 103 127z" />
    <glyph glyph-name="uni0437" unicode="&#x437;" horiz-adv-x="454" 
d="M101 206v91h63c58 0 88 21 88 51c0 29 -28 50 -79 50c-39 0 -80 -13 -112 -31l-27 86c51 30 118 45 183 45c95 0 187 -38 187 -129c0 -62 -52 -96 -104 -109v-3c63 -8 124 -45 124 -116c0 -114 -130 -150 -232 -150c-64 0 -127 14 -174 41l30 92c30 -15 80 -29 126 -30
c65 0 93 25 93 55c0 41 -42 57 -102 57h-64z" />
    <glyph glyph-name="uni0438" unicode="&#x438;" horiz-adv-x="554" 
d="M56 489h136v-137c0 -81 -5 -146 -8 -207h3c21 54 37 97 56 141l88 203h168v-489h-137v137c0 82 4 121 9 213h-4c-18 -53 -30 -87 -50 -133c-25 -58 -63 -146 -95 -217h-166v489z" />
    <glyph glyph-name="uni0439" unicode="&#x439;" horiz-adv-x="554" 
d="M56 489h136v-137c0 -81 -5 -146 -8 -207h3c21 54 37 97 56 141l88 203h168v-489h-137v137c0 82 4 121 9 213h-4c-18 -53 -30 -87 -50 -133c-25 -58 -63 -146 -95 -217h-166v489zM138 687h92c0 -43 17 -68 45 -68c31 0 46 27 49 68h91c-5 -89 -57 -136 -142 -136
c-88 0 -131 52 -135 136z" />
    <glyph glyph-name="uni043A" unicode="&#x43a;" horiz-adv-x="495" 
d="M56 489h145v-195h16l111 195h166l-164 -211c55 -12 88 -67 112 -136c14 -39 33 -100 54 -142h-150c-14 23 -25 60 -42 111c-18 54 -46 85 -90 85h-13v-196h-145v489z" />
    <glyph glyph-name="uni043B" unicode="&#x43b;" horiz-adv-x="513" 
d="M81 489h377v-489h-146v376h-96v-95c0 -122 -13 -211 -78 -254c-28 -26 -66 -38 -120 -38l-17 114c23 5 40 15 51 29c25 29 29 79 29 153v204z" />
    <glyph glyph-name="uni043C" unicode="&#x43c;" horiz-adv-x="681" 
d="M41 0l35 489h184l48 -177c9 -32 21 -79 33 -129h2c11 42 23 92 36 137l48 169h184l30 -489h-135l-7 188c-2 44 -4 111 -6 182h-2c-16 -58 -23 -95 -45 -172l-58 -190h-109l-52 187c-13 49 -29 126 -40 173h-3c-2 -73 -3 -139 -5 -182l-8 -186h-130z" />
    <glyph glyph-name="uni043D" unicode="&#x43d;" horiz-adv-x="542" 
d="M56 489h146v-180h138v180h146v-489h-146v193h-138v-193h-146v489z" />
    <glyph glyph-name="uni043E" unicode="&#x43e;" horiz-adv-x="533" 
d="M272 500c138 0 229 -101 229 -251c0 -187 -123 -259 -236 -259c-135 0 -233 94 -233 252c0 163 101 258 240 258zM268 394c-65 0 -87 -78 -87 -149c0 -83 29 -149 88 -149c54 0 83 66 83 150c0 71 -23 148 -84 148z" />
    <glyph glyph-name="uni043F" unicode="&#x43f;" horiz-adv-x="540" 
d="M56 489h427v-489h-146v375h-135v-375h-146v489z" />
    <glyph glyph-name="uni0440" unicode="&#x440;" horiz-adv-x="552" 
d="M56 -196v524c0 62 -2 115 -4 161h127l7 -64h2c31 48 81 75 145 75c106 0 187 -101 187 -250c0 -178 -102 -260 -203 -260c-53 0 -94 24 -113 53h-2v-239h-146zM202 287v-87c0 -12 1 -24 4 -34c10 -38 40 -62 75 -62c60 0 92 59 92 140c0 83 -31 139 -90 139
c-36 0 -69 -28 -77 -67c-3 -9 -4 -19 -4 -29z" />
    <glyph glyph-name="uni0441" unicode="&#x441;" horiz-adv-x="412" 
d="M379 120l16 -109c-23 -11 -69 -20 -120 -20c-148 0 -243 93 -243 249c0 146 95 259 263 259c38 0 77 -7 103 -18l-22 -109c-16 6 -39 13 -74 13c-75 0 -122 -58 -122 -140c0 -89 53 -139 123 -139c31 0 56 5 76 14z" />
    <glyph glyph-name="uni0442" unicode="&#x442;" horiz-adv-x="434" 
d="M12 489h410v-114h-132v-375h-146v375h-132v114z" />
    <glyph glyph-name="uni0443" unicode="&#x443;" horiz-adv-x="483" 
d="M6 489h160l66 -245c7 -29 15 -62 21 -88h3c6 26 12 60 19 88l54 245h152l-109 -339c-57 -164 -99 -246 -153 -299c-50 -47 -104 -66 -136 -70l-35 123c20 5 43 16 66 31c21 13 43 37 56 60c5 8 8 15 8 22c0 5 -2 12 -6 23z" />
    <glyph glyph-name="uni0444" unicode="&#x444;" horiz-adv-x="671" 
d="M268 695h135l-2 -197c136 -16 238 -103 238 -255c0 -154 -104 -240 -238 -252l2 -187h-135l2 187c-136 12 -239 98 -239 251c0 154 103 239 238 255zM270 84v321c-71 -20 -99 -88 -99 -160c0 -77 29 -141 99 -161zM401 405v-321c69 20 98 84 98 161c0 72 -28 138 -98 160
z" />
    <glyph glyph-name="uni0445" unicode="&#x445;" horiz-adv-x="482" 
d="M7 489h162l42 -83c13 -27 25 -52 35 -76h3c11 26 21 52 33 77l39 82h155l-146 -235l148 -254h-164l-44 89c-12 24 -23 49 -34 75h-2c-11 -26 -22 -51 -33 -75l-41 -89h-156l149 247z" />
    <glyph glyph-name="uni0446" unicode="&#x446;" horiz-adv-x="553" 
d="M56 489h146v-376h136v376h146v-385l51 -2l-6 -253h-110l-5 151h-358v489z" />
    <glyph glyph-name="uni0447" unicode="&#x447;" horiz-adv-x="525" 
d="M51 489h146v-161c0 -50 18 -77 67 -77c23 0 46 9 60 19v219h146v-495h-146v181h-2c-27 -17 -72 -28 -114 -28c-102 0 -157 60 -157 169v173z" />
    <glyph glyph-name="uni0448" unicode="&#x448;" horiz-adv-x="768" 
d="M56 489h144v-376h112v376h144v-376h112v376h144v-489h-656v489z" />
    <glyph glyph-name="uni0449" unicode="&#x449;" horiz-adv-x="782" 
d="M56 489h144v-376h112v376h144v-376h112v376h145v-385l51 -2l-6 -253h-110l-5 151h-587v489z" />
    <glyph glyph-name="uni044A" unicode="&#x44a;" horiz-adv-x="614" 
d="M17 489h276v-148c21 3 44 5 71 5c109 0 221 -45 221 -171c0 -60 -27 -100 -66 -128c-59 -41 -147 -52 -219 -52c-51 0 -105 3 -152 9v372h-131v113zM292 241v-143c13 -1 25 -2 46 -2c49 0 101 19 101 73c0 60 -58 76 -107 76c-15 0 -27 -2 -40 -4z" />
    <glyph glyph-name="uni044B" unicode="&#x44b;" horiz-adv-x="733" 
d="M56 489h145v-149c19 3 42 6 70 6c105 0 211 -47 211 -168c0 -62 -27 -103 -66 -130c-59 -42 -141 -53 -208 -53c-51 0 -105 3 -152 9v485zM200 241v-143c12 -2 25 -2 41 -2c46 0 95 21 95 76c0 54 -48 73 -91 73c-19 0 -32 -2 -45 -4zM531 489h146v-489h-146v489z" />
    <glyph glyph-name="uni044C" unicode="&#x44c;" horiz-adv-x="524" 
d="M56 489h145v-148c20 3 45 5 69 5c112 0 224 -42 224 -169c0 -60 -27 -102 -66 -129c-59 -42 -148 -53 -220 -53c-51 0 -105 3 -152 9v485zM200 241v-143c13 -1 25 -2 44 -2c49 0 104 18 104 75c0 58 -59 74 -106 74c-17 0 -29 -2 -42 -4z" />
    <glyph glyph-name="uni044D" unicode="&#x44d;" horiz-adv-x="452" 
d="M73 200v93h199c-8 57 -48 99 -123 99c-44 0 -76 -10 -100 -20l-25 95c39 20 97 32 150 32c65 0 127 -20 170 -60c46 -44 76 -109 76 -192c0 -158 -104 -257 -266 -257c-51 0 -102 12 -136 29l21 100c22 -8 57 -18 101 -18c69 0 119 38 130 99h-197z" />
    <glyph glyph-name="uni044E" unicode="&#x44e;" horiz-adv-x="722" 
d="M56 489h145v-183h58c21 123 105 194 215 194c131 0 217 -101 217 -251c0 -182 -113 -259 -222 -259c-113 0 -198 76 -213 207h-55v-197h-145v489zM472 96c52 0 74 70 74 150c0 72 -21 148 -75 148c-57 0 -78 -77 -78 -149c0 -81 23 -149 79 -149z" />
    <glyph glyph-name="uni044F" unicode="&#x44f;" horiz-adv-x="519" 
d="M462 486v-486h-143v186h-25c-27 0 -46 -12 -60 -28c-29 -23 -40 -75 -55 -119c-5 -14 -10 -24 -18 -39h-154c11 15 21 34 29 54c15 40 34 104 66 137c15 16 35 29 61 35v3c-57 8 -123 45 -123 121c0 57 31 92 75 115c42 22 109 31 175 31c70 0 132 -5 172 -10zM319 275
v127c-11 2 -24 4 -44 4c-48 0 -85 -21 -85 -65c0 -43 44 -67 89 -67c19 0 29 0 40 1z" />
    <glyph glyph-name="uni0451" unicode="&#x451;" horiz-adv-x="495" 
d="M461 196h-290c3 -67 61 -96 128 -96c47 0 86 7 122 19l20 -100c-46 -18 -104 -28 -165 -28c-156 0 -245 94 -245 246c0 137 80 263 232 263c143 0 203 -112 203 -241c0 -29 -3 -51 -5 -63zM170 297h161c0 44 -16 103 -76 103c-58 0 -82 -60 -85 -103zM165 558
c-38 0 -68 31 -68 69c0 39 30 68 69 68c36 0 65 -28 65 -68c0 -38 -28 -69 -66 -69zM366 558h-2c-37 0 -66 31 -66 69c0 39 30 68 68 68c37 0 66 -28 66 -68c0 -38 -28 -69 -66 -69z" />
    <glyph glyph-name="uni0452" unicode="&#x452;" horiz-adv-x="549" 
d="M1 637h67v68h146v-68h198v-94h-198v-109h2c27 30 70 54 120 54c58 0 104 -31 133 -82c31 -51 45 -119 45 -199c0 -153 -41 -254 -115 -305c-37 -26 -80 -42 -111 -45l-28 118c23 5 44 14 65 38c27 33 43 106 43 184c0 42 -5 92 -22 128c-13 26 -33 44 -60 44
c-26 0 -47 -15 -60 -31c-9 -13 -12 -25 -12 -43v-295h-146v543h-67v94z" />
    <glyph glyph-name="uni0453" unicode="&#x453;" horiz-adv-x="390" 
d="M56 489h321v-115h-175v-374h-146v489zM225 698h132l-116 -148h-97z" />
    <glyph glyph-name="uni0454" unicode="&#x454;" horiz-adv-x="442" 
d="M426 474l-26 -101c-19 10 -51 20 -91 20c-72 0 -118 -42 -127 -100h192v-93h-190c11 -64 59 -101 130 -101c35 0 68 8 91 17l20 -100c-26 -13 -75 -26 -135 -26c-157 0 -259 96 -259 250c0 161 116 260 274 260c48 0 96 -13 121 -26z" />
    <glyph glyph-name="uni0455" unicode="&#x455;" horiz-adv-x="401" 
d="M29 24l26 104c25 -15 77 -33 118 -33c42 0 62 15 62 41s-15 39 -68 60c-95 37 -127 91 -127 145c0 90 73 159 188 159c52 0 97 -13 126 -27l-26 -102c-21 11 -57 25 -94 25c-36 0 -56 -16 -56 -40c0 -23 17 -35 73 -58c86 -34 122 -83 122 -150c0 -94 -71 -157 -200 -157
c-57 0 -111 13 -144 33z" />
    <glyph glyph-name="uni0456" unicode="&#x456;" horiz-adv-x="259" 
d="M202 0h-146v489h146v-489zM129 698c45 0 75 -31 76 -75c0 -42 -31 -74 -78 -74c-45 0 -75 32 -75 74c0 44 31 75 77 75z" />
    <glyph glyph-name="uni0457" unicode="&#x457;" horiz-adv-x="259" 
d="M202 0h-146v489h146v-489zM29 558c-38 0 -68 31 -68 69c0 39 30 68 69 68c36 0 65 -28 65 -68c0 -38 -28 -69 -66 -69zM230 558h-2c-37 0 -66 31 -66 69c0 39 30 68 68 68c37 0 66 -28 66 -68c0 -38 -28 -69 -66 -69z" />
    <glyph glyph-name="uni0458" unicode="&#x458;" horiz-adv-x="271" 
d="M-26 -210l-13 114c35 3 64 11 82 31c21 21 28 59 28 150v404h146v-437c0 -107 -23 -168 -68 -208c-42 -37 -110 -54 -175 -54zM144 698c45 0 75 -31 76 -75c0 -42 -31 -74 -78 -74c-45 0 -75 32 -75 74c0 44 31 75 77 75z" />
    <glyph glyph-name="uni0459" unicode="&#x459;" horiz-adv-x="777" 
d="M82 489h376v-150c20 3 45 5 67 5c111 0 223 -47 223 -171c0 -58 -25 -97 -61 -124c-60 -44 -152 -54 -222 -54c-50 0 -105 3 -152 9v372h-96v-94c0 -123 -15 -211 -79 -254c-28 -26 -66 -38 -120 -38l-17 114c23 4 40 15 50 28c27 27 31 82 31 154v203zM457 240v-142
c13 -2 25 -2 43 -2c48 0 102 18 102 74c0 57 -52 74 -99 74c-16 0 -32 -2 -46 -4z" />
    <glyph glyph-name="uni045A" unicode="&#x45a;" horiz-adv-x="791" 
d="M56 489h146v-168h125v168h145v-151c21 3 46 5 71 5c110 0 219 -49 219 -172c0 -58 -25 -96 -61 -122c-60 -45 -151 -54 -221 -54c-51 0 -106 3 -153 8v208h-125v-211h-146v489zM472 239v-141c12 -1 25 -2 44 -2c48 0 100 18 100 73c0 57 -51 74 -100 74
c-17 0 -31 -2 -44 -4z" />
    <glyph glyph-name="uni045B" unicode="&#x45b;" horiz-adv-x="559" 
d="M1 637h67v68h146v-68h190v-94h-190v-121h2c15 20 33 35 54 47c22 11 49 19 77 19c102 0 157 -77 157 -208v-280h-146v266c0 59 -18 103 -70 103c-36 0 -59 -24 -69 -52c-3 -8 -5 -21 -5 -35v-282h-146v543h-67v94z" />
    <glyph glyph-name="uni045C" unicode="&#x45c;" horiz-adv-x="495" 
d="M56 489h145v-195h16l111 195h166l-164 -211c55 -12 88 -67 112 -136c14 -39 33 -100 54 -142h-150c-14 23 -25 60 -42 111c-18 54 -46 85 -90 85h-13v-196h-145v489zM266 698h132l-116 -148h-97z" />
    <glyph glyph-name="uni045E" unicode="&#x45e;" horiz-adv-x="483" 
d="M103 687h92c0 -43 17 -68 45 -68c31 0 46 27 49 68h91c-5 -89 -57 -136 -142 -136c-88 0 -131 52 -135 136zM6 489h160l66 -245c7 -29 15 -62 21 -88h3c6 26 12 60 19 88l54 245h152l-109 -339c-57 -164 -99 -246 -153 -299c-50 -47 -104 -66 -136 -70l-35 123
c20 5 43 16 66 31c21 13 43 37 56 60c5 8 8 15 8 22c0 5 -2 12 -6 23z" />
    <glyph glyph-name="uni045F" unicode="&#x45f;" horiz-adv-x="540" 
d="M56 489h146v-376h136v376h146v-489h-149l-8 -157h-115l-8 157h-148v489z" />
    <glyph glyph-name="uni0490" unicode="&#x490;" horiz-adv-x="456" 
d="M64 674h269l15 127h103l-11 -248h-230v-553h-146v674z" />
    <glyph glyph-name="uni0491" unicode="&#x491;" horiz-adv-x="400" 
d="M56 489h215l14 116h102l-8 -231h-177v-374h-146v489z" />
    <glyph glyph-name="breve.cyrcap" unicode="&#xf6d1;" 
d="M8 842h97c2 -38 13 -60 44 -60c30 0 43 21 46 60h97c-7 -86 -61 -121 -145 -121c-81 0 -132 36 -139 121z" />
    </font>
</defs>
</svg>
