<svg width="37" height="37" viewBox="0 0 37 37" fill="none" xmlns="http://www.w3.org/2000/svg">
<path fill-rule="evenodd" clip-rule="evenodd" d="M18.5 0C23.4414 0 28.0873 1.92435 31.5815 5.41851C35.0756 8.91267 37 13.5586 37 18.5C37 23.4414 35.0756 28.0873 31.5815 31.5815C28.0873 35.0756 23.4414 37 18.5 37C13.5586 37 8.91267 35.0756 5.41851 31.5815C1.92435 28.0873 0 23.4414 0 18.5C0 13.5586 1.92435 8.91267 5.41851 5.41851C8.91267 1.92435 13.5586 0 18.5 0ZM1.44531 18.5C1.44531 27.9041 9.09587 35.5547 18.5 35.5547C27.9041 35.5547 35.5547 27.9041 35.5547 18.5C35.5547 9.09587 27.9041 1.44531 18.5 1.44531C9.09587 1.44531 1.44531 9.09587 1.44531 18.5Z" fill="#00B0D6"/>
<path fill-rule="evenodd" clip-rule="evenodd" d="M30.0676 9.01458C27.9109 6.38732 24.9014 4.55725 21.5939 3.86142C21.2029 3.77955 20.8201 4.02938 20.7377 4.41978C20.6555 4.81047 20.9057 5.19381 21.2963 5.27596C24.0563 5.85634 26.4791 7.27794 28.3202 9.23561H24.0402L24.0352 9.23588L24.0324 9.23609L24.0297 9.23617L22.7538 8.31958C21.3771 7.33073 19.5083 7.48317 18.3097 8.68148C18.1378 8.85339 17.9882 9.03942 17.8598 9.23561H8.6747C10.5319 7.26072 12.9824 5.83263 15.7759 5.261C16.1669 5.18083 16.419 4.79889 16.3388 4.40792C16.2589 4.01696 15.877 3.76487 15.486 3.84476C12.1595 4.52564 9.13059 6.35091 6.95726 8.98437C4.75429 11.6537 3.54102 15.0332 3.54102 18.5C3.54102 26.7484 10.2516 33.459 18.5 33.459C26.7484 33.459 33.459 26.7484 33.459 18.5C33.459 15.0473 32.2547 11.6788 30.0676 9.01458ZM29.516 26.3191H23.6221C23.6399 26.146 23.6489 25.9705 23.6489 25.7929C23.6489 24.3298 23.0344 23.0081 22.0512 22.0698H25.0835C25.6359 22.3428 26.2406 22.5127 26.8704 22.5641C27.0053 22.5751 27.1397 22.5808 27.2738 22.5808C28.5782 22.5808 29.8316 22.0653 30.7626 21.1343C31.3489 20.5483 31.7695 19.8338 32.0013 19.0595C31.8909 21.7568 30.987 24.253 29.516 26.3191ZM14.9485 22.0698H5.46593C5.88908 23.6134 6.57899 25.0477 7.48373 26.3191H13.3776C13.3601 26.146 13.3511 25.9705 13.3511 25.7929C13.3511 24.3298 13.9656 23.0081 14.9485 22.0698ZM8.1711 20.0625C8.42036 20.286 8.69305 20.4738 8.98352 20.6245H5.15372C5.0442 19.9323 4.98633 19.2229 4.98633 18.5C4.98633 17.7796 5.04448 17.0699 5.1557 16.3755H6.57702V16.3792C6.6044 17.8352 7.18563 19.1778 8.1711 20.0625ZM23.3136 20.5928C23.2959 20.5699 23.2781 20.547 23.2611 20.5234L20.2821 16.3755H16.1514L16.2369 16.4272C16.7323 16.7264 17.0654 17.2266 17.1509 17.7994C17.2365 18.3718 17.0637 18.9474 16.677 19.3785L15.9744 20.1615C15.7968 20.3597 15.5834 20.5155 15.3488 20.6245H23.3381L23.3136 20.5928ZM12.0387 19.0965C12.0023 18.9652 11.9769 18.83 11.9619 18.6925L12.9926 20.0433C13.1859 20.2965 13.4346 20.4941 13.7152 20.6245H11.6147C11.6554 20.5858 11.6943 20.5443 11.731 20.5006C12.0585 20.111 12.1737 19.586 12.0387 19.0965ZM15.4236 14.1542C15.4569 14.1595 15.4866 14.1497 15.5109 14.1243C15.5464 14.087 15.5388 14.0509 15.5363 14.039C15.429 13.5221 15.1636 13.0617 14.7693 12.7077C13.274 11.3672 10.6462 11.6574 9.14612 13.3296C7.64632 15.0016 7.64153 17.6452 9.13652 18.9869C9.53088 19.3407 10.0173 19.5546 10.5429 19.6054C10.5547 19.6066 10.5917 19.61 10.6247 19.5707C10.6473 19.5436 10.6541 19.5134 10.6451 19.4807C10.3896 18.5536 10.47 17.5462 10.8712 16.6437C10.9751 16.4108 11.1941 16.2493 11.4473 16.2197C11.7008 16.1898 11.9512 16.2962 12.1062 16.4991L14.1415 19.1665C14.2637 19.3265 14.4266 19.3562 14.513 19.3596C14.5988 19.3624 14.7642 19.3463 14.8986 19.1967L15.6012 18.4133C15.7356 18.2637 15.7341 18.098 15.7214 18.0125C15.7087 17.927 15.6616 17.768 15.4894 17.6642L12.6174 15.9292C12.3989 15.7971 12.2665 15.5597 12.2685 15.3045C12.2708 15.0493 12.4071 14.8142 12.6276 14.686C13.4812 14.1892 14.474 14.0003 15.4236 14.1542ZM14.7964 25.7929C14.7964 23.7506 16.4576 22.0893 18.5 22.0893C20.5424 22.0893 22.2036 23.7506 22.2036 25.7929C22.2036 27.835 20.5424 29.4965 18.5 29.4965C16.4576 29.4965 14.7964 27.835 14.7964 25.7929ZM31.6334 15.3322C31.223 13.6461 30.4927 12.0698 29.5053 10.6809H26.0413L30.1517 13.6328C30.7789 14.0833 31.2814 14.6674 31.6334 15.3322ZM20.7442 9.11592C21.1498 9.11592 21.5583 9.24012 21.9106 9.49334L29.3085 14.8068C30.1424 15.4058 30.6686 16.3363 30.7518 17.3596C30.8354 18.3829 30.4667 19.3864 29.7407 20.1124C29.0146 20.8385 28.0108 21.2074 26.9878 21.1236C25.9645 21.0403 25.0341 20.5141 24.4351 19.68L19.1219 12.2823C18.5483 11.4835 18.6366 10.3989 19.3319 9.70336C19.7203 9.31493 20.2301 9.11592 20.7442 9.11592ZM19.2438 14.9302L17.9478 13.1255C17.4208 12.3919 17.2181 11.5182 17.3251 10.6809H14.0585C14.6857 10.8847 15.2582 11.2051 15.7341 11.6319C16.36 12.1931 16.7809 12.924 16.9514 13.7452C17.0375 14.1595 16.9477 14.5867 16.7114 14.9302H19.2438ZM10.7049 10.6809C9.69714 10.9897 8.78705 11.5656 8.0706 12.3645C7.40864 13.1024 6.95331 13.984 6.73171 14.9302H5.46989C5.8936 13.3946 6.58295 11.9583 7.49078 10.6809H10.7049ZM8.67131 27.7644C11.1371 30.3789 14.6312 32.0137 18.5 32.0137C22.3688 32.0137 25.8629 30.3789 28.3287 27.7644H23.2557C22.4803 29.6281 20.6409 30.9418 18.5 30.9418C16.3591 30.9418 14.5197 29.6278 13.7443 27.7644H8.67131Z" fill="#00B0D6"/>
<path d="M18.5 4.98633C18.69 4.98633 18.8766 4.90898 19.0109 4.77461C19.1453 4.64024 19.2227 4.45365 19.2227 4.26367C19.2227 4.07285 19.1453 3.8871 19.0109 3.75273C18.8766 3.61836 18.69 3.54102 18.5 3.54102C18.31 3.54102 18.1234 3.61836 17.9891 3.75273C17.8547 3.8871 17.7773 4.07369 17.7773 4.26367C17.7773 4.45365 17.8547 4.64024 17.9891 4.77461C18.1234 4.90898 18.31 4.98633 18.5 4.98633Z" fill="#00B0D6"/>
<path d="M28.4269 17.6596C28.6118 17.6596 28.7967 17.5891 28.9379 17.4479L29.2696 17.1162C29.5518 16.8339 29.5518 16.3764 29.2696 16.0941C28.9873 15.8121 28.5297 15.8121 28.2474 16.0941L27.9157 16.4258C27.6337 16.708 27.6337 17.1656 27.9157 17.4479C28.0568 17.5891 28.242 17.6596 28.4269 17.6596Z" fill="#00B0D6"/>
<path d="M24.701 17.6009C24.8422 17.742 25.0271 17.8126 25.212 17.8126C25.3969 17.8126 25.5817 17.742 25.7229 17.6009L25.927 17.3968C26.2093 17.1148 26.2093 16.6572 25.927 16.3749C25.6447 16.0926 25.1874 16.0926 24.9051 16.3749L24.701 16.579C24.4187 16.861 24.4187 17.3186 24.701 17.6009Z" fill="#00B0D6"/>
<path d="M23.6046 14.0619C23.7895 14.0619 23.9744 13.9913 24.1155 13.8502L24.3707 13.5953C24.6527 13.313 24.6527 12.8554 24.3707 12.5731C24.0884 12.2908 23.6309 12.2908 23.3486 12.5731L23.0934 12.8283C22.8111 13.1106 22.8111 13.5682 23.0934 13.8502C23.2345 13.9913 23.4194 14.0619 23.6046 14.0619Z" fill="#00B0D6"/>
<path d="M21.2571 13.6537C21.442 13.6537 21.6269 13.5831 21.768 13.442L21.8702 13.3401C22.1522 13.0578 22.1522 12.6002 21.8702 12.3179C21.5879 12.0359 21.1304 12.0359 20.8481 12.3179L20.7459 12.4201C20.4639 12.7021 20.4639 13.1597 20.7459 13.442C20.8873 13.5831 21.0722 13.6537 21.2571 13.6537Z" fill="#00B0D6"/>
<path d="M18.5 24.9717C18.8992 24.9717 19.2227 24.648 19.2227 24.2491V23.9216C19.2227 23.5228 18.8992 23.199 18.5 23.199C18.1008 23.199 17.7773 23.5228 17.7773 23.9216V24.2491C17.7773 24.648 18.1008 24.9717 18.5 24.9717Z" fill="#00B0D6"/>
<path d="M16.4712 25.9208L16.7826 26.0218C16.8568 26.0458 16.9319 26.0574 17.0059 26.0574C17.3104 26.0574 17.5939 25.8632 17.6932 25.5577C17.8163 25.1783 17.6088 24.7704 17.2291 24.6471L16.9181 24.546C16.5384 24.4229 16.1305 24.6304 16.0074 25.0101C15.884 25.3898 16.0918 25.7974 16.4712 25.9208Z" fill="#00B0D6"/>
<path d="M18.0012 26.5062C17.6783 26.2719 17.2263 26.3434 16.9917 26.6663L16.7995 26.9314C16.5649 27.254 16.6366 27.706 16.9596 27.9405C17.0877 28.0337 17.2365 28.0786 17.3835 28.0786C17.6071 28.0786 17.8276 27.9753 17.969 27.7805L18.1613 27.5157C18.3958 27.1928 18.3241 26.7408 18.0012 26.5062Z" fill="#00B0D6"/>
<path d="M20.0083 26.6663C19.7737 26.3434 19.3217 26.2719 18.9988 26.5062C18.6759 26.7408 18.6042 27.1928 18.8387 27.5157L19.031 27.7805C19.1724 27.9753 19.3929 28.0786 19.6164 28.0786C19.7635 28.0786 19.9123 28.0337 20.0404 27.9405C20.3634 27.706 20.4351 27.254 20.2005 26.9314L20.0083 26.6663Z" fill="#00B0D6"/>
<path d="M19.9941 26.0574C20.0681 26.0574 20.1432 26.0458 20.2177 26.0218L20.5288 25.9208C20.9085 25.7974 21.116 25.3898 20.9929 25.0101C20.8695 24.6304 20.4622 24.4229 20.0822 24.546L19.7709 24.6471C19.3915 24.7704 19.1837 25.1783 19.3068 25.5577C19.4061 25.8632 19.6896 26.0574 19.9941 26.0574Z" fill="#00B0D6"/>
</svg>
