<svg width="41" height="37" viewBox="0 0 41 37" fill="none" xmlns="http://www.w3.org/2000/svg">
<path fill-rule="evenodd" clip-rule="evenodd" d="M12.5391 12.2486C12.6724 12.3816 12.8472 12.4484 13.0224 12.4484C13.1972 12.4484 13.3721 12.3816 13.5054 12.2486C13.7725 11.982 13.7725 11.551 13.5054 11.2844C12.8119 10.5917 12.8119 9.46508 13.5054 8.77239C14.1 8.17897 14.4278 7.39076 14.4278 6.55198C14.4278 5.7132 14.1006 4.92468 13.5054 4.33157C13.2382 4.06467 12.8062 4.06467 12.5391 4.33157C12.272 4.59815 12.272 5.02925 12.5391 5.29553C12.8754 5.6311 13.0615 6.07718 13.0615 6.55167C13.0615 7.02647 12.876 7.47223 12.5391 7.80781C11.3126 9.0318 11.3126 11.0246 12.5391 12.2486Z" fill="#3DADD2"/>
<path fill-rule="evenodd" clip-rule="evenodd" d="M27.5725 12.2486C27.7058 12.3816 27.8806 12.4484 28.0555 12.4484C28.2307 12.4484 28.4055 12.3816 28.5388 12.2486C28.8059 11.982 28.8059 11.551 28.5388 11.2844C27.8453 10.5917 27.8453 9.46508 28.5388 8.77239C29.1331 8.17897 29.4612 7.39076 29.4612 6.55198C29.4612 5.7132 29.134 4.92468 28.5388 4.33157C28.2716 4.06467 27.8397 4.06467 27.5725 4.33157C27.3054 4.59815 27.3054 5.02925 27.5725 5.29553C27.9088 5.6311 28.0946 6.07718 28.0946 6.55167C28.0946 7.02647 27.9094 7.47223 27.5725 7.80781C26.346 9.0318 26.346 11.0246 27.5725 12.2486Z" fill="#3DADD2"/>
<path fill-rule="evenodd" clip-rule="evenodd" d="M20.0558 8.15711C20.1891 8.29009 20.3642 8.3569 20.5391 8.3569C20.714 8.3569 20.8888 8.29009 21.0221 8.15711C21.2895 7.89052 21.2895 7.45943 21.0221 7.19284C20.3286 6.50015 20.3286 5.37356 21.0221 4.68056C21.6167 4.08745 21.9445 3.29893 21.9445 2.46015C21.9445 1.62168 21.6173 0.833154 21.0221 0.240045C20.7549 -0.0268535 20.3229 -0.0268535 20.0561 0.240045C19.7887 0.506632 19.7887 0.937417 20.0561 1.204C20.3921 1.53958 20.5782 1.98566 20.5782 2.46015C20.5782 2.93463 20.393 3.38071 20.0561 3.71629C18.8293 4.94028 18.8293 6.93312 20.0558 8.15711Z" fill="#3DADD2"/>
<path fill-rule="evenodd" clip-rule="evenodd" d="M17.3191 17.571C17.3688 17.571 17.4195 17.5657 17.4702 17.5548C18.4527 17.3338 19.4687 17.2217 20.4912 17.2217H20.5C20.8772 17.2217 21.1832 16.917 21.1832 16.5406C21.1832 16.1635 20.8779 15.8582 20.5 15.8582C20.4972 15.8582 20.4937 15.8582 20.4903 15.8582C19.3676 15.8582 18.2503 15.9815 17.1696 16.2243C16.8011 16.3067 16.5702 16.6717 16.6528 17.0391C16.7254 17.3562 17.0066 17.571 17.3191 17.571Z" fill="#3DADD2"/>
<path fill-rule="evenodd" clip-rule="evenodd" d="M6.71092 28.8032C6.75284 28.8114 6.79381 28.8148 6.83385 28.8148C7.15792 28.8148 7.4457 28.5841 7.50576 28.2554C8.21583 24.3699 10.5622 20.9124 13.7828 19.0085C14.1072 18.8172 14.2148 18.3982 14.0227 18.0742C13.8301 17.7505 13.4112 17.6434 13.0865 17.8351C9.53023 19.9372 6.94208 23.7412 6.16163 28.01C6.09344 28.3812 6.33931 28.7355 6.71092 28.8032Z" fill="#3DADD2"/>
<path fill-rule="evenodd" clip-rule="evenodd" d="M23.8871 13.457C31.1032 14.8536 36.7715 20.6193 38.0096 27.8758C39.4379 28.6824 41 29.8696 41 31.2016C41 34.6691 30.4 36.9978 20.5 36.9978C10.5997 36.9978 0 34.6691 0 31.2016C0 29.8696 1.56215 28.6824 2.9901 27.8758C4.2285 20.6193 9.89653 14.8536 17.1126 13.457C17.1099 13.4327 17.1069 13.4083 17.104 13.3839V13.3839V13.3839C17.0936 13.2991 17.0832 13.214 17.0832 13.1299C17.0832 11.2497 18.616 9.72012 20.5 9.72012C22.384 9.72012 23.9165 11.2497 23.9165 13.1299C23.9165 13.212 23.9064 13.2951 23.8963 13.378L23.8963 13.3781L23.8963 13.3782C23.8931 13.4045 23.8899 13.4308 23.8871 13.457ZM18.4499 13.1302C18.4499 13.1686 18.4514 13.2079 18.4543 13.2476C18.472 13.2453 18.4898 13.2441 18.5077 13.2429C18.5221 13.2419 18.5366 13.241 18.5512 13.2394C18.7865 13.2142 19.0229 13.1951 19.2607 13.1786C19.2971 13.1761 19.3334 13.1731 19.3698 13.1701L19.3698 13.1701L19.3698 13.1701C19.4206 13.1658 19.4713 13.1616 19.5222 13.1589C19.8462 13.1411 20.1722 13.1308 20.5009 13.1308C20.8294 13.1308 21.1553 13.1411 21.4794 13.1589C21.5302 13.1616 21.581 13.1658 21.6318 13.1701L21.6318 13.1701L21.6318 13.1701C21.6681 13.1731 21.7045 13.1761 21.7409 13.1786C21.9786 13.1951 22.2154 13.2135 22.4503 13.2394C22.4662 13.2412 22.4823 13.2424 22.4986 13.2436L22.4986 13.2436C22.5144 13.2447 22.5302 13.2459 22.5461 13.2476C22.5489 13.2079 22.5501 13.1692 22.5501 13.1302C22.5501 12.0023 21.6302 11.0843 20.5 11.0843C19.3698 11.0843 18.4499 12.0023 18.4499 13.1302ZM18.0392 14.6785C18.4061 14.6239 18.7752 14.5842 19.1456 14.5543C19.2216 14.548 19.2973 14.5427 19.373 14.5374C20.1234 14.4868 20.8772 14.4868 21.6273 14.5374C21.7034 14.5427 21.7791 14.548 21.8551 14.5543C22.2254 14.5842 22.5945 14.6239 22.9612 14.6785C30.0803 15.7524 35.7102 21.4103 36.7318 28.5326C36.7631 28.7514 36.7884 28.9709 36.8109 29.1906C36.8143 29.2245 36.8182 29.2583 36.8222 29.2921L36.8222 29.2922C36.827 29.3337 36.8318 29.3752 36.8356 29.417C36.8622 29.7188 36.8819 30.021 36.8916 30.3232C26.1565 32.8061 14.8445 32.8061 4.10932 30.3232C4.11964 30.021 4.13873 29.7188 4.16531 29.417C4.16944 29.3714 4.17458 29.3263 4.17973 29.2811C4.18316 29.251 4.18658 29.2209 4.18971 29.1906C4.21223 28.9702 4.23757 28.7505 4.26917 28.5326C5.29047 21.4103 10.9203 15.7517 18.0392 14.6785ZM1.36665 31.2016C1.36665 32.7228 8.81767 35.634 20.5 35.634C32.1823 35.634 39.6334 32.7228 39.633 31.2016C39.633 30.9403 39.3093 30.365 38.2226 29.6142C38.2241 29.6344 38.2244 29.6544 38.2248 29.6744C38.2251 29.6928 38.2255 29.7113 38.2267 29.7301C38.2501 30.1043 38.2664 30.4802 38.2664 30.8607V31.3979L37.7424 31.5241C32.1023 32.8751 26.3007 33.5509 20.4997 33.5509C14.699 33.5509 8.89774 32.8745 3.25724 31.5241L2.73329 31.3979V30.8607C2.73329 30.4802 2.74956 30.1037 2.77271 29.7301C2.77411 29.7106 2.7745 29.6913 2.77489 29.6721C2.77529 29.6528 2.77568 29.6336 2.77708 29.6142C1.6904 30.365 1.36665 30.9403 1.36665 31.2016Z" fill="#3DADD2"/>
</svg>
