<svg width="45" height="47" fill="none" xmlns="http://www.w3.org/2000/svg"><path fill-rule="evenodd" clip-rule="evenodd" d="M19.064 45.605l1.582.394a.575.575 0 00.7-.42l.255-1.024 1.024.256a.575.575 0 00.699-.42l.255-1.024 1.024.255a.575.575 0 00.7-.42l.255-1.024 1.023.255a.575.575 0 00.7-.42l.255-1.024 1.024.256a.575.575 0 00.699-.42l.255-1.025 1.024.256a.575.575 0 00.7-.42l.255-1.024 1.023.255a.575.575 0 00.7-.42l.255-1.024 1.024.255a.575.575 0 00.699-.42l.255-1.024 1.024.256a.575.575 0 00.7-.42l.255-1.024 1.023.255a.575.575 0 00.7-.42l.255-1.024 1.024.255a.575.575 0 00.699-.42l.255-1.024 1.024.256a.575.575 0 00.7-.42l.394-1.583a.57.57 0 00-.065-.438L26.2 1.797a.571.571 0 00-.356-.263l-1.583-.395a.576.576 0 00-.7.42l-.254 1.025-1.024-.255a.576.576 0 00-.7.42l-.255 1.023-1.024-.255a.576.576 0 00-.699.42l-.255 1.024-1.024-.255a.576.576 0 00-.7.42l-.254 1.024-1.024-.255a.576.576 0 00-.7.42l-.255 1.024-1.024-.256a.576.576 0 00-.699.42l-.255 1.024-1.024-.255a.576.576 0 00-.7.42l-.254 1.024-1.024-.255a.576.576 0 00-.7.42l-.255 1.024-1.023-.256a.576.576 0 00-.7.42l-.255 1.024-1.024-.255a.576.576 0 00-.7.42l-.254 1.024-1.024-.255a.576.576 0 00-.7.42l-.255 1.024-1.023-.255a.576.576 0 00-.7.42l-.394 1.583a.569.569 0 00.065.437l17.236 28.686a.572.572 0 00.356.263zM2.78 15.475l1.024.255c.154.038.31.01.437-.065l-1.484.891-.174-.29.197-.791zm3.439-.999l-1.978 1.189a.575.575 0 00.262-.355l.255-1.024 1.024.255c.155.039.31.011.437-.065zm1.978-1.189L6.22 14.476a.575.575 0 00.263-.355l.255-1.024 1.024.255c.154.039.31.011.436-.065zm1.979-1.188l-1.979 1.188a.575.575 0 00.263-.355l.255-1.023 1.024.255c.154.038.31.01.437-.065zm1.978-1.19l-1.978 1.19a.575.575 0 00.262-.355l.255-1.024 1.024.255c.155.039.31.011.437-.065zm1.978-1.188l-1.978 1.189a.575.575 0 00.263-.355l.255-1.024 1.024.255c.154.039.31.011.436-.065zm1.979-1.188L14.133 9.72a.576.576 0 00.263-.355l.255-1.024 1.024.256c.154.038.31.01.437-.065zm1.978-1.19l-1.978 1.19a.575.575 0 00.262-.355l.256-1.024 1.023.255c.155.038.31.01.437-.065zm1.978-1.188L18.09 7.344a.576.576 0 00.263-.355l.255-1.024 1.024.255c.154.039.31.011.436-.065zm1.979-1.189l-1.979 1.19a.576.576 0 00.263-.356l.255-1.024 1.024.256c.154.038.31.01.437-.066zm1.978-1.188l-1.978 1.188a.575.575 0 00.262-.355l.255-1.023 1.024.255c.155.038.31.01.437-.065zm0 0a.576.576 0 00.263-.355l.255-1.024.792.197.174.29-1.484.892zm17.079 27.631l1.023.256.198-.792-.174-.29-1.481.89a.574.574 0 01.434-.064zm-.955 1.444l-1.024-.255a.574.574 0 00-.434.064l1.974-1.186a.574.574 0 00-.26.353l-.256 1.024zm-3.002.934l1.024.255.255-1.024a.574.574 0 01.26-.353l-1.973 1.186a.574.574 0 01.434-.064zm-.955 1.444l-1.023-.256a.574.574 0 00-.434.064l1.973-1.185a.574.574 0 00-.26.353l-.256 1.024zm-3.002.933l1.024.255.255-1.023a.574.574 0 01.26-.354l-1.973 1.186a.574.574 0 01.434-.064zm-.954 1.444l-1.024-.255a.574.574 0 00-.434.064l1.973-1.186a.574.574 0 00-.26.353l-.255 1.024zm-3.002.933l1.023.256.256-1.024a.574.574 0 01.26-.353L28.8 38.606a.574.574 0 01.434-.065zm-.955 1.444l-1.024-.255a.574.574 0 00-.434.064l1.974-1.185a.574.574 0 00-.26.353l-.256 1.023zm-3.002.934l1.024.255.255-1.024a.574.574 0 01.26-.353l-1.973 1.186a.574.574 0 01.434-.064zm-.955 1.444l-1.023-.255a.574.574 0 00-.434.064l1.973-1.186a.574.574 0 00-.26.353l-.256 1.024zm-3.002.933l1.024.255.255-1.023a.574.574 0 01.26-.353l-1.973 1.185a.574.574 0 01.434-.064zm-.954 1.444l-.792-.197-.174-.29 1.481-.89a.574.574 0 00-.26.353l-.255 1.024zM3.352 17.545l15.454 25.72 22.75-13.67-15.453-25.72-22.75 13.67z" fill="#00B0D6"/><path fill-rule="evenodd" clip-rule="evenodd" d="M19.689 34.658a3.466 3.466 0 01-4.751-1.186v-.001l-2.376-3.953v-.001l-.002-.001a3.466 3.466 0 011.185-4.75 3.466 3.466 0 014.75 1.184v.001l.001.002 2.375 3.952.001.001.001.001a3.466 3.466 0 01-1.184 4.751zm-2.184-8.115a2.31 2.31 0 00-3.166-.788 2.305 2.305 0 00-1.013 2.646.57.57 0 01.718.223.577.577 0 01-.197.792l2.08 3.46v.004a2.31 2.31 0 003.167.789 2.306 2.306 0 001.014-2.644.57.57 0 01-.718-.224.576.576 0 01.198-.791l-2.082-3.466v-.001z" fill="#00B0D6"/><path d="M16.827 27.624a.577.577 0 00-.595-.99l-.005.004a.574.574 0 00-.194.79.58.58 0 00.794.196zM17.026 30.2a.577.577 0 10-.594-.99l-.005.003a.574.574 0 00-.195.79c.165.274.521.36.794.196zM17.226 32.775a.577.577 0 10-.594-.99l-.006.004a.574.574 0 00-.194.79c.164.273.52.36.794.196z" fill="#00B0D6"/><path fill-rule="evenodd" clip-rule="evenodd" d="M30.435 16.805c.172-.128.345-.256.531-.368a.577.577 0 01.792.197l2.973 4.948a3.466 3.466 0 01-1.185 4.75 3.466 3.466 0 01-4.75-1.183v-.001l-2.973-4.947a.577.577 0 01.197-.792 6.36 6.36 0 01.573-.306 2.308 2.308 0 011.009-2.664 2.308 2.308 0 012.833.366zm.65.95a5.2 5.2 0 00-.847.822 6.44 6.44 0 011.63.48l-.783-1.302zm-2.889-.327a1.151 1.151 0 011.379.15c-.269.29-.505.609-.715.945-.395.026-.79.088-1.18.19a1.152 1.152 0 01.516-1.285zm1.589 7.125a2.31 2.31 0 003.167.79 2.31 2.31 0 00.79-3.166 5.2 5.2 0 00-6.615-2.047l2.656 4.421.002.002zM26.616 30.5c-2.055 1.235-6.63-4.31-7.132-5.146a3.468 3.468 0 01.65-4.354 1.728 1.728 0 00-2.038-.198.577.577 0 11-.594-.989 2.874 2.874 0 012.582-.184 2.874 2.874 0 011.375-2.193.577.577 0 11.594.989 1.727 1.727 0 00-.782 1.892 3.468 3.468 0 014.15 1.47c.502.836 3.25 7.478 1.195 8.713zm-2.185-8.118a2.311 2.311 0 00-3.168-.79 2.307 2.307 0 00-1.017 2.631l.425-.255a.577.577 0 11.595.989l-.469.281c1.374 1.884 4.567 4.668 5.225 4.273.377-.226.22-1.677-.17-3.268l-.33.198a.577.577 0 11-.594-.99l.606-.363c-.323-1.058-.718-2.066-1.103-2.706z" fill="#00B0D6"/><path d="M37.215 26.837L18.412 38.135a.576.576 0 10.594.989L37.81 27.826a.576.576 0 10-.594-.99zM34.637 30.406l-11.863 7.128a.577.577 0 10.594.989l11.863-7.128a.576.576 0 10-.594-.99z" fill="#00B0D6"/><path fill-rule="evenodd" clip-rule="evenodd" d="M21.455 14.073l-6.92 4.159a2.31 2.31 0 01-3.168-.79 2.31 2.31 0 01.791-3.167h.002l6.92-4.16a2.31 2.31 0 013.167.79 2.31 2.31 0 01-.79 3.168h-.002zm-8.704 1.191l-.001.001a1.155 1.155 0 001.19 1.977l6.923-4.16h.002a1.155 1.155 0 00-1.19-1.977l-6.924 4.16z" fill="#00B0D6"/><path d="M13.643 16.748l6.923-4.16a.577.577 0 10-.595-.99l-6.923 4.16a.577.577 0 10.595.99zM8.216 20.007a.577.577 0 00-.595-.99l-.005.004a.574.574 0 00-.194.79.58.58 0 00.794.196zM10.19 18.82a.577.577 0 00-.595-.988l-.005.003a.574.574 0 00-.195.79.58.58 0 00.795.196zM24.553 10.19a.577.577 0 00-.594-.989l-.005.003a.574.574 0 00-.195.79.58.58 0 00.794.196zM26.527 9.005a.577.577 0 00-.595-.99l-.005.004a.574.574 0 00-.194.79.58.58 0 00.794.196z" fill="#00B0D6"/></svg>