<svg width="37" height="37" viewBox="0 0 37 37" fill="none" xmlns="http://www.w3.org/2000/svg">
<path fill-rule="evenodd" clip-rule="evenodd" d="M0 18.5C0 8.28273 8.28273 0 18.5 0C28.7125 0.0115545 36.9884 8.28752 37 18.5C37 28.7173 28.7173 37 18.5 37C8.28273 37 0 28.7173 0 18.5ZM1.23333 18.5C1.23333 28.0361 8.96388 35.7667 18.5 35.7667C28.0316 35.7558 35.7558 28.0316 35.7667 18.5C35.7667 8.96388 28.0361 1.23333 18.5 1.23333C8.96388 1.23333 1.23333 8.96388 1.23333 18.5Z" fill="white"/>
<path fill-rule="evenodd" clip-rule="evenodd" d="M18.9545 9.3425C20.1146 8.1035 21.736 7.40028 23.4333 7.4C26.4392 7.39755 29.0089 9.56266 29.5165 12.5254C30.024 15.488 28.3216 18.3851 25.4863 19.3833C22.6511 20.3816 19.5091 19.1902 18.0486 16.5631C17.569 17.0689 17.0073 17.49 16.3873 17.8087C17.691 19.9819 17.534 22.7311 15.9913 24.7418C14.4486 26.7524 11.8338 27.6158 9.39719 26.9193C6.96056 26.2227 5.19723 24.1076 4.9504 21.5854C4.70357 19.0632 6.02339 16.6464 8.27875 15.4907C7.13964 13.5811 7.1179 11.2059 8.22187 9.27588C9.32584 7.34582 11.3842 6.16041 13.6076 6.17421C15.8311 6.18802 17.8746 7.39888 18.9545 9.3425ZM6.28159 22.0335C6.77804 24.2954 8.78423 25.9053 11.1 25.9C13.8233 25.8969 16.0303 23.69 16.0333 20.9667C16.0307 20.0078 15.7447 19.0711 15.2113 18.2743C12.9844 18.896 10.5971 18.2116 9.03787 16.5045C6.93274 17.4695 5.78514 19.7715 6.28159 22.0335ZM15.257 16.9645L15.466 17.5442L15.2495 16.967C14.7111 17.167 14.1411 17.2686 13.5667 17.2667C12.0502 17.2723 10.6169 16.5741 9.6866 15.3766L9.20067 15.7558L9.68598 15.3754C9.00138 14.5095 8.63032 13.4372 8.63333 12.3333C8.63186 9.92725 10.3674 7.87153 12.7396 7.46941C15.1119 7.0673 17.4279 8.43625 18.2194 10.7084L18.8022 10.508L18.2213 10.7146C18.406 11.2343 18.5002 11.7818 18.5 12.3333C18.5015 13.3001 18.2174 14.2457 17.6835 15.0516L18.1978 15.392L17.6829 15.0522C17.0995 15.9326 16.2493 16.6028 15.257 16.9645ZM18.8836 15.4272C19.6314 17.2835 21.4319 18.4996 23.4333 18.5C25.7542 18.502 27.7622 16.8849 28.2549 14.6169C28.7476 12.3489 27.5915 10.0444 25.479 9.08327C23.3664 8.12218 20.8696 8.76482 19.4836 10.6264C19.6479 11.1805 19.732 11.7553 19.7333 12.3333C19.7299 13.4218 19.4366 14.4896 18.8836 15.4272Z" fill="white"/>
<rect x="12.3333" y="9.86667" width="1.23333" height="1.23333" fill="white"/>
<rect x="10.4833" y="11.7167" width="1.23333" height="1.23333" fill="white"/>
<rect x="15.4167" y="11.7167" width="1.23333" height="1.23333" fill="white"/>
<rect x="13.5667" y="14.8" width="1.23333" height="1.23333" fill="white"/>
<path fill-rule="evenodd" clip-rule="evenodd" d="M28.3038 24.5273L28.9062 24.219L29.1572 24.8467C30.1666 27.3669 29.412 30.2507 27.2977 31.9536C25.1834 33.6565 22.205 33.7791 19.9578 32.2558C17.7106 30.7325 16.7216 27.9205 17.5204 25.3258C18.3192 22.7312 20.7185 20.9623 23.4333 20.9667L23.5388 20.9722L24.3441 21.0302L24.1265 21.7942C23.9567 22.2498 24.0739 22.7627 24.4247 23.0994C24.7754 23.436 25.2926 23.5321 25.7409 23.3439L26.3847 23.0849L26.566 23.7546C26.6617 24.1112 26.9132 24.4055 27.2506 24.5555C27.5879 24.7054 27.9749 24.6951 28.3038 24.5273ZM18.5252 27.4424C18.688 30.0359 20.8347 32.0585 23.4333 32.0667C24.9677 32.069 26.4156 31.3564 27.3498 30.1392C28.284 28.922 28.5979 27.339 28.1989 25.8574C27.1661 26.0406 26.1295 25.5551 25.6089 24.6445C25.501 24.6593 25.3922 24.6667 25.2833 24.6667C23.9368 24.6668 22.8389 23.5871 22.8167 22.2407C20.2395 22.5737 18.3625 24.8488 18.5252 27.4424Z" fill="white"/>
<rect x="24.6667" y="11.1" width="1.23333" height="1.23333" fill="white"/>
<rect x="24.05" y="13.5667" width="1.23333" height="1.23333" fill="white"/>
<rect x="20.9667" y="14.1833" width="1.23333" height="1.23333" fill="white"/>
<rect x="11.7167" y="23.4333" width="1.23333" height="1.23333" fill="white"/>
<rect x="7.4" y="20.35" width="1.23333" height="1.23333" fill="white"/>
<rect x="10.4833" y="20.9667" width="1.23333" height="1.23333" fill="white"/>
<rect x="20.9667" y="26.5167" width="1.23333" height="1.23333" fill="white"/>
<rect x="22.8167" y="28.3667" width="1.23333" height="1.23333" fill="white"/>
<path d="M23.2163 4.27782L23.6479 3.12218C18.5549 1.21052 13.558 3.04448 13.3496 3.12218L13.7813 4.27782C13.83 4.25993 18.5685 2.5345 23.2163 4.27782Z" fill="white"/>
<path d="M10.8416 30.948L10.125 31.952C12.2983 33.5928 14.9299 34.5135 17.6521 34.5851C17.9695 34.5892 18.2868 34.5685 18.6011 34.5235L18.4007 33.3068C18.3668 33.3142 14.8752 33.8291 10.8416 30.948Z" fill="white"/>
<path d="M8.19754 30.0359L9.06964 29.1638L10.3028 30.397L9.43069 31.2691L8.19754 30.0359Z" fill="white"/>
</svg>
